<svg id="Layer_1" data-name="Layer 1" xmlns="http://www.w3.org/2000/svg" viewBox="0 0 41.18701 41.18604"><defs><style>.cls-1{fill:#ecbc54}.cls-2{fill:#e08b36}.cls-3{fill:#e56d34}.cls-4{fill:#d25227}.cls-5{fill:#d4eded}.cls-6{fill:#ce552c}</style></defs><title>Untitled-1</title><path class="cls-1" d="M21.342 2.37a18.567 18.567 0 0 0-15.21 29.253 1.643 1.643 0 0 1 .38-.603c-.074-.39-.144-.79-.197-1.213a1.765 1.765 0 0 1-.723-1.187 3.652 3.652 0 0 1 .114-2.076 47.774 47.774 0 0 1-.767-5.245c-.105-.96-.21-1.92-.343-2.852l-.107-.743.531-.53a43.697 43.697 0 0 1 6.518-4.932c.93-.62 1.855-1.236 2.726-1.854l.384-.28a6.156 6.156 0 0 1 3.797-1.428c1.577-.115 3.859-.107 5.87-.1 1.178.003 2.288.008 3.144-.014.642-.017 2.56-.062 3.447 1.548a4.94 4.94 0 0 1 .479 1.9c.03.269.06.553.119.836a5.974 5.974 0 0 0 .345 1.018c.037.091.075.184.11.278a2.847 2.847 0 0 1 1.7 1.364l.232.41-.045.47c-.02.216-.051.44-.081.659-.029.21-.069.503-.077.685a7.055 7.055 0 0 0 .998.486 4.837 4.837 0 0 1 2.642 1.977l.133.258.027.288a11.976 11.976 0 0 1-.022 2.022c-.018.238-.034.47-.042.688a1.651 1.651 0 0 1 .663.687 3.055 3.055 0 0 1 .323 2.351 1.356 1.356 0 0 0-.039.218l.054.508-.269.412a4.753 4.753 0 0 1-2.7 1.906 6.12 6.12 0 0 1-1.998 3.993 4.514 4.514 0 0 1-4.106.846 1.494 1.494 0 0 1-.857-.558 2.997 2.997 0 0 1-1.064-1.11 6.231 6.231 0 0 1-.506-1.042c-.335.06-.672.116-1.009.173l-.073.013a4.302 4.302 0 0 1-1.908 3.292 3.74 3.74 0 0 1-3.516.254 4.383 4.383 0 0 1-2.636.217 3.897 3.897 0 0 1-1.934-1.06 13.245 13.245 0 0 1-.28-.008 4.704 4.704 0 0 1-2.312 3.135 18.583 18.583 0 1 0 8.085-35.31z" transform="translate(-.749 -.37)"/><path class="cls-2" d="M21.342.37a20.593 20.593 0 1 0 20.594 20.592A20.616 20.616 0 0 0 21.342.37zm0 39.186a18.449 18.449 0 0 1-8.085-1.876l-.035.02-.21.096-.227.03a6.597 6.597 0 0 1-.85.057 4.132 4.132 0 0 1-3.737-2.062 2.381 2.381 0 0 1-.879-.221l-.47-.221-.233-.464a5.104 5.104 0 0 1-.597-2.751 1.92 1.92 0 0 1 .113-.541 18.578 18.578 0 1 1 15.21 7.933z" transform="translate(-.749 -.37)"/><path class="cls-3" d="M15.568 34.545c.093.004.186.007.281.009a3.897 3.897 0 0 0 1.934 1.06 4.383 4.383 0 0 0 2.636-.218 3.74 3.74 0 0 0 3.516-.254 4.302 4.302 0 0 0 1.908-3.292l.073-.013c.337-.057.674-.113 1.009-.173a6.231 6.231 0 0 0 .506 1.042 2.997 2.997 0 0 0 1.064 1.11 1.494 1.494 0 0 0 .857.558 4.514 4.514 0 0 0 4.106-.846 6.12 6.12 0 0 0 1.998-3.993 4.753 4.753 0 0 0 2.7-1.906l.269-.412-.054-.508a1.356 1.356 0 0 1 .04-.218 3.055 3.055 0 0 0-.324-2.351 1.651 1.651 0 0 0-.663-.687c.008-.218.024-.45.042-.688a11.976 11.976 0 0 0 .022-2.022l-.027-.288-.133-.258a4.837 4.837 0 0 0-2.641-1.977 7.055 7.055 0 0 1-.998-.486c.007-.182.047-.476.076-.685.03-.22.06-.443.08-.66l.046-.468-.232-.41a2.847 2.847 0 0 0-1.699-1.365c-.036-.094-.074-.187-.111-.278a5.974 5.974 0 0 1-.345-1.018c-.06-.283-.089-.567-.12-.836a4.94 4.94 0 0 0-.478-1.9c-.887-1.61-2.805-1.565-3.447-1.548-.855.022-1.966.018-3.145.014-2.01-.007-4.292-.015-5.869.1a6.156 6.156 0 0 0-3.797 1.428l-.384.28c-.871.618-1.797 1.235-2.726 1.854a43.697 43.697 0 0 0-6.518 4.932l-.53.53.106.743c.133.931.237 1.892.342 2.852a47.774 47.774 0 0 0 .768 5.245 3.652 3.652 0 0 0-.114 2.076 1.765 1.765 0 0 0 .722 1.187c.054.423.123.824.198 1.213a1.643 1.643 0 0 0-.38.603 1.92 1.92 0 0 0-.113.541 5.104 5.104 0 0 0 .597 2.751l.234.464.47.22a2.381 2.381 0 0 0 .878.222 4.132 4.132 0 0 0 3.736 2.062 6.597 6.597 0 0 0 .85-.058l.229-.029.209-.096.035-.02a4.704 4.704 0 0 0 2.311-3.135zm-2.974 1.865a2.988 2.988 0 0 1-3.533-2.097 2.672 2.672 0 0 1-1.104 0 3.63 3.63 0 0 1-.441-1.987c-.014-.418.645-.165.662-.552a21.008 21.008 0 0 1-.442-2.76 1.839 1.839 0 0 1-.661-.552 1.993 1.993 0 0 1 .22-1.656 84.598 84.598 0 0 1-1.215-8.5c2.339-2.338 6.012-4.466 9.053-6.623a5.253 5.253 0 0 1 3.421-1.435c2.42-.177 6.613-.053 8.942-.11a2.14 2.14 0 0 1 2.096.772 10.338 10.338 0 0 1 .443 2.318c.19.918.638 1.602.772 2.319a1.63 1.63 0 0 1 1.546.772 6.556 6.556 0 0 0-.11 1.987c.383 1.272 3.106 1.397 3.753 2.65.123 1.316-.221 2.576 0 3.642a2.96 2.96 0 0 1 .773.332c.52.84.04 1.326.109 1.987a3.781 3.781 0 0 1-2.87 1.434c.119 2.319-1.166 5.394-4.304 4.637a1.336 1.336 0 0 1-.112-.221 1.551 1.551 0 0 1-.882-.773 8.256 8.256 0 0 1-.773-1.986c-1.172.262-2.435.435-3.643.662.527 2.787-1.835 4.563-3.863 3.09a2.68 2.68 0 0 1-3.863-.662c-.705.08-1.294-.038-2.209 0-.201 1.208-.583 2.765-1.765 3.312z" transform="translate(-.749 -.37)"/><path class="cls-4" d="M16.568 33.098a2.68 2.68 0 0 0 3.863.662c2.028 1.473 4.39-.303 3.863-3.09 1.208-.228 2.471-.4 3.643-.662a8.256 8.256 0 0 0 .773 1.986 1.551 1.551 0 0 0 .882.773 1.336 1.336 0 0 0 .112.22c3.138.758 4.423-2.317 4.305-4.636a3.781 3.781 0 0 0 2.869-1.434c-.07-.66.41-1.147-.11-1.987a2.96 2.96 0 0 0-.772-.332c-.221-1.066.123-2.326 0-3.642-.647-1.253-3.37-1.378-3.753-2.65a6.556 6.556 0 0 1 .11-1.987 1.63 1.63 0 0 0-1.546-.772c-.134-.717-.582-1.401-.772-2.319a10.338 10.338 0 0 0-.443-2.318 2.14 2.14 0 0 0-2.096-.773c-2.329.058-6.521-.066-8.942.11a5.253 5.253 0 0 0-3.421 1.436c-3.04 2.157-6.714 4.285-9.053 6.623a84.598 84.598 0 0 0 1.215 8.5 1.993 1.993 0 0 0-.22 1.656 1.839 1.839 0 0 0 .661.552 21.008 21.008 0 0 0 .442 2.76c-.017.387-.676.134-.662.552a3.63 3.63 0 0 0 .44 1.986 2.672 2.672 0 0 0 1.105 0 2.988 2.988 0 0 0 3.532 2.098c1.183-.547 1.565-2.104 1.766-3.312.915-.038 1.504.08 2.209 0zm1.655-4.857a1.897 1.897 0 0 1 .441 2.76c-1.077.082-.953-2.292-.44-2.76zm2.098 4.416a.3.3 0 0 0 .22.33c-.679.234-.293.417-.993.442.401.578-.475.07-.442.552-.326.06-.779-.312-.883-.11-.185-.426.955-.145 1.325-.442a1.91 1.91 0 0 1-.11-.552.714.714 0 0 0 .551.11c.053-.347-.338-.249-.221-.661a.72.72 0 0 0 .553-.11.306.306 0 0 0-.332-.222.601.601 0 0 1 .552-.33c.042-.374-.49-.174-.33-.663.28-.085.507.431.661.11.345-.034-.28.32.11.331-.592.377.022 1.12-.661 1.215zm.11-2.208c.16-.06.57.13.552-.11a.897.897 0 0 1 .22.551.583.583 0 0 1-.772-.44zm.993-2.98a1.956 1.956 0 0 1-.22-1.546c.722-.288 1.252-.786 2.207-.552a2.137 2.137 0 0 1 .221 1.766c-.856.052-1.275.66-2.208.332zm2.356 5.372c-.311.152-.649.278-.443.662-.503.05-.541.564-1.214.442a1.18 1.18 0 0 1 .994-.663c-.19-.525.102-.73.552-.882.137-.358-.358-.085-.22-.442.25.031.414-.027.44-.22.169.186-.386.756-.11 1.103zm9.241-1.719a.321.321 0 0 0 .03.063l-.089.045a.293.293 0 0 0 .2.249 1.204 1.204 0 0 0-.556.354c.003.006.001.009.004.015a.6.6 0 0 0-.062.013.62.62 0 0 1-.128.035.884.884 0 0 0-.2.117c.221.409-.523.011-.492.46-.328.059-.78-.313-.884-.111-.115-.266.285-.256.692-.284a1.12 1.12 0 0 1 .575-.391.31.31 0 0 1-.053-.319.656.656 0 0 0 .306.106.526.526 0 0 1 .046-.39.302.302 0 0 1-.02-.268.713.713 0 0 0 .551-.11.306.306 0 0 0-.331-.22.36.36 0 0 1 .093-.105.297.297 0 0 1 .018-.079c.023.003.035-.006.057-.005a.805.805 0 0 1 .32-.125.21.21 0 0 0 .059-.084c-.03-.276-.473-.142-.326-.596.281-.085.507.432.662.11.344-.034-.28.32.11.332-.563.357-.049 1.04-.582 1.188zm2.918-5.972c.052.715.061 1.268-.939 1.435v-.11a2.402 2.402 0 0 0-.191-.221c-.284.011-.061.43-.346.442-2.87.397-6.085-.231-8.782 0-.283.004-.11-.082-.086-.221a.847.847 0 0 1-.209-.221c-.29-.033-.356.153-.325.442-.157-.074-.338-.676-.55-.331a2.536 2.536 0 0 1-.522-1.215c3.882-.23 7.854-.048 11.95 0zm-10.872-3.642c.2.498.148-.03.332-.11-.128.055.901.238.44-.111.035-.15.277-.092.443-.11v.551a3.53 3.53 0 0 0-1.767.332c-.477-.42.282-.347.442-.442.12-.073-.087-.605.11-.11zm-.22 2.318c-.178.408.346-.808-.111-.442a.618.618 0 0 1 .552-.662c.78-.01 1.22 1.792-.221 1.545.001-.22.301-.14.22-.441-.015-.275-.373-.032-.44 0zm8.61-2.65c.093-.02.103.043.11.11-.055.447.557-.118.442-.11.112-.007.567.554.551 0a1.428 1.428 0 0 0 .553.221.517.517 0 0 0-.11.331 5.636 5.636 0 0 0-1.547.11c-.206-.196.09-.28 0-.662zm.883 1.325a3.74 3.74 0 0 0 .552.772c-.09.388-.333.625-.442.994a.717.717 0 0 1-.552-.11 1.738 1.738 0 0 0 .442-.663c-.58.095-.178-.437-.552-.33-.242-.214.257-.62.552-.663zm.994 1.435a1.466 1.466 0 0 1 .22.773h-.994a5.083 5.083 0 0 0 .774-.773zm.11-1.987a3.009 3.009 0 0 1 .11 1.324c-.306-.466-.423-1.122-1.214-1.103.23-.454 1.066.385 1.104-.22zM31.8 18.306c-.675-.356-.453-1.607-.883-2.208 1.225-.602 1.07 1.685.883 2.208zM7.075 21.84c.426 1.413.356 3.322.772 4.746-.3-.006-.303-.492-.331-.662-.193-1.135-.306-2.63-.441-4.084zM8.73 32.767c-.157-.01-.313-.019-.332.11a.477.477 0 0 1 .332-.772v.662zm2.65.772c-1.242.013-1.07-2.25-.222-2.538.686.282.988 2.104.221 2.538zm1.986 1.436c-.31.152-.648.278-.442.662-.503.049-.54.563-1.214.442a1.178 1.178 0 0 1 .994-.663c-.191-.525.103-.73.551-.883.137-.357-.357-.084-.22-.442.251.032.415-.026.441-.22.17.186-.386.757-.11 1.104zm-.331-1.656c.174.009.42-.053.441.11.12.388-.676.296-.441-.11zm.552-3.201c-.603-.706-.935-1.686-2.098-1.656a3.024 3.024 0 0 0-2.428 2.097c-.14.386.183 1.143-.552 1.104.074-2.396.73-3.758 2.097-4.857.119-.095.232-.373.331-.441a16.654 16.654 0 0 0 2.43-1.325 1.489 1.489 0 0 0-.553-.331 59.829 59.829 0 0 0-5.298 3.642c-.328-.299.06-.814 0-1.214a43.21 43.21 0 0 0 4.857-3.311c.224.069.03.557.441.441a.756.756 0 0 1 .773-.662c-.272-2.156-.651-4.206-.883-6.403-1.167-.88-2.069.49-3.091 1.214-.856.608-1.594 1.03-2.208 1.436a2.983 2.983 0 0 1-.33.773c-.083.407.225 1.06-.112 1.103.114-.953-.288-1.704-.22-2.428.121-1.31 1.196-1.912 2.097-2.539a10.53 10.53 0 0 0-1.214 2.207c.954-.314 1.188-1.558 1.545-2.538a3.207 3.207 0 0 0 .884-.773c-.15.771-1.078 1.719-1.325 2.76.787-.428.893-1.536 1.545-2.098-.099-.329.345-.672.11-.772a16.923 16.923 0 0 1 3.091-2.098c-.39.86-1.1 1.402-1.324 2.429 1.664-.728 1.398-3.385 3.421-3.753.627.183.485 1.134 1.105 1.324.662-.073.14-1.331.44-1.766 1.77-1.264 4.129-.705 6.404-.662 1.681.03 3.418-.256 5.188-.221a3.29 3.29 0 0 1 .331 1.103c-.34-.401-1.09.075-1.656.111.302.422 1.26.155 1.656 0 .328.472-1.483.169-1.876.442-.45-.184.18-.194.11-.331-.444-.863-1.899.482-1.987.993.84.104.676-.795 1.435-.773-.191.318-1.172.734-1.214 1.435a19.09 19.09 0 0 0 .662 4.636 2.861 2.861 0 0 0 2.429 1.215c-.072-.502-.865-.611-1.326-.883.922-.33 2.649.147 3.423-.332.758.384 1.382.9 2.097 1.325-1.55.369-3.814.144-5.52.331a11.22 11.22 0 0 0-2.87.332c.2.546.93.246 1.325.22 2.333-.152 7.07-.573 9.384.11a6.103 6.103 0 0 1-1.877.111 1.663 1.663 0 0 0-.33 1.104c.18.355.368.281.772.22a3.036 3.036 0 0 0-.773 1.195c-.11.67.335.636.441 1.636h-.772a5.874 5.874 0 0 0-.332-1.415c-.097-.767.284-1.964-.33-2.308-.77.518-.02 2.508-.442 3.371-.535.102-.313-.618-.331-.908-.066-1.005.144-2.317-.442-2.662-.938.763.41 2.855-.442 3.527-.645-.79.099-2.972-.663-3.646-.602.757.15 2.87-.44 3.64-.445-.917-.025-2.699-.663-3.422-.533.352-.358 1.215-.331 1.876.021.533.436 1.382-.221 1.546-.284-.968.096-2.6-.441-3.312-.988.233-.05 1.845-.331 2.87-.236-.052-.21.158-.22.33a3.553 3.553 0 0 1-1.106.222 1.497 1.497 0 0 0 .774-1.877 2.516 2.516 0 0 0-1.325-.552 2.59 2.59 0 0 1 1.325-.22 2.264 2.264 0 0 0 .11-1.105c-.616-.408-1.614.061-2.429.11a1.229 1.229 0 0 0-.33 1.215 1.384 1.384 0 0 0 1.103.146A1.59 1.59 0 0 0 24.404 25h-.772c.023-2 .179-2.543.11-3.899a21.594 21.594 0 0 0-4.304-1.618c-.263-.065.017.92-.222.516-.404.187-.064-.195-.11-.35a3.12 3.12 0 0 1-.22-1.665 1.968 1.968 0 0 0-.884-.998c-.234-.906.033-2.317-.883-2.541-.01.637.477 1.728.552 2.648a12.512 12.512 0 0 1-.883-2.65 4.75 4.75 0 0 0-2.098.993 6.796 6.796 0 0 0-1.766 1.325 8.515 8.515 0 0 0 .332 1.104 24.25 24.25 0 0 0 .772 5.63c1.62-.552 2.986-1.357 4.526-1.987.312-.02.757.095.773-.221.066-.581-.558-.474-.883-.662a2.128 2.128 0 0 1-1.435.662c-.053-1.23-.969-4.064.993-3.864.014.796.17 1.622.221 2.65a3.73 3.73 0 0 0 1.655.33c.362.113.68.237.994.332a6.88 6.88 0 0 1 .994.22c1.16.667.966 2.064.993 3.864-.803.337-1.778.503-2.208 1.214-.504-.172-.673-.573-1.103-.662-2.374-.49-3.733 1.89-3.864 3.974-1.188-.21-1.01-1.786-1.546-2.65-.041-.694.086-1.557-.44-1.765-.403 1.75 1.16 4.13-.111 5.188z" transform="translate(-.749 -.37)"/><path class="cls-5" d="M13.476 33.43c-.02-.164-.267-.102-.441-.111-.235.406.562.498.441.11zM8.398 32.877c.02-.129.175-.12.332-.11v-.662a.477.477 0 0 0-.332.772zM11.158 31c-.849.29-1.02 2.552.221 2.54.767-.435.465-2.257-.221-2.54zM20.431 30.45a.583.583 0 0 0 .772.44.897.897 0 0 0-.22-.551c.018.24-.392.05-.552.11zM18.223 28.24c-.512.47-.636 2.843.441 2.76a1.897 1.897 0 0 0-.44-2.76zM23.411 25.371c-.955-.234-1.485.264-2.208.552a1.956 1.956 0 0 0 .221 1.546c.933.327 1.352-.28 2.208-.332a2.137 2.137 0 0 0-.22-1.766zm-.883.331a1.165 1.165 0 0 1-1.104 1.104 1.437 1.437 0 0 1 1.104-1.104zm-.552 1.546a.798.798 0 0 1 .883-.883c-.173.432-.366 1.123-.883.883zM23.989 25.15a2.536 2.536 0 0 0 .523 1.215c.211-.345.392.257.549.33-.03-.288.035-.474.325-.441a.847.847 0 0 0 .209.221c-.024.139-.197.225.086.22 2.697-.23 5.913.398 8.782 0 .285-.01.062-.43.346-.441a2.402 2.402 0 0 1 .191.22v.111c1-.167.991-.72.939-1.435-4.096-.048-8.068-.23-11.95 0zm8.033.883c.602-.34 1.338.131 2.097 0 .007.832-1.529.195-2.097.221.13-.158.585-.208 0-.221zm-.11.11a4.501 4.501 0 0 1-2.32.222 23.772 23.772 0 0 1-3.09-.111c-.069-.098-.134-.197 0-.221a.17.17 0 0 1 .11-.22c.828.08 2.15.102 3.533.11a2.696 2.696 0 0 1 1.766.22zM35.555 24.709a1.466 1.466 0 0 0-.221-.773 5.083 5.083 0 0 1-.774.773h.995zM34.34 22.17c.791-.02.908.637 1.215 1.103a3.009 3.009 0 0 0-.111-1.324c-.038.606-.875-.233-1.104.22zM33.456 21.839a5.636 5.636 0 0 1 1.546-.11.517.517 0 0 1 .11-.332 1.428 1.428 0 0 1-.552-.22c.016.553-.439-.008-.551 0 .115-.009-.497.556-.442.11-.007-.068-.017-.13-.11-.11.09.381-.207.465 0 .662zM24.515 22.06a3.53 3.53 0 0 1 1.767-.332v-.552c-.166.02-.408-.04-.442.11.46.35-.57.167-.441.111-.184.08-.132.61-.332.11-.197-.494.01.038-.11.11-.16.096-.92.024-.442.443zM31.8 18.306c.189-.523.343-2.81-.882-2.208.43.6.208 1.852.883 2.208z" transform="translate(-.749 -.37)"/><path class="cls-5" d="M14.138 26.696c.536.863.358 2.438 1.546 2.649.131-2.084 1.49-4.464 3.864-3.974.43.09.599.49 1.103.662.43-.71 1.405-.877 2.208-1.214-.027-1.8.166-3.197-.993-3.863a6.88 6.88 0 0 0-.994-.221c-.314-.095-.632-.22-.994-.331a3.73 3.73 0 0 1-1.655-.332c-.05-1.027-.207-1.853-.22-2.649-1.963-.2-1.047 2.634-.994 3.864a2.128 2.128 0 0 0 1.435-.662c.325.188.95.081.883.662-.016.316-.46.202-.773.22-1.54.631-2.906 1.436-4.526 1.987a24.25 24.25 0 0 1-.772-5.63 8.515 8.515 0 0 1-.332-1.103 6.796 6.796 0 0 1 1.766-1.325 4.75 4.75 0 0 1 2.098-.993 12.512 12.512 0 0 0 .883 2.65c-.075-.92-.562-2.011-.552-2.648.916.224.65 1.635.883 2.541a1.968 1.968 0 0 1 .884.998 3.12 3.12 0 0 0 .22 1.665c.046.155-.294.537.11.35.24.405-.041-.581.222-.516a21.594 21.594 0 0 1 4.305 1.618c.068 1.356-.088 1.899-.11 3.899h.771a1.59 1.59 0 0 1 .663-2.574 1.384 1.384 0 0 1-1.104-.146 1.229 1.229 0 0 1 .331-1.214c.815-.05 1.813-.519 2.429-.11a2.264 2.264 0 0 1-.11 1.103 2.59 2.59 0 0 0-1.325.221 2.516 2.516 0 0 1 1.325.552 1.497 1.497 0 0 1-.773 1.877 3.553 3.553 0 0 0 1.104-.221c.01-.173-.015-.383.22-.331.281-1.025-.656-2.637.332-2.87.537.713.158 2.344.441 3.312.657-.164.242-1.013.22-1.546-.026-.66-.2-1.524.332-1.876.638.723.218 2.505.663 3.423.59-.77-.161-2.884.44-3.641.762.674.018 2.856.663 3.646.852-.672-.496-2.764.442-3.527.586.345.376 1.657.442 2.662.018.29-.204 1.01.331.908.422-.863-.328-2.853.441-3.371.615.344.234 1.54.332 2.308a5.874 5.874 0 0 1 .33 1.415h.773c-.106-1-.55-.966-.44-1.636a3.036 3.036 0 0 1 .772-1.194c-.404.06-.592.134-.773-.22a1.663 1.663 0 0 1 .33-1.105 6.103 6.103 0 0 0 1.878-.11c-2.313-.684-7.051-.263-9.384-.11-.394.025-1.124.325-1.325-.221a11.22 11.22 0 0 1 2.87-.332c1.706-.187 3.97.038 5.52-.33-.715-.426-1.339-.942-2.097-1.326-.774.479-2.5.003-3.423.332.46.272 1.254.38 1.326.883a2.861 2.861 0 0 1-2.429-1.215 19.09 19.09 0 0 1-.662-4.636c.042-.7 1.023-1.117 1.214-1.435-.759-.022-.595.877-1.435.773.088-.511 1.543-1.856 1.986-.993.072.137-.56.147-.11.33.394-.272 2.205.03 1.877-.44-.395.154-1.354.42-1.656 0 .566-.037 1.316-.513 1.656-.112a3.29 3.29 0 0 0-.331-1.103c-1.77-.035-3.507.251-5.188.22-2.275-.042-4.634-.601-6.403.663-.301.435.221 1.693-.441 1.766-.62-.19-.478-1.141-1.105-1.324-2.023.368-1.757 3.025-3.421 3.753.224-1.027.934-1.569 1.324-2.429a16.923 16.923 0 0 0-3.09 2.097c.234.101-.21.444-.111.773-.652.562-.758 1.67-1.545 2.097.247-1.04 1.175-1.988 1.325-2.76a3.207 3.207 0 0 1-.883.774c-.358.98-.592 2.224-1.546 2.538a10.53 10.53 0 0 1 1.214-2.207c-.9.627-1.976 1.228-2.097 2.539-.068.724.334 1.475.22 2.428.337-.044.029-.696.112-1.104a2.983 2.983 0 0 0 .33-.772c.614-.405 1.352-.828 2.208-1.436 1.022-.725 1.924-2.094 3.09-1.214.233 2.197.612 4.247.884 6.403a.756.756 0 0 0-.773.662c-.41.116-.217-.372-.441-.441a43.21 43.21 0 0 1-4.857 3.311c.06.4-.328.915 0 1.214a59.829 59.829 0 0 1 5.298-3.642 1.489 1.489 0 0 1 .552.33 16.654 16.654 0 0 1-2.429 1.326c-.099.068-.212.346-.331.441-1.367 1.1-2.023 2.46-2.097 4.857.735.039.413-.719.552-1.104a3.024 3.024 0 0 1 2.428-2.097c1.163-.03 1.495.95 2.098 1.656 1.271-1.058-.292-3.438.11-5.188.527.208.4 1.071.441 1.766zm7.838-4.747a2.97 2.97 0 0 1-1.766 2.318 26 26 0 0 1 1.766-2.318zm-.883-.331c.144-.144.08-.508.441-.331-.269.48-.575.971-.883 1.435a1.859 1.859 0 0 1-1.103 1.104 7.176 7.176 0 0 1 1.545-2.208zm-.772-.11a.17.17 0 0 1 .22.11c-.366.628-.428 1.559-1.325 1.655a11.85 11.85 0 0 1 1.105-1.765zM18.113 22a11.355 11.355 0 0 1 .441 2.76c-.645-.528-.445-1.76-.773-2.76h.332zm-1.545 3.813a1.995 1.995 0 0 1-1.105 1.214 4.319 4.319 0 0 1 .883-1.435c.286-.437.406-1.18 1.105-1.214a7.391 7.391 0 0 1-.883 1.434zm.55-2.098a7.296 7.296 0 0 1-.993 1.656c-.332.456-.71 1.137-1.214 1.104.537-1.083 1.395-1.843 1.987-2.87a.17.17 0 0 1 .22.11zm-2.538-.11c.343-.115 1.254-.865 1.325-.22a1.45 1.45 0 0 0-.994.44c.268.26.635-.316 1.103-.22-.041.656-.622.776-1.324.773a.767.767 0 0 1-.11-.773zm10.266-10.597c-.017.129-.2.092-.331.11a1.43 1.43 0 0 1 .442.441 26.415 26.415 0 0 1 .442 3.312c.062 1.023.379 1.63-.111 2.208a34.218 34.218 0 0 1-5.74.33 20.755 20.755 0 0 1-.994-6.622c1.408-.284 3.446.06 4.857-.221-1.016-.277-2.631-.008-3.973-.11-.36-.028-.907.091-.994-.331 2.414.214 5.465-.615 6.402.883zm-11.039 1.545c.245-.427.342-1.241.994-1.215a5.898 5.898 0 0 1-1.657 2.54 2.313 2.313 0 0 1 .663-1.325zm-3.201 13.798c.334-.697.52-1.54 1.325-1.766-.497.534-.483 1.578-1.325 1.766zm.663-.11a2.57 2.57 0 0 1 1.325-1.656c-.446.549-.556 1.432-1.325 1.656zM13.476 33.87c-.026.195-.19.253-.441.221-.137.358.357.085.22.442-.448.153-.743.358-.551.883a1.178 1.178 0 0 0-.994.663c.674.121.711-.393 1.214-.442-.206-.384.132-.51.442-.662-.276-.347.28-.918.11-1.104zM18.223 33.87c.104-.2.557.17.883.111-.033-.481.843.026.442-.552-.37.297-1.51.016-1.325.442zM20.872 31.111c-.154.321-.38-.195-.662-.11-.158.489.373.289.331.662a.601.601 0 0 0-.552.331.306.306 0 0 1 .332.221.72.72 0 0 1-.553.11c-.117.413.274.315.221.663a.714.714 0 0 1-.551-.11 1.91 1.91 0 0 0 .11.551c.7-.025.314-.208.993-.441a.3.3 0 0 1-.22-.331c.683-.095.069-.838.662-1.215-.39-.012.234-.365-.11-.33z" transform="translate(-.749 -.37)"/><path class="cls-5" d="M25.067 24.267c1.442.247 1-1.555.22-1.545a.618.618 0 0 0-.551.662c.457-.366-.067.85.11.442.068-.032.426-.275.442 0 .08.301-.22.221-.221.441zM34.34 23.494a1.738 1.738 0 0 1-.442.663.717.717 0 0 0 .552.11c.11-.369.351-.606.442-.994a3.74 3.74 0 0 1-.552-.772c-.295.043-.794.45-.552.662.374-.106-.027.426.552.331zM7.847 26.585c-.416-1.424-.346-3.333-.772-4.746.135 1.454.248 2.95.44 4.084.03.17.032.656.332.662zM33.493 29.603c-.155.32-.38-.196-.662-.111-.147.454.295.32.326.596a.21.21 0 0 1-.059.084.805.805 0 0 0-.32.125c-.022 0-.034.008-.057.005a.297.297 0 0 0-.018.079.36.36 0 0 0-.093.104.306.306 0 0 1 .331.221.713.713 0 0 1-.551.11.302.302 0 0 0 .02.268.526.526 0 0 0-.047.39.656.656 0 0 1-.305-.106.31.31 0 0 0 .053.319 1.12 1.12 0 0 0-.575.391c-.407.028-.807.018-.692.284.104-.202.556.17.883.11-.03-.448.714-.05.493-.459a.884.884 0 0 1 .2-.117.62.62 0 0 0 .128-.034.6.6 0 0 1 .062-.014c-.003-.006 0-.01-.004-.015a1.204 1.204 0 0 1 .556-.354.293.293 0 0 1-.2-.25l.09-.044a.321.321 0 0 1-.03-.063c.532-.149.018-.831.581-1.189-.39-.012.234-.365-.11-.33zM23.89 31.737c-.027.194-.19.252-.442.221-.137.357.357.084.22.442-.45.152-.742.357-.551.882a1.18 1.18 0 0 0-.994.663c.673.122.71-.393 1.214-.442-.206-.383.132-.51.442-.662-.276-.347.279-.917.11-1.104z" transform="translate(-.749 -.37)"/><path class="cls-6" d="M10.606 28.351c.842-.188.828-1.232 1.325-1.766-.805.226-.991 1.07-1.325 1.766zM11.269 28.24c.77-.223.879-1.106 1.324-1.655a2.57 2.57 0 0 0-1.324 1.656zM16.346 25.592a4.319 4.319 0 0 0-.883 1.435 1.995 1.995 0 0 0 1.105-1.214 7.391 7.391 0 0 0 .883-1.435c-.699.034-.819.777-1.105 1.214zM16.125 25.371a7.296 7.296 0 0 0 .994-1.656.17.17 0 0 0-.22-.11c-.593 1.026-1.451 1.787-1.988 2.87.505.033.882-.648 1.214-1.104zM16.014 23.605c-.468-.096-.835.48-1.103.22a1.45 1.45 0 0 1 .994-.44c-.07-.645-.982.105-1.325.22a.767.767 0 0 0 .11.773c.702.003 1.283-.117 1.324-.773zM18.113 22h-.332c.328 1 .128 2.232.773 2.76a11.355 11.355 0 0 0-.441-2.76zM21.976 21.95a26 26 0 0 0-1.766 2.317 2.97 2.97 0 0 0 1.766-2.318zM20.541 21.618a.17.17 0 0 0-.22-.11 11.85 11.85 0 0 0-1.105 1.765c.897-.096.96-1.027 1.325-1.655z" transform="translate(-.749 -.37)"/><path class="cls-6" d="M20.651 22.722c.308-.464.614-.955.883-1.435-.361-.177-.297.187-.44.33a7.176 7.176 0 0 0-1.546 2.209 1.859 1.859 0 0 0 1.103-1.104zM14.801 13.338c-.652-.026-.75.788-.994 1.215a2.313 2.313 0 0 0-.663 1.325 5.898 5.898 0 0 0 1.657-2.54z" transform="translate(-.749 -.37)"/><path class="cls-4" d="M19.438 12.456c1.342.102 2.957-.167 3.973.11-1.411.28-3.449-.063-4.857.22a20.755 20.755 0 0 0 .994 6.624 34.218 34.218 0 0 0 5.74-.331c.49-.579.173-1.185.11-2.208a26.415 26.415 0 0 0-.44-3.312 1.43 1.43 0 0 0-.443-.441c.13-.018.314.019.331-.11-.937-1.498-3.988-.67-6.402-.883.087.422.634.303.994.33z" transform="translate(-.749 -.37)"/><path class="cls-6" d="M21.976 27.248c.517.24.71-.45.883-.883a.798.798 0 0 0-.883.883zM34.119 26.033c-.759.131-1.495-.34-2.097 0 .585.013.13.063 0 .221.568-.026 2.104.611 2.097-.221zM26.502 26.033c-.134.024-.069.123 0 .221a23.772 23.772 0 0 0 3.09.11 4.501 4.501 0 0 0 2.32-.22 2.696 2.696 0 0 0-1.767-.221c-1.383-.008-2.705-.03-3.532-.11a.17.17 0 0 0-.11.22z" transform="translate(-.749 -.37)"/><path class="cls-6" d="M22.528 25.702a1.437 1.437 0 0 0-1.104 1.104 1.165 1.165 0 0 0 1.104-1.104z" transform="translate(-.749 -.37)"/></svg>