<svg id="Layer_1" data-name="Layer 1" xmlns="http://www.w3.org/2000/svg" viewBox="0 0 20 20"><defs><style>.cls-1{fill:#b6d3d8}</style></defs><title>instagram</title><path class="cls-1" d="M16.168 1.24H3.564A2.424 2.424 0 0 0 1.14 3.664v12.604a2.424 2.424 0 0 0 2.424 2.424h12.604a2.424 2.424 0 0 0 2.424-2.424V3.664a2.424 2.424 0 0 0-2.424-2.424zM9.866 6.573a3.393 3.393 0 1 1-3.394 3.393 3.393 3.393 0 0 1 3.394-3.393zm6.787 9.695a.485.485 0 0 1-.485.485H3.564a.485.485 0 0 1-.485-.485V8.512h1.68a5.275 5.275 0 0 0-.226 1.454 5.333 5.333 0 0 0 10.665 0 5.275 5.275 0 0 0-.226-1.454h1.68v7.756zm0-10.18a.485.485 0 0 1-.485.485h-2.424a.485.485 0 0 1-.485-.485V3.664a.485.485 0 0 1 .485-.485h2.424a.485.485 0 0 1 .485.485v2.424z"/></svg>