<svg id="Layer_1" data-name="Layer 1" xmlns="http://www.w3.org/2000/svg" viewBox="0 0 20 20"><defs><style>.cls-1{fill:#b6d3d8}</style></defs><title>twitter</title><path class="cls-1" d="M19.423 4.155a7.729 7.729 0 0 1-2.221.61 3.878 3.878 0 0 0 1.7-2.14 7.74 7.74 0 0 1-2.455.938A3.87 3.87 0 0 0 9.858 7.09 10.976 10.976 0 0 1 1.89 3.05a3.87 3.87 0 0 0 1.197 5.162 3.85 3.85 0 0 1-1.751-.484v.049a3.869 3.869 0 0 0 3.1 3.791 3.876 3.876 0 0 1-1.745.066A3.87 3.87 0 0 0 6.3 14.32 7.758 7.758 0 0 1 1.5 15.974a7.87 7.87 0 0 1-.923-.054 10.944 10.944 0 0 0 5.927 1.737 10.925 10.925 0 0 0 11-11q0-.251-.01-.5a7.858 7.858 0 0 0 1.929-2.002z"/></svg>