<svg id="Layer_1" xmlns="http://www.w3.org/2000/svg" viewBox="0 0 509.7 172.5"><style>.st0{fill:#ecbc54}.st1{fill:#d17929}.st2{fill:#d17928}.st3{fill:#d35128}.st4{fill:#8f3d2e}.st5{fill:#c6e3e8}.st6{fill:#008dae}.st7{fill:#d4eded}</style><title>WTT-Logo</title><circle class="st0" cx="430.5" cy="87" r="70.7"/><path class="st1" d="M430.5 161.3c-41 0-74.3-33.3-74.3-74.3s33.3-74.3 74.3-74.3S504.9 46 504.9 87s-33.4 74.3-74.4 74.3zm0-141.3c-37 0-67 30.1-67 67s30.1 67 67 67 67-30.1 67-67-30-67-67-67z"/><path class="st2" d="M371 122.3c0 3.3-.5 6.1-2 6.1-.8-.1-1.5-.5-2-1.2 1.5-1.5 2.8-3.1 4-4.9z"/><path class="st2" d="M369 128.4l.5 2c-22.1 5.4-46.5-1.1-71.3 1.2-8.7.8-97.9 18.2-96.5 23.8-2.1-8.4 7.7-13.7 7.4-20.5-.2-3.9-11.7-21.3-12.2-21 3.6-9.9 27.1-11.5 35.9-13.1 27.6-5.2 55.7-6.8 83.7-4.8 1.5.1 4.3.3 8 .7 1 .2 2.1.3 3.1.5 10.4 1.7 35.4 3.6 41.6 14.7.9 1.6 1.7 6.5 1.7 10.5-1.2 1.8-2.5 3.4-4 4.9.5.5 1.3 1 2.1 1.1z"/><path class="st2" d="M324.5 96.6c18.5 1.8 57.7 7.7 46.5 25.6 0-4-.8-8.8-1.7-10.5-6.2-11.1-31.2-13-41.6-14.7-1.1 0-2.2-.2-3.2-.4zM72.5 129.1c1.4-1.6 2.8-2.7 4.3-2.5-1.5.8-3 1.7-4.3 2.5zM72.5 129.1c-4.6 5.5-8.5 18.2-14.3 16.5-.4-5.4 5.6-11.1 14.3-16.5z"/><path class="st2" d="M64.5 168c-2 0-4.1-.2-6.1-.7-23-5.4-42-40.7-47.6-57-8.9-25.6-7.8-46.7 3.3-63C38.8 10.9 107.8 7.8 153.4 5.8c47.1-2.1 92.4-1.4 134.7 2.2 5.1.4 121.2 10.4 141.7 39.9 20.7 24.9-17 57.8-32.2 72-7.6 7.2-17.1 12.4-27.3 14.8-13.2 3.3-26.7 2.4-41 1.6-10.1-.6-20.6-1.3-30.9-.3-2.4.2-4.5-1.5-4.8-3.9-.2-2.4 1.5-4.5 3.9-4.8 11-1 21.8-.4 32.3.2 13.6.8 26.4 1.6 38.4-1.3 8.8-2.1 16.8-6.5 23.4-12.7 7.6-7.1 19-21.3 26.2-35.9 5.8-11.7 10.8-17.9 2.6-27.8-14.8-18-78-30.5-112-32-8.4-.4-15.6-.7-20.9-1.1-42-3.5-86.9-4.2-133.6-2.2-43.9 2-110.3 4.9-132.6 37.7C11.9 66 11.2 84.6 19 107.4c5.5 15.8 23.2 47.1 41.4 51.4 6.4 1.5 12.4-.5 18.3-6.3 2.6-2.6 4.1-11.2 2-17.1-1.5-4.2-3.6-4.4-4.4-4.4-2.4-.2-4.2-2.4-3.9-4.8.2-2.4 2.4-4.1 4.8-3.9 5.4.5 9.6 4.2 11.7 10.2 3.1 8.8 1.2 21.1-4.1 26.3-6.3 6.1-13.1 9.2-20.3 9.2z"/><path class="st2" d="M72.5 133.5c-1 0-2-.3-2.8-1-1.9-1.5-2.1-4.3-.6-6.1 2.5-3 5.2-4.3 8.1-4.1 2.4.2 4.2 2.4 3.9 4.8-.2 2.3-2.1 3.9-4.3 3.9-.2.1-.5.4-.9.9-.9 1-2.2 1.6-3.4 1.6z"/><path class="st2" d="M59.3 150.2c-.7 0-1.5-.1-2.3-.3-1.8-.5-3.1-2.1-3.2-3.9-.4-6.8 4.9-13.5 16.3-20.5 1.8-1.1 4.2-.8 5.6.8 1.4 1.6 1.4 4 .1 5.7-1.2 1.5-2.5 3.8-3.8 6.1-3.1 5.4-6.8 12.1-12.7 12.1z"/><path class="st2" d="M72.5 133.5c-1.5 0-2.9-.7-3.7-2.1-1.3-2.1-.6-4.7 1.4-6 1.4-.9 2.9-1.8 4.5-2.6 2.1-1.2 4.8-.4 5.9 1.7 1.2 2.1.4 4.8-1.7 5.9-1.4.8-2.8 1.6-4.1 2.4-.8.5-1.6.7-2.3.7z"/><path class="st2" d="M76.8 131c-2.4 0-4.4-2-4.4-4.4s2-4.4 4.4-4.4c2.4 0 4.4 2 4.4 4.4-.1 2.4-2 4.4-4.4 4.4z"/><path class="st2" d="M369 132.8h-.6c-1.9-.3-3.6-1.3-4.8-2.8-1.4-1.8-1.2-4.3.4-5.8 1-.9 1.9-2 2.7-3.1-.2-3.3-.8-6.3-1.2-7.1-4.3-7.7-23.3-10.3-33.4-11.7-1.9-.3-3.6-.5-5.1-.7-1-.2-1.9-.3-2.9-.5-3.5-.3-6.2-.5-7.7-.7h-.1c-27.6-2-55.4-.4-82.6 4.7-1.6.3-3.4.6-5.6.9-8.1 1.2-24.8 3.7-27 9.5-.8 2.3-3.3 3.4-5.6 2.6s-3.4-3.3-2.6-5.6c3.9-10.6 21.9-13.3 33.9-15.1 2.1-.3 3.9-.6 5.3-.8 3.6-.7 7.1-1.3 10.7-1.8-6.4.1-12.8.3-19.1.8-25 1.6-57.7 4.6-88.3 13.1-9.3 2.6-37.7 11.6-56.4 21.9-2.1 1.2-4.8.4-5.9-1.7-1.2-2.1-.4-4.8 1.7-5.9 19.4-10.7 48.6-20 58.3-22.7 31.4-8.7 64.6-11.7 90.1-13.4 31.9-2.1 65.3-.2 102.1 5.6 29.2 2.9 46.4 9.1 51 18.4 1.4 2.8 2.3 7.2-.7 12.8-.1 3.6-.9 6.1-2.4 7.6-1.4.9-2.8 1.5-4.2 1.5z"/><path class="st2" d="M201.7 159.7c-2 0-3.7-1.3-4.2-3.3-1.6-6.5 1.7-11.5 4.4-15.4 1.5-2.2 2.9-4.3 2.9-5.8-.2-.8-1.4-3.7-4.9-9.4-2.5-4.1-4.7-7.3-5.6-8.4-1-.8-1.7-2.1-1.7-3.5 0-1.5.7-2.7 1.8-3.5.1 0 .1-.1.2-.1.7-.4 1.5-.7 2.4-.7.6 0 1.3.1 1.9.4.9.4 2.1 1 8.2 10.9 6.2 10.2 6.4 12.7 6.4 13.8.2 4.5-2.2 8-4.3 11.2-.2.3-.5.7-.7 1 6.8-2.3 18.6-5.5 39.2-10 22.9-5 45.9-9.3 50.2-9.7 2.4-.2 4.5 1.5 4.8 3.9.2 2.4-1.5 4.5-3.9 4.8-3.9.4-25.5 4.4-47.4 9.1-35.1 7.6-43.7 11.3-45.6 12.3-.6 1.1-1.6 1.9-2.8 2.2-.7.2-1 .2-1.3.2z"/><path class="st3" d="M330.1 97.5c-.6-.1-1.4-.2-2.5-.4-34.4-5.7-69.5-8.4-104.3-6.1-29.8 1.9-60.4 5.2-89.2 13.2-12.5 3.5-73.3 20.2-75.2 42.7 7.5 2.1 6.8-11.1 13.5-10.4 11.5 1.1 14.6 11.6 8.3 17.7-29.1 28.4-58.8-25.3-65.8-45.5C-16.5 18 89.9 13 153.6 10.2c44.7-2 89.6-1.6 134.2 2.2 28.5 2.4 116.7 13.5 136.4 37.2 17.8 21.4-14 52.6-29.5 67.1-27.8 25.9-61.9 11.7-96.6 15-8.7.8-97.9 18.2-96.5 23.8-2.1-8.4 7.7-13.7 7.4-20.5-.2-3.9-11.7-21.3-12.2-21 3.6-9.9 27.1-11.5 35.9-13.1 27.6-5.2 55.7-6.8 83.7-4.8 5.1.2 11 1.1 13.7 1.4zm1.5.3h-.2.2zm-.6-.1c-.1 0-.2 0-.4-.1.2.1.3.1.4.1zM331.6 97.8h-.2.2z"/><path class="st3" d="M331 97.7c-.1 0-.3 0-.4-.1.2.1.3.1.4.1z"/><path class="st4" d="M54.7 146.2c-15.3 23 24.1 18.4 28.8 4.9 3.6-10.4-.5-15.1-3.9-26.1-17 9.1-24.9 21.2-24.9 21.2zM366.9 127.2c-3.9-.8-7.7-1.3-11.6-1.6-.6-.1-11.2-1.6-12.7-2.2-10.6-4.4-29.3-16.2-67-25.7l-6.4-1.8 7-.5 8.5-.3s37.6-2.7 72.8 6.6c6.8 1.8 23.1 12.4 13.9 23.1-.9 1.2-1.5 1.9-4.5 2.4z"/><path class="st5" d="M219.2 124.3c-.2.6-.7 1.2-1.3 1.4-1 .3-1.7-.2-2.2-1.7-.3-.6-.2-1.3.2-1.9.3-.5.8-1 1.3-1.2.7-.4 1.5-.1 1.9.6 0 .1.1.2.1.2.3.9.3 1.8 0 2.6zm.7 3.1c0 .1.2.8.4 2.1.2 1.1.5 2.3.9 3.4.9 2.5 1.4 3.2 2 3 .3-.2.5-.6.5-1s.2-.7.5-1c.4-.1.8.2.9.6.1.4.1.8.1 1.2-.1.6-.3 1.2-.6 1.7-.3.6-.9 1.1-1.5 1.3-2.1.7-3.6-.2-4.6-3-.4-1.1-.8-2.3-1.1-3.7-.3-.9-.4-1.8-.5-2.7.1-.6.3-1.1.6-1.5.3-.4.7-.8 1.1-1 .6-.2 1.1 0 1.3.6z"/><path class="st5" d="M229.2 136.8c-1.2.5-2.5.5-3.6.1-.9-.3-1.7-1.1-2-2-.2-.6-.2-1.3.2-1.8.3-.5.7-.8 1.3-1 .4-.2.8 0 1 .3 0 .1 0 .1.1.2 0 .1.1.5.2.7.4 1.2 1.3 1.8 2.4 1.5.6-.1.9-.6.9-1.2 0-.1 0-.2-.1-.3-.8-2.5-5.7-.6-6.9-4.1-.4-1-.2-2.1.4-2.9.7-.9 1.6-1.6 2.7-1.9 2.1-.7 3.9-.1 4.4 1.4.4 1.1-.3 2.4-1.4 2.7-.3.2-.7.1-.9-.2 0 0 0-.1-.1-.1 0-.1-.1-.6-.2-.8-.1-.6-.7-1-1.3-.9-.1 0-.1 0-.2.1-.6.1-.9.7-.8 1.2v.1c.2.7 1.2.9 2.4 1.1 1.7.2 4 .7 4.8 3 .6 2.2-.8 4-3.3 4.8zM250.7 127.1c.1.8 0 1.5-.3 2.2-.7 1.6-2.6 2.3-4.1 1.6-.3-.1-.5-.3-.7-.4-.5 1-1.4 1.7-2.4 2-.8.2-1.6.1-2.3-.3-1.4-.9-2.3-2.4-2.6-4-.7-2.5-.5-4.6.3-5.9.6-1.1 1.5-2 2.7-2.4 1-.3 1.7-.1 2.2.4.3-.7.9-1.2 1.6-1.4.5-.1 1.1.2 1.2.8 0 .1.1.8.2 2.1.1 1.2.3 2.3.6 3.4.6 2.3 1.2 3.3 1.7 3.2.8-.2.5-1.7 1.2-1.9.3-.1.7.2.7.6zm-6.5 1.1c-.1-.1-.1-.3-.2-.4-.2-.7-.4-1.8-.7-3.3-.3.1-.7 0-.8-.3v-.2c-.1-.2 0-1-.1-1.3 0-.2-.3-.4-.5-.4h-.1c-.5.1-.8.6-.9 1.5-.1.9 0 1.8.3 2.7.2.8.5 1.5.8 2.3.6 1.1 1 1.2 1.3 1.1.5-.2.9-.8.9-1.7zM258.1 120.6c1.5.7 2.7 1.7 3.7 2.9 1.1 1.3 1.8 2.9 2.2 4.5.9 4.2-.4 6.5-2.7 7-1.2.3-2.3-.4-3.3-2.1-1.1-2.1-1.9-4.4-2.3-6.7-.4-1.9-.7-3.4-.8-4.6-.7.1-1-.1-1.1-.6 0-.2.3-.5 1-1-.1-1.3-.3-2.6-.4-3.9-.2-2.5.1-4.4.7-5.8.5-1.2 1.5-2 2.7-2.3 2.1-.4 3.3.4 3.7 2.6.1.7.1 1.4-.2 2-.2.7-.8 1.2-1.5 1.3-.5.1-1.1-.2-1.2-.7v-.1c0-.4 0-.7.1-1.1.1-.3.1-.6.1-1 0-.3-.3-.6-.7-.6-.8.2-.9 1.6-.9 3.3 0 .5.1 1.1.1 1.7.1 1.2.3 2 .4 2.8.5-.4 1.1-.9 1.7-1.4.7-.7 1.4-1.3 2.2-1.9.6-.1 1.5.8 1.6 1.8.1.4-.4.9-1.5 1.6-1.2.8-2.4 1.5-3.7 2.1l.1.2zm.4 2.4c1.1 5 1.9 7.5 2.5 7.3.6-.1.7-.9.4-2.5-.3-1.8-1.3-3.6-2.9-4.8z"/><path class="st5" d="M271 115.4c.6 1.2 1.1 2.4 1.3 3.7.4 1.8.2 3.7-.5 5.3-.9 2.1-3.4 3.1-5.5 2.1-.5-.2-.9-.5-1.3-.9-1-.9-1.6-2.1-1.9-3.5-.4-2.6 0-4.7.9-5.9.7-1.1 1.9-1.9 3.1-2.1.3-.1.7-.1 1 .1.3-.2.6-.3 1-.4.7 0 1.3.5 1.9 1.6zm-1.3 7.8c.1-.9.1-1.7 0-2.6-.4-2.3-1.6-3.8-2.8-4-.5 1.4-.6 2.8-.2 4.2.5 2.8 1.6 3.8 2.2 3.6.4 0 .7-.4.8-1.2zM281.5 114.1c.6 1.2 1 2.5 1.1 3.8.3 1.8.1 3.7-.7 5.3-1 2.1-3.5 2.9-5.6 1.9-.5-.2-.9-.5-1.2-.9-.9-1-1.5-2.2-1.7-3.5-.3-2.6.2-4.7 1.1-5.8.8-1.1 1.9-1.8 3.2-2 .3-.1.7 0 1 .1.3-.2.7-.3 1-.4.7-.2 1.3.3 1.8 1.5zm-1.6 7.7c.2-.8.2-1.7.1-2.6-.3-2.3-1.4-3.9-2.6-4.2-.5 1.3-.7 2.8-.4 4.2.4 2.8 1.4 3.9 2.1 3.7.3.1.6-.3.8-1.1zM296.2 120.6c0 .8-.3 1.5-.7 2.1-1 1.4-2.9 1.8-4.4.8-.2-.2-.4-.3-.6-.6-.6.9-1.6 1.4-2.7 1.5-.8.1-1.6-.2-2.2-.7-1.2-1.2-1.8-2.7-1.8-4.4-.2-2.6.4-4.7 1.3-5.8.7-1 1.9-1.7 3.1-1.9.5-.1 1 0 1.4.2.1-3.9.3-6 .4-6.3.2-.5.6-1 1-1.3.4-.4.9-.6 1.4-.7.5 0 1 .4 1 .9v.1c0 .1-.1 2.1-.3 6-.2 3.9-.3 6.3-.2 7.3.2 2.4.6 3.5 1.1 3.5.9-.1.8-1.6 1.5-1.6.4.1.7.5.7.9zm-6.6-.2c0-.2-.1-.3-.1-.5v-3.4c-.4.1-.7-.1-.8-.5v-.2c0-.2.2-1 .1-1.3 0-.2-.2-.4-.4-.4h-.1c-.5 0-.9.5-1.1 1.3-.2.9-.3 1.8-.2 2.7.1.8.2 1.6.4 2.4.4 1.2.8 1.3 1.1 1.3.5 0 .9-.4 1.1-1.4z"/><path class="st5" d="M309.1 121c1.2 0 1.1-1.5 1.8-1.6.4.1.7.4.6.8-.1.8-.4 1.5-.9 2.1-.7.8-1.7 1.3-2.7 1.3-2.4.1-3.8-1.2-3.8-3 0-1.2.3-2.3.8-3.4.4-.9.9-1.8 1.6-2.6-.8.2-1.6.4-2.4.5l-.3 1.4-.4 1.5c-.1.6-.3 1.1-.5 1.7-.3 1-.9 2-1.6 2.9-.7.7-1.6 1.2-2.6 1.2-2.4.1-3.7-1.7-3.7-4.3 0-1.4.1-3.6.3-6.6-1 0-1.4-.3-1.5-.7 0-.3.5-.6 1.6-1.1 0-1.3.2-2.6.5-3.9.2-.5.6-.9 1.1-1.2.4-.3.9-.6 1.4-.6s1 .4 1 1v.1c0 .3-.1 1.4-.3 3.5.1 0 .4-.2.9-.4.3-.2.7-.3 1.1-.3.2 0 .4.2.4.5 0 .4-.1.8-.2 1.2-.1.3-.2.6-.4.9-.6.5-1.3.7-2 .8-.2 2.6-.3 4.3-.3 5.2.1 2.4.5 3.5 1.3 3.5s1.5-1.1 1.9-2.6c.3-1.1.6-2.3.7-3.5-.9-.1-1.4-.7-1.4-1.7 0-.9.3-1.8.8-2.5.6-.9 1-1.3 1.4-1.3.9 0 1.2.3 1.2 1.5 0 .1 0 .7-.1 1.8 1.9-.5 3.4-2.5 3.9-2.5.6 0 1.3 1.1 1.3 2.3-.2.8-.6 1.5-1 2.2-.7 1.2-1 2.5-1 3.9-.1 1.3.5 2 1.5 2z"/><path class="st5" d="M322.3 120.7c-.1.8-.4 1.5-.9 2-.6.8-1.5 1.2-2.5 1.1-1.1 0-2.2-.6-2.7-1.6-.6 1-1.7 1.6-2.8 1.5-2.3-.1-3.3-1.9-3.2-4.5 0-1.1.1-2.4.3-3.8.1-.9.2-1.8.5-2.7.3-.5.7-.9 1.1-1.2.4-.3.9-.5 1.4-.5s.9.5.9 1v.1c0 .1-.1.8-.4 2.1-.2 1.1-.3 2.3-.4 3.4-.1 2.4.3 3.5 1 3.6.7 0 1-.8 1-1.8 0-1.1.1-2.4.3-3.8.1-.9.3-1.8.6-2.7.3-.5.6-.9 1.1-1.2.4-.3.9-.5 1.4-.5.5.1.9.5.9 1 0 .1-.1.8-.3 2.1-.2 1.1-.3 2.3-.4 3.4-.1 2.4.2 3.5.8 3.6.8 0 1-1.5 1.6-1.5.5.1.8.5.7.9z"/><path class="st5" d="M329.5 114.9c-.1 1.7-1.1 3-2.4 2.9-.6 0-1-.4-1.1-.9v-.2c.1-.4.2-.7.4-1 .2-.3.3-.6.4-.9s-.1-.6-.4-.7h-.2c-.5 0-.9.4-1.2 1.2-.3.9-.5 1.8-.5 2.7-.2 2.7.8 4 2.5 4.1 1.5.1 2-.9 2.5-1.3.5-.5 1.1-.1 1 .6-.1.8-.6 1.5-1.6 2.1s-2.2.9-3.3.9c-1.3-.1-2.6-.7-3.4-1.8-.9-1.3-1.3-2.8-1.1-4.4.1-1.7.7-3.4 1.8-4.8.9-1.2 2.4-1.9 3.9-1.8 2 .1 2.8 1.6 2.7 3.3z"/><path class="st5" d="M341.9 122.7c-.2.7-.5 1.4-1.1 1.9-.6.7-1.6 1.1-2.6.9s-1.8-.7-2.4-1.5c-.3-.5-.5-1-.7-1.5-.2-.6-.4-1.1-.5-1.5l-.4-1.6c-.3.5-.5.9-.6 1.1-.4.8-.6 1.7-.7 2.6s-.9 1.7-3.1 1.5c-.5-.1-.6-.9-.4-2.6s.6-4.7 1.4-8.7c.7-4.1 1.3-6.5 1.7-7.1.3-.5.8-.8 1.3-1.1.5-.3 1-.4 1.5-.4.5.1.9.6.8 1.1 0 .1-.2.9-.6 2.4s-.8 3.2-1.2 5c-.3 1.5-.6 2.9-.8 4.4.7-1.3 1.7-2.6 2.8-3.7 1-1 1.9-1.5 2.5-1.5.6.1 1.1.5 1.4 1 .4.4.6.9.7 1.4 0 .3-.2.6-.5.8-.4.2-.9.3-1.4.4-.6.1-1.2.3-1.8.6.1 1.5.3 3 .9 4.4.5 1.2 1 1.9 1.5 1.9.4 0 .8-.3.9-.7.2-.3.5-.6.8-.7.4.4.7.8.6 1.2zM347.2 119c.2.1.4.4.4.7-.2.6-.7 1-1.3 1.2-.7.3-1.5.4-2.3.3-.7 0-1.2-.6-1.2-1.2 0-.1 0-.2.1-.4.2-.7.5-1.4 1-1.8.6-.6 1.2-1.2 1.9-1.7s1.4-1.1 1.9-1.8c.6-.7 1-1.5 1.1-2.3.3-1.6-.2-3.1-1.6-3.3-1-.2-2 .5-2.2 1.6v.1c-.3 1.7 1.3 2.1 1.1 2.7-.2.5-.4 1-.8 1.4-.3.5-.9.8-1.5.7-.6-.2-1.2-.6-1.6-1.1-.5-.8-.6-1.8-.4-2.7.2-1.4 1-2.7 2.2-3.5 1.4-.9 3.1-1.2 4.7-.8 2.9.5 4.3 2.2 4 4.4-.3 1.4-1.1 2.6-2.3 3.4-1.6 1.2-3.5 2.1-3.7 3.3 0 .2.2.6.5.8zm-2.1 6.6c-.5.5-1.2.7-1.8.7-.8-.1-1.4-.9-1.2-2.3 0-.8.5-1.5 1.1-1.9.6-.3 1.2-.4 1.8-.3.7 0 1.3.7 1.3 1.4 0 .1 0 .3-.1.4 0 .8-.4 1.5-1.1 2z"/><path class="st6" d="M396.6 146.3c-6.8 0-10.3-3.5-12.5-7.4-1 .1-2.2 0-3.4-.6l-1.1-.5-.6-1c-1.5-2.8-2.2-5.9-2-9 0-.9.3-2.6 1.9-3.6-.4-2-.7-4-.9-6.1-.9-.5-2.2-1.6-2.5-3.5-.6-2.8-.4-5.2.5-7.2-1.4-6.1-2.2-12.8-2.9-19.3-.4-3.4-.8-7-1.2-10.4l-.3-1.8 1.3-1.3c6.2-6.2 14.9-12 23.2-17.6 3.3-2.2 6.7-4.5 9.9-6.7.5-.4 1-.7 1.4-1 3.1-2.3 5.8-4.3 12.8-4.8 5.6-.4 13.8-.4 21-.4h11.4c2.2-.1 8.2-.2 10.8 4.7 1 1.9 1.3 4.1 1.5 6.2.1 1.1.2 2.2.5 3.2.3 1.4.8 2.7 1.3 4 .2.6.5 1.2.7 1.8 2 .4 4.3 1.5 5.9 4.3l.6 1-.1 1.1c-.1.8-.2 1.5-.3 2.3-.2 1.2-.4 2.9-.3 3.5.2.7 3.2 2 4.6 2.6 3.2 1.4 6.9 3 8.7 6.3l.3.6.1.7c.2 2.5.1 4.9-.1 7-.1 1.3-.2 2.6-.2 3.7.9.3 2 .9 2.6 2.2 1.8 3.1 1.3 5.7 1 7.3-.1.5-.2 1-.2 1.3l.1 1.2-.6 1.1c-2.1 3.4-6.1 5.5-9.9 6.4-.4 4.9-2.3 10.8-6.7 14.4-2.5 2.1-6.9 4.2-13.3 2.7-.7-.2-1.6-.6-2.2-1.6-1.6-.9-2.8-2.2-3.7-3.8-.9-1.5-1.5-3-2.1-4.7-1.7.3-3.4.6-5 .9-.6.1-1.1.2-1.7.3-.1 5-2.3 9.5-6.1 11.9-3.5 2.2-7.9 2.4-11.7.5-2.8 1.3-6 1.7-9.1 1-2.7-.6-4.9-2-6.6-3.9-.8 0-1.6 0-2.4-.1h-.8c-1.1 4.6-3.1 9.4-7.8 11.6l-.4.2-.6.1c-1 .1-1.9.2-2.8.2zM386 131.2c.5 0 1.1.1 1.7.3l1.3.6.6 1.3c1.8 4 3.5 5.9 8.3 5.5 2.4-1.5 3.3-5.8 3.9-9l.5-2.9 3-.1c1.7-.1 3 0 4.2 0 1.3.1 2.4.1 3.5 0l2.4-.3 1.2 2.1c.8 1.5 2.4 2.1 3.2 2.3 1.9.4 3.9 0 5.4-1.1l2.1-1.5 2.1 1.5c2 1.4 4 1.6 5.7.5 2.2-1.4 3.2-4.6 2.6-8.1l-.7-3.6 3.6-.7 5.1-.9c2.7-.4 5.4-.9 7.9-1.5l3.3-.7 1.1 3.7c.8 2.6 1.3 4.3 2.3 5.9l.2.3c.2.5.6.8 1.1 1l.4.2c.5.2.8.5 1.1.8 2.2.3 4-.2 5.5-1.5 3.1-2.6 4.3-7.8 4.1-11.8l-.2-3.7 3.7-.1c2.6-.1 5.4-1.3 6.9-2.8.1-.7.2-1.3.3-1.9.1-.6.2-1 .2-1.3-.8-.2-1.9-.6-2.8-1.6l-.6-.7-.2-.9c-.5-2.6-.3-5.2-.2-7.7.1-1.6.2-3.3.2-4.9-.9-.9-3.1-1.8-4.7-2.5-3.5-1.5-7.5-3.2-8.7-7.2-.6-2-.3-4.3 0-6.6 0-.2 0-.3.1-.5-.4-.2-.9-.3-2-.3l-2.9-.2-.5-2.8c-.2-.9-.6-1.9-1-3.1-.6-1.5-1.3-3.2-1.7-5.2-.3-1.4-.4-2.7-.6-3.8-.2-1.4-.3-2.9-.7-3.5-.4-.7-1.8-1-4.3-.9-3.2.1-7.3.1-11.6.1-7.1 0-15.1-.1-20.5.3-4.9.4-6.2 1.4-9 3.4-.5.4-1 .7-1.5 1.1-3.2 2.3-6.7 4.6-10.1 6.8-7.5 5-15.2 10.1-20.9 15.4.4 2.9.7 5.9 1 8.8.7 6.8 1.5 13.7 3 19.7l.4 1.7-1 1.4c-.1.2-.5.7-.3 2 .7.3 1.5.9 2.1 1.9l.4.7.1.8c.3 3.2.8 6.4 1.5 9.5l.1.5v.5c0 1-.4 2.7-2.4 3.7.1.6.2 1.2.4 1.7.3 0 .8-.1 1.3-.1zm75.5-4.6s.1 0 0 0c.1 0 0 0 0 0z"/><path class="st6" d="M464.4 66.6c2.5.1 4.4.6 5.6 2.8-.2 2.6-.9 5.5-.4 7.2 1.4 4.6 11.3 5.1 13.7 9.7.5 4.8-.8 9.4 0 13.3.6.7 2.4.3 2.8 1.2 1.9 3.1.1 4.8.4 7.2-1.9 3.2-6.8 5.1-10.5 5.2.4 8.5-4.3 19.7-15.7 16.9-.2 0-.3-.7-.4-.8-1.4-.5-2.6-1.5-3.2-2.8-1.3-2.1-1.9-4.3-2.8-7.2-4.3 1-8.9 1.6-13.3 2.4 1.9 10.2-6.7 16.6-14.1 11.3-4.7 3.3-11.5 2.3-14.1-2.4-2.6.3-4.7-.1-8.1 0-.7 4.4-2.1 10.1-6.4 12.1-7.9 1-10.8-2.9-12.9-7.6-.7-.3-2.2.8-4 0-1.2-2.2-1.8-4.7-1.6-7.2 0-1.5 2.4-.6 2.4-2-.8-3.3-1.3-6.7-1.6-10.1-.6-.9-2.2-.7-2.4-2-.5-2.4-.4-4.4.8-6-2.4-9.4-2.9-20.7-4.4-31 8.5-8.5 21.9-16.3 33-24.2 3.9-2.8 5.6-4.7 12.5-5.2 8.8-.6 24.1-.2 32.6-.4 3-.1 6.2.2 7.6 2.8 1.1 2 .9 5.2 1.6 8.5.8 3.2 2.4 5.7 2.9 8.3z"/><path class="st7" d="M400.6 131.6c.6 0 1.5-.2 1.6.4.4 1.4-2.5 1.1-1.6-.4zM385 127.2v2.4c-.6 0-1.1-.1-1.2.4-.9-.7-.1-3 1.2-2.8zM394.6 132.4c-4.5 0-3.9-8.1-.8-9.2 2.5 1 3.6 7.6.8 9.2zM429.2 120.8c.6.3.6 1.3.8 2-.7.5-2.7-.2-2.8-1.6.6-.2 2.1.5 2-.4zM419.3 113.3c3.5 1.7 3.9 7.1 1.6 10-3.9.2-3.5-8.3-1.6-10zM438 102.9c1.2 1.6 1.4 4 .8 6.4-3.1.2-4.6 2.4-8 1.2-1-1.7-1.3-3.7-.8-5.6 2.6-1 4.6-2.8 8-2zM484.6 102.1c.2 2.6-.2 4.6-2 5.2v-2c-1.1-.1-1 .8-1.2 1.6-1.1.3-.8-.8-1.6-.8-1 0-.6 1.6-1.6 1.6-10.4 1.4-22.1-.8-31.9 0-1 0-.5-.3-.4-.8-.1-.4-.8-.3-.8-.8-1-.1-1.3.6-1.2 1.6-.6-.3-1.2-2.4-2-1.2-.6-1.2-1.6-3.5-1.2-4.4 14.1-.8 29.1-.2 43.9 0zM481 97.7c.6.6.6 1.7.8 2.8h-3.6c.7-1.1 2.3-1.4 2.8-2.8zM481.4 90.6c.9.8.1 3.3.4 4.8-1.1-1.7-1.5-4-4.4-4 .9-1.7 3.9 1.4 4-.8zM474.2 87.8c.3-.1.4.2.4.4-.2 1.6 2-.4 1.6-.4.4 0 2 2 2 0 .8.2 1 .9 2 .8-.3.3-.4.8-.4 1.2-1.9-.1-3.7 0-5.6.4-.7-.7.4-1 0-2.4zM446.8 88.2c.1-.5 1-.3 1.6-.4v2c-2.2-.2-4.4.3-6.4 1.2-1.7-1.5 1-1.2 1.6-1.6.4-.3-.3-2.2.4-.4.7 1.8.5-.1 1.2-.4-.5.2 3.2.8 1.6-.4zM465.1 69.5c4.4-2.2 3.9 6.1 3.2 8-2.5-1.4-1.7-5.9-3.2-8z"/><path class="st7" d="M389.8 67.9c-.5 2.8-3.9 6.2-4.8 10 2.8-1.5 3.2-5.5 5.6-7.6-.4-1.2 1.2-2.4.4-2.8 3.4-2.9 7.2-5.5 11.2-7.6-1.4 3.1-4 5.1-4.8 8.8 6-2.6 5-12.2 12.3-13.5 2.3.7 1.7 4.1 4 4.8 2.4-.3.5-4.8 1.6-6.4 6.4-4.6 14.9-2.5 23.1-2.4 6.1.1 12.3-.9 18.7-.8.1 1.6 1.5 2 1.2 4-1.2-1.4-3.9.3-6 .4 1.1 1.5 4.5.6 6 0 1.2 1.7-5.4.6-6.8 1.6-1.6-.7.7-.7.4-1.2-1.6-3.1-6.8 1.7-7.2 3.6 3 .4 2.4-2.9 5.2-2.8-.7 1.1-4.2 2.6-4.4 5.2-.1 2.4 1.2 14.4 2.4 16.7 1.2 2.3 5.9 5 8.8 4.4-.3-1.8-3.1-2.2-4.8-3.2 3.3-1.2 9.6.5 12.3-1.2 2.7 1.4 5 3.2 7.6 4.8-5.6 1.3-13.8.5-19.9 1.2-3.9.4-7.8 0-10.4 1.2.7 2 3.4.9 4.8.8 8.4-.6 25.5-2.1 33.9.4-1.5.9-4.6.1-6.8.4-.9.8-1.1 2.4-1.2 4 .7 1.3 1.3 1 2.8.8-.8 1.2-2.5 1.7-2.8 3.6-.4 2.4 1.2 4 1.6 5.2H471c-.2-1.4-.9-2.4-1.2-4.4-.4-2.8 1-6.7-1.2-8-2.8 1.9-.1 9.2-1.6 12.3-1.9.4-1.1-2.1-1.2-3.2-.2-3.6.5-8.3-1.6-9.6-3.4 2.8 1.5 10.3-1.6 12.7-2.3-2.8.4-10.7-2.4-13.1-2.2 2.7.5 10.4-1.6 13.1-1.6-3.3-.1-9.7-2.4-12.3-1.9 1.3-1.3 4.4-1.2 6.8.1 1.9 1.6 5-.8 5.6-1-3.5.3-9.4-1.6-11.9-3.6.8-.2 6.7-1.2 10.4-.8-.2-.8.6-.8 1.2-1.3.5-2.6.7-4 .8 2.1-1.2 4-3.5 2.8-6.8-.9-1.4-3.1-1.4-4.8-2 1.2-.7 2.9-.8 4.8-.8.7-.8.3-2.6.4-4-2.2-1.5-5.8.2-8.8.4-1.2.7-1.4 2.4-1.2 4.4.9.8 3 .3 4 0-3 1.1-5.9 4.9-2.4 8.8h-2.8c.1-4.6.6-8.6.4-13.5-4.4-2.6-10.2-3.9-15.5-5.6-1-.2.1 3.5-.8 2-1.5.7-.2-.6-.4-1.2-.3-.9-1.4-3.3-.8-6-.6-1.5-1.7-2.8-3.2-3.6-.8-3.3.1-8.4-3.2-9.2 0 2.3 1.7 6.2 2 9.6-1.6-2.7-2.2-6.3-3.2-9.6-3.1.3-5.3 2.2-7.6 3.6-2.2 1.4-4.7 2.7-6.4 4.8.6 1.1.4 3 1.2 4-.3 6.9 1.5 13.8 2.8 20.3 5.8-2 10.8-4.9 16.3-7.2 1.1-.1 2.7.3 2.8-.8.2-2.1-2-1.7-3.2-2.4-1.4 1.1-2.6 2.4-5.2 2.4-.2-4.4-3.5-14.7 3.6-13.9.1 2.9.6 5.8.8 9.6 2.6.8 4.1 1.5 6 1.2 1.3.4 2.5.9 3.6 1.2 1.2.4 2.8.3 3.6.8 4.2 2.4 3.5 7.4 3.6 13.9-2.9 1.2-6.4 1.8-8 4.4-1.8-.6-2.4-2.1-4-2.4-8.6-1.8-13.5 6.8-13.9 14.3-4.3-.8-3.6-6.4-5.6-9.6-.2-2.5.3-5.6-1.6-6.4-1.5 6.3 4.2 14.9-.4 18.7-2.2-2.5-3.4-6.1-7.6-6-4 .1-7.5 3.9-8.8 7.6-.5 1.4.7 4.1-2 4 .3-8.6 2.6-13.6 7.6-17.5.4-.3.8-1.3 1.2-1.6 2.7-1.8 6.3-2.4 8.8-4.8-.2-.9-1.6-.5-2-1.2-7 3.7-12.7 8.8-19.1 13.1-1.2-1.1.2-2.9 0-4.4 6.1-3.7 12.1-7.5 17.5-11.9.8.2.1 2 1.6 1.6.4-1.3 1-2.4 2.8-2.4-1-7.8-2.3-15.2-3.2-23.1-4.2-3.2-7.5 1.8-11.2 4.4-3.1 2.2-5.7 3.7-8 5.2.2 1-.9 1.5-1.2 2.8-.3 1.5.8 3.8-.4 4 .4-3.4-1-6.1-.8-8.8.4-4.7 4.3-6.9 7.6-9.2-1.8 2.5-3.2 5.1-4.4 8 3.4-1.1 4.3-5.6 5.6-9.2 1.4-1 2.8-1.5 3.5-2.8zM402.2 133.6c.6.7-1.4 2.7-.4 4-1.1.5-2.3 1-1.6 2.4-1.8.2-1.9 2-4.4 1.6.7-1.4 2-2.3 3.6-2.4-.7-1.9.4-2.6 2-3.2.5-1.3-1.3-.3-.8-1.6.9.1 1.5-.1 1.6-.8zM429.2 124.8c-2.1 1.4.1 4-2.4 4.4-.1.5.3 1.1.8 1.2-2.4.8-1.1 1.5-3.6 1.6 1.4 2.1-1.7.3-1.6 2-1.2.2-2.8-1.1-3.2-.4-.7-1.5 3.4-.5 4.8-1.6.2-1-.7-.9-.4-2 .6.4 1.3.5 2 .4.2-1.3-1.2-.9-.8-2.4.7.1 1.4 0 2-.4-.1-.5-.7-.9-1.2-.8.3-.8 1.1-1.1 2-1.2.2-1.3-1.8-.6-1.2-2.4 1-.3 1.8 1.6 2.4.4 1.3-.1-1 1.2.4 1.2z"/><path class="st7" d="M442.8 95.7c-.5-1 1.1-2.4 2-2.4 2.8 0 4.4 6.5-.8 5.6 0-.8 1.1-.5.8-1.6-.1-1-1.3-.1-1.6 0-.7 1.5 1.2-2.9-.4-1.6zM475.4 95c-.9-.8.9-2.2 2-2.4.3 1.3 1.5 1.7 2 2.8-.3 1.4-1.2 2.3-1.6 3.6-.7.1-1.4 0-2-.4.2-1.1 1.7-1 1.6-2.4-2.1.3-.6-1.6-2-1.2zM379.1 90.2c1.5 5.1 1.3 12 2.8 17.1-1.1 0-1.1-1.8-1.2-2.4-.7-4.1-1.1-9.5-1.6-14.7zM473.2 119.9c.6.7-1.4 2.7-.4 4-1.1.5-2.3 1-1.6 2.4-1.8.2-2 2-4.4 1.6.7-1.4 2-2.3 3.6-2.4-.7-1.9.4-2.6 2-3.2.5-1.3-1.3-.3-.8-1.6.9.1 1.5-.1 1.6-.8z"/><path class="st7" d="M474.8 119.4c-2.1 1.4.1 4-2.4 4.4-.1.5.3 1.1.8 1.2-2.4.8-1.1 1.5-3.6 1.6 1.5 2.1-1.7.3-1.6 2-1.2.2-2.8-1.1-3.2-.4-.7-1.5 3.4-.5 4.8-1.6.2-1-.7-.9-.4-2 .6.4 1.3.5 2 .4.2-1.3-1.2-.9-.8-2.4.7.1 1.4 0 2-.4-.1-.5-.7-.9-1.2-.8.3-.8 1.1-1.1 2-1.2.2-1.3-1.8-.6-1.2-2.4 1-.3 1.8 1.6 2.4.4 1.2-.1-1 1.1.4 1.2zM439.7 125.9c.6.7-1.4 2.7-.4 4-1.1.5-2.3 1-1.6 2.4-1.8.2-2 2-4.4 1.6.7-1.4 2-2.3 3.6-2.4-.7-1.9.4-2.6 2-3.2.5-1.3-1.3-.3-.8-1.6.9.1 1.5-.1 1.6-.8z"/><path class="st6" d="M391.8 113.7c1.2-2.5 1.9-5.6 4.8-6.4-1.8 1.9-1.8 5.7-4.8 6.4zM399 107.3c-1.6 2-2 5.2-4.8 6 .9-2.7 2.3-4.9 4.8-6zM416.5 99.3c-.7 1.9-2 3.4-3.2 5.2-.9 1.4-1.8 4.1-4 4.4.4-2.1 2.1-3.5 3.2-5.2 1-1.6 1.5-4.2 4-4.4zM414.5 96.5c.3-.1.7.1.8.4-.7 2-2.2 4.1-3.6 6-1.2 1.6-2.6 4.1-4.4 4 2-3.9 5.1-6.7 7.2-10.4zM410.9 95.7c-1.5.2-2.9.6-3.6 1.6 1 .9 2.3-1.1 4-.8-.1 2.4-2.2 2.8-4.8 2.8-.7-1.1-.6-1.2-.4-2.8 1.3-.4 4.6-3.1 4.8-.8zM417.7 92.2h1.2c.8 2.8 1.8 7.4 1.6 10-2.3-2-1.6-6.3-2.8-10zM432.8 90.6c-.2 2.8-2.9 7.4-6.4 8.4 2-3 4.1-5.8 6.4-8.4zM426.8 89c.3-.1.7 0 .8.4-1.3 2.3-1.5 5.6-4.8 6 1.2-2.3 2.5-4.4 4-6.4z"/><path class="st6" d="M431.2 88.2c-1 1.7-2.1 3.5-3.2 5.2-1 1.5-1.9 3.7-4 4 1.3-3 3.2-5.7 5.6-8 .6-.5.3-1.9 1.6-1.2zM406.9 59.5c-1.6 3.4-3 7.1-6 9.2-.4-1.6 1.4-3.1 2.4-4.8.9-1.6 1.3-4.5 3.6-4.4zM420.5 57.5c5.1-1 12.4.2 17.5-.8-3.7-1-9.5 0-14.3-.4-1.3-.1-3.3.3-3.6-1.2 8.7.8 19.7-2.2 23.1 3.2-.1.5-.7.3-1.2.4.4.7 1.5.7 1.6 1.6.8 3.9 1.3 7.9 1.6 11.9.2 3.7 1.4 5.9-.4 8-6.2 1.1-13.4 1.2-20.7 1.2-2.5-7.7-3.7-15.8-3.6-23.9zM436 106.5c-.6 1.6-1.3 4.1-3.2 3.2.2-1.9 1-3.3 3.2-3.2zM469.1 105.3c2.2-1.2 4.8.5 7.6 0 0 3-5.5.7-7.6.8.4-.6 2.1-.7 0-.8zM468.7 105.7c-2 1.4-5.3.8-8.4.8-3.7.1-7.4 0-11.1-.4-.2-.4-.5-.7 0-.8-.1-.3.1-.7.4-.8 3 .3 7.8.4 12.7.4 2.1 0 5-.6 6.4.8z"/><path class="st6" d="M434.8 104.1c.1 1.3-1.4 4.1-4 4 .7-2 1.8-3.6 4-4z"/><path class="st5" d="M70.9 52.4c2-.2 3.2.4 3.7 1.6.2.6.3 1.9-.1 3.8-.5 4.3-.8 8.7-.9 13-.1 6.2.2 12.4.8 18.6.4 4.1.9 8.1 1.2 9.5.3 1.2.3 2.5.1 3.7-.5 1.2-1.2 2.2-2 3.2s-1.8 1.9-3 2.4c-1.5.6-4.1-.9-7.8-4.5-4-4-7.6-8.4-10.8-13 .7 2.8 1.7 5.9 2.8 9.3 2.2 6.7 3.4 10.1 3.1 11-.6 1.2-1.4 2.4-2.4 3.3-.9 1-2 1.9-3.2 2.5-1.7.7-4.9-1.4-9.7-6.2-4.9-5.1-9.5-10.6-13.7-16.4-4.3-6.1-7.1-10.5-8.3-13.5-.6-1.5-.3-3.3 1-5.4s2.5-3.5 3.7-3.9c1.1-.5 2.7 0 3.6 1.9 1.2 2.4 3.9 7 8.3 13.7 4 6.2 8.4 12 13.2 17.6-.8-2-1.7-4.7-2.8-7.8-1.1-3.2-2.6-8-4.4-14.3-1.8-6.4-2.8-10.7-2.8-12.9 0-2.4 2.2-5.2 6.1-6.8 1.1-.4 2.2.1 2.6 1.2.4 1 1.4 3.1 3 6.2s4 7.4 7.2 12.7c2.8 4.6 5.9 9 9.4 13-7-26.3-8.3-40.3-4.1-42.1 2.2-.7 4.2-1.2 6.2-1.4zM112.2 81c.4 1.2.2 2.8-.6 4.9-.7 2.1-2.4 3.6-4.5 4.1-4.9 1.5-8.2-1.6-9.8-7.3-.3-1-.6-2.7-1-5.1-.2-1.7-.5-3.4-.9-5.1-.5-1.7-1.2-2.4-2.1-2.2-2.6.8-2.5 5.7.1 14.8.2.5.8 2.6 1.3 4.2.6 2-.4 4.4-5.2 5.8-1.2.4-2-1.3-3.1-5-1.3-4.2-2.8-11-4.7-20.2S79 55.6 79.1 54.5c.2-1.2.8-2.4 1.6-3.3.7-1 1.6-1.7 2.7-2.1 1.2-.2 2.3.5 2.6 1.7.1.3.3 1.4.6 3.5l1.3 7.6c.5 3.1 1 5.8 1.4 8.1 1.1-3.2 2.9-5.2 5.4-6 3.6-1.1 6 .8 7.4 5.6.3.9.6 2.4 1 4.5s.8 3.8 1.2 5.1c1.1 3.6 2.3 5.1 3.6 4.7.7-.2 1.1-.9 1.3-2.2.2-1.2.6-2 1.2-2.1.8-.4 1.5.3 1.8 1.4z"/><path class="st5" d="M113.1 84.6c-2.7-1.9-4.5-4.8-5.4-8.8-.9-3.8-.6-7.7 1-11.3 1.6-3.4 3.9-5.4 7.1-6.1 4.2-.9 7.4 1.7 8.2 5.7.6 2.6 0 5.4-1.5 7.6-1.5 2.3-3.5 4.2-5.8 5.6 1.6 2.8 3.8 3.9 6.4 3.4 2.1-.5 3.6-2.2 4.5-5.2 1-3.4 1.5-7 1.4-10.6-2.7.1-4.5-1.7-5.1-4.3-.4-2 0-4 1.1-5.7 1.1-2 2.3-3.1 3.5-3.4 1.8-.4 2.8.8 3.4 3.6.3 1.3.4 2.6.6 3.9 1.9-1 3.5-2.4 4.7-4.1 1.5-1.9 2.4-2.9 2.9-3 1.4-.3 3.3 2 3.9 4.6.2.9-.6 3.1-1.4 5.3-1 2.9-1.2 6-.6 9 .8 3.9 2.8 4.6 4.5 4.3 2.6-.6 1.7-3.9 3.4-4.2.9-.2 1.6.6 1.8 1.5.3 1.3-.1 2.9-1.2 5-1.1 2.1-3.2 3.5-5.5 3.9-5.1 1.1-8.9-1.1-9.7-5.1-.5-2.6-.4-5.2.2-7.8.5-2.2 1.3-4.4 2.3-6.4-1.6.8-3.3 1.5-5.1 2.1.1 4.6-.5 9.2-1.9 13.6-1.5 4.4-4.4 7.7-8.6 8.6-3.2.8-6.5.1-9.1-1.7zm1.8-12c.1.4.2.7.3 1.1 2.9-2.4 4-4.8 3.5-7.2-.3-1.6-1.3-2.8-2.5-2.5-1.9.4-2.2 4.2-1.3 8.6z"/><path class="st5" d="M167.1 75.8c-1.9 1.8-4.3 3-6.9 3.4-3.1.5-6.2-.3-8.6-2.3-2.5-2.1-4-5.1-4.6-9.1-.7-3.8-.1-7.7 1.7-11.2 1.8-3.3 4.3-5.2 7.4-5.7 4.3-.6 7.2 2.2 7.9 6.2.4 2.7-.3 5.4-2 7.5-1.7 2.2-3.8 3.9-6.2 5.2 1.5 2.9 3.6 4.2 6.2 3.8 3.4-.5 4.2-2.9 5-4 .9-1.4 2.4-.9 2.6.9.3 1.6-.5 3.4-2.5 5.3zm-12.7-10.9c0 .4.1.7.2 1.1 3-2.2 4.3-4.5 4-6.9-.2-1.6-1.1-2.9-2.4-2.7-1.9.3-2.5 4.1-1.8 8.5zM189 50.4c-.2 5.8-.2 9.7 0 11.7.4 5.3 1.5 7.9 3.3 7.7 2.5-.2 2.6-3.6 4-3.8.8-.1 1.5.8 1.6 1.9.1 1.2-.5 2.7-1.9 4.7-1.2 1.9-3.3 3.1-5.6 3.2-5.5.5-8.4-3.4-8.9-9.1-.3-3.2-.3-8.1-.2-15-2.2.1-3.3-.4-3.4-1.5 0-.6 1.1-1.5 3.4-2.7.1-5.3.3-8.3.6-8.9.5-1.1 1.3-2.2 2.2-2.9.8-.8 1.9-1.4 3.1-1.6 1.2-.1 2.2.8 2.3 2v.1c0 .6 0 3.2-.3 7.8l2.2-1.1c.8-.5 1.6-.8 2.5-1 .5 0 .9.3.9 1.2s-.1 1.8-.3 2.7c-.1.7-.4 1.4-.8 2.1-.7 1.1-2.3 1.9-4.7 2.5z"/><path class="st5" d="M223 67c.1 1.2-.5 2.8-1.8 4.6-1.2 1.8-3.2 2.9-5.4 2.9-5.1.2-7.5-3.6-7.8-9.5 0-1 .1-2.8.3-5.2.2-1.7.3-3.4.3-5.1-.1-1.8-.6-2.6-1.5-2.6-2.7.1-3.9 4.9-3.5 14.4 0 .5.2 2.7.2 4.4.1 2.1-1.5 4.2-6.4 4.4-1.2.1-1.6-1.7-1.8-5.7-.2-4.4 0-11.3.3-20.7.4-9.4.8-14.6 1.3-15.6.5-1.1 1.3-2.1 2.4-2.8.9-.8 2-1.3 3.1-1.4 1.2.1 2.1 1.1 2.1 2.3 0 .3-.1 1.5-.3 3.5l-.6 7.6c-.3 3.1-.5 5.9-.6 8.2 1.8-2.8 4.1-4.4 6.7-4.5 3.7-.2 5.6 2.2 5.8 7.3 0 .9 0 2.5-.2 4.6-.1 2.1-.1 3.8-.1 5.2.2 3.7.9 5.5 2.3 5.5.7 0 1.3-.6 1.8-1.8.5-1.1 1.1-1.8 1.6-1.8 1.2-.2 1.8.7 1.8 1.8z"/><path class="st5" d="M238.5 71.9c-2.1 1.6-4.7 2.4-7.3 2.4-3.1.1-6.1-1.2-8.2-3.5-2.1-2.4-3.2-5.6-3.3-9.7-.2-3.9 1-7.7 3.2-10.8 2.3-3 5-4.5 8.1-4.6 4.3 0 6.9 3.2 6.9 7.2 0 2.7-1.1 5.3-3 7.2s-4.3 3.4-6.9 4.3c1 3.1 2.9 4.6 5.6 4.6 3.4 0 4.5-2.3 5.5-3.3 1.1-1.2 2.5-.6 2.5 1.2s-.9 3.4-3.1 5zm-11.1-12.5c0 .4 0 .7.1 1.1 3.3-1.7 4.9-3.9 4.9-6.3 0-1.6-.7-3-2-3-1.9.1-3.1 3.8-3 8.2zM289.4 34.5c-2.2.4-4.4.7-6.6.8-3.1.3-5.4.5-6.9.7-.2 2.2-1.6 12.4-2.9 23.4-.7 6.4-1.1 12.1-1.3 17.1-.1 2.3-2.8 4.7-9.1 4.4-1.4-.1-1.7-1.1-1.6-3.7 0-1 .2-2.4.4-4.2l.9-7c.4-2.9.7-5.7 1-8.4.2-2.5.5-5.2.6-8.1.5-5.7.7-9.2 1-11.4-2.8.6-5.4 1.4-7.7 2.1-4.6 1.5-6.1 2.2-7.8 2.1-.4 0-.6-.4-.5-1.1.1-1.2.5-2.4 1-3.5.4-1.1 1-2.2 1.8-3 2.2-2 9.5-3.5 19.1-3.9.9-.4 1.9-.7 3-.7.5 0 .9.2 1.3.4 4.7 0 8.3 0 10.9.1 3.8.2 5.7 1 5.6 2.4-.2.6-.9 1.1-2.2 1.5z"/><path class="st5" d="M297.1 71.2c2.9.2 2.8-3.2 4.5-3.1.9.1 1.3 1.1 1.3 1.9-.1 1.7-2.8 7.2-9.4 6.6-4.7-.4-7.8-3.3-7.5-8 .3-2.6 1.1-5 2.5-7.2 1.1-2 2.5-3.8 4-5.4-1.8.3-3.6.5-5.4.6-3.3 12.1-6.9 18-11 17.6-1.4-.1-2.2-.9-2.1-1.8-.1-1.3 2.5-1.9 4-3.5 2.2-2.2 4-6.4 5.4-12.6-2.5-.6-4.2-3-3.8-5.6.2-2 1.2-3.9 2.7-5.2 1.6-1.6 3.1-2.4 4.6-2.2 1.6.1 2.2 1.5 2 4.1 0 .5-.3 1.9-.7 4.2 4.4-.6 8.2-4.9 9.4-4.6.8.1 1.4.7 1.8 1.9.5 1 .7 2.1.6 3.2 0 2.1-5.9 8.2-6.1 14.1-.2 3.2.9 4.8 3.2 5z"/><path class="st5" d="M326.9 73.2c-.2 1.3-1 2.7-2.5 4.4-1.5 1.6-3.6 2.3-5.8 2-2.9-.4-4.7-1.8-5.6-4.3-1.5 2.1-4.1 3.1-6.6 2.7-5.1-.6-7-4.9-6.3-10.7.3-2.5.8-5.4 1.5-8.5s1.2-5.1 1.7-5.9c.7-1 1.7-1.9 2.8-2.4 1-.6 2.1-.9 3.3-.9 1.2.2 2 1.3 1.8 2.5v.1c0 .3-.5 1.8-1.3 4.6-.7 2.5-1.3 5.1-1.6 7.6-.7 5.3-.2 8 1.4 8.2 1.5.2 2.5-1.6 2.7-3.8.3-2.5.8-5.4 1.5-8.4.7-3.1 1.4-5.1 1.9-5.9.7-1.1 1.7-1.9 2.8-2.4 1-.6 2.1-.9 3.3-.9 1.2.2 1.9 1.4 1.7 2.5 0 .3-.5 1.8-1.2 4.6-.7 2.5-1.3 5.1-1.6 7.6-.7 5.3-.3 8 .9 8.1 1.7.2 2.6-3.1 4-2.9.9.2 1.3 1.2 1.2 2.1z"/><path class="st5" d="M344.4 62.2c-.7 3.7-3.1 6.4-6.1 5.9-1.7-.3-2.3-1.4-2.1-2.8.2-.8.6-1.5 1-2.1.5-.6.9-1.3 1.1-2 .2-1-.1-1.5-1-1.7-1.1-.2-2.1.6-3 2.3-.9 1.9-1.5 3.8-1.9 5.9-1.1 6 .9 9.1 4.5 9.8 3.4.6 4.7-1.5 5.9-2.3 1.3-1 2.5 0 2.2 1.6-.3 1.7-1.6 3.1-4.1 4.4-2.4 1.2-5.1 1.6-7.7 1.1-3-.5-5.6-2.2-7.2-4.8-1.6-2.6-2.1-6-1.4-10.1.6-3.9 2.4-7.5 5.2-10.2 2.7-2.6 5.8-3.6 9.1-3 4.6.7 6.2 4.1 5.5 8z"/><path class="st5" d="M369.8 83.6c-.3 1.2-1.3 2.5-3 3.9s-3.9 1.8-6 1.2c-2.1-.6-3.8-2.4-4.7-4.2-.5-1.1-.9-2.3-1.1-3.5-.3-1.5-.5-2.6-.6-3.6l-.3-3.7c-.8 1.1-1.3 1.8-1.7 2.4-1.1 1.7-1.9 3.5-2.4 5.5-.5 2.1-2.6 3.6-7.4 2.3-1.2-.3-1-2.1 0-5.9s3-10.2 6-19 5.1-14 6.2-15.3c.9-.9 2-1.6 3.3-1.9 1.1-.5 2.4-.6 3.6-.4 1.1.4 1.7 1.7 1.3 2.8 0 .2-.7 1.9-2.1 5s-2.8 6.8-4.4 10.8c-1.2 3.1-2.3 6.3-3.3 9.6 2.1-2.7 4.6-5.2 7.3-7.3 2.7-2 4.7-2.8 6-2.4 1 .3 1.9 1.2 2.7 2.8.9 1.6 1.2 2.7 1 3.4-.1.7-.6 1.4-1.3 1.7-1.1.3-2.1.4-3.2.4-1.4 0-2.8.3-4.1.7-.4 3.4-.2 6.8.4 10.1.6 2.9 1.6 4.5 2.8 4.8.6.2 1.4-.2 2.3-1.2.9-.9 1.6-1.4 2.1-1.2.5.1.9 1.1.6 2.2z"/></svg>