<svg id="Layer_1" data-name="Layer 1" xmlns="http://www.w3.org/2000/svg" viewBox="0 0 509.70001 172.5"><defs><style>.cls-1{fill:#ebbb54}.cls-2{fill:#51b5e6}.cls-3{fill:#d26527}.cls-4{fill:#d07828}.cls-5{fill:#cf7928}.cls-6{fill:#d35128}.cls-7{fill:#8f3d2e}.cls-8{fill:#018cad}.cls-9{fill:#d3ecec}.cls-10{fill:#c5e2e7}</style></defs><title>WTT-Logo-dusk</title><path class="cls-1" d="M431.966 16.038a71.108 71.108 0 0 0-68.627 52.53h137.253a71.107 71.107 0 0 0-68.626-52.53zM500.038 107.643H363.894a70.397 70.397 0 0 0 2.953 8.007h130.24a70.35 70.35 0 0 0 2.95-8.007zM501.22 71.101H362.714a70.956 70.956 0 0 0-1.748 12.495h142.002A71.04 71.04 0 0 0 501.22 71.1zM491.269 126.323H372.663q1.83 2.762 3.906 5.338h110.794q2.073-2.575 3.906-5.338zM503.032 88.1H360.9a71.466 71.466 0 0 0 1.096 11.538h139.943a71.558 71.558 0 0 0 1.094-11.538zM418.975 157.012a70.59 70.59 0 0 0 25.983 0h-25.983z"/><path class="cls-2" d="M487.363 131.66H376.569a71.032 71.032 0 0 0 42.406 25.352h25.983a71.028 71.028 0 0 0 42.405-25.351zM497.086 115.65H366.847a70.858 70.858 0 0 0 5.816 10.673h118.606a70.948 70.948 0 0 0 5.817-10.673zM501.938 99.638H361.995a70.847 70.847 0 0 0 1.899 8.005h136.144a70.635 70.635 0 0 0 1.9-8.005zM503.057 87.129q0-1.776-.09-3.533H360.965a73.152 73.152 0 0 0-.09 3.533c0 .326.02.646.024.971h142.133c.005-.325.025-.645.025-.971zM500.592 68.569H363.34a68.132 68.132 0 0 0-.626 2.532H501.22a69.93 69.93 0 0 0-.629-2.532z"/><path class="cls-1" d="M431.669 15.742a71.106 71.106 0 0 0-68.626 52.53h137.253a71.107 71.107 0 0 0-68.627-52.53zM499.74 107.347H363.596a70.689 70.689 0 0 0 2.953 8.006h130.24a70.5 70.5 0 0 0 2.951-8.006zM500.923 70.804H362.416a70.965 70.965 0 0 0-1.749 12.496H502.67a70.96 70.96 0 0 0-1.747-12.496zM490.972 126.027H372.366q1.83 2.763 3.906 5.337h110.794q2.07-2.574 3.906-5.337zM502.736 87.803H360.602a71.53 71.53 0 0 0 1.096 11.538h139.941a71.334 71.334 0 0 0 1.097-11.537zM418.677 156.716a70.59 70.59 0 0 0 25.984 0h-25.984z"/><path class="cls-3" d="M487.066 131.364H376.272a71.03 71.03 0 0 0 42.405 25.352h25.984a71.027 71.027 0 0 0 42.405-25.352zM496.789 115.353h-130.24a71.007 71.007 0 0 0 5.817 10.674h118.606a70.916 70.916 0 0 0 5.817-10.674zM501.64 99.341H361.697a70.668 70.668 0 0 0 1.898 8.006H499.74a70.477 70.477 0 0 0 1.9-8.006zM502.76 86.832c0-1.184-.032-2.36-.09-3.532H360.667a72.023 72.023 0 0 0-.089 3.532c0 .327.02.647.024.972h142.134c.005-.325.024-.645.024-.972zM500.296 68.272H363.043a67.029 67.029 0 0 0-.627 2.532h138.507a68.625 68.625 0 0 0-.627-2.532z"/><path class="cls-4" d="M430.531 161.238a74.3 74.3 0 1 1 74.4-74.3 74.345 74.345 0 0 1-74.4 74.3zm0-141.3a67 67 0 1 0 67 67 67.068 67.068 0 0 0-67-67z"/><path class="cls-5" d="M371.031 122.238c0 3.3-.5 6.1-2 6.1a2.836 2.836 0 0 1-2-1.2 31.675 31.675 0 0 0 4-4.9z"/><path class="cls-5" d="M369.031 128.338l.5 2c-22.1 5.4-46.5-1.1-71.3 1.2-8.7.8-97.9 18.2-96.5 23.8-2.1-8.4 7.7-13.7 7.4-20.5-.2-3.9-11.7-21.3-12.2-21 3.6-9.9 27.1-11.5 35.9-13.1a326.256 326.256 0 0 1 83.7-4.8c1.5.1 4.3.3 8 .7 1 .2 2.1.3 3.1.5 10.4 1.7 35.4 3.6 41.6 14.7.9 1.6 1.7 6.5 1.7 10.5a31.674 31.674 0 0 1-4 4.9 3.886 3.886 0 0 0 2.1 1.1z"/><path class="cls-5" d="M324.531 96.538c18.5 1.8 57.7 7.7 46.5 25.6 0-4-.8-8.8-1.7-10.5-6.2-11.1-31.2-13-41.6-14.7a16.475 16.475 0 0 1-3.2-.4zM72.531 129.038c1.4-1.6 2.8-2.7 4.3-2.5-1.5.8-3 1.7-4.3 2.5zM72.531 129.038c-4.6 5.5-8.5 18.2-14.3 16.5-.4-5.4 5.6-11.1 14.3-16.5z"/><path class="cls-5" d="M64.531 167.938a25.39 25.39 0 0 1-6.1-.7c-23-5.4-42-40.7-47.6-57-8.9-25.6-7.8-46.7 3.3-63 24.7-36.4 93.7-39.5 139.3-41.5 47.1-2.1 92.4-1.4 134.7 2.2 5.1.4 121.2 10.4 141.7 39.9 20.7 24.9-17 57.8-32.2 72a59.907 59.907 0 0 1-27.3 14.8c-13.2 3.3-26.7 2.4-41 1.6-10.1-.6-20.6-1.3-30.9-.3a4.373 4.373 0 0 1-.9-8.7c11-1 21.8-.4 32.3.2 13.6.8 26.4 1.6 38.4-1.3a51.654 51.654 0 0 0 23.4-12.7c7.6-7.1 19-21.3 26.2-35.9 5.8-11.7 10.8-17.9 2.6-27.8-14.8-18-78-30.5-112-32-8.4-.4-15.6-.7-20.9-1.1a1067.51 1067.51 0 0 0-133.6-2.2c-43.9 2-110.3 4.9-132.6 37.7-9.4 13.8-10.1 32.4-2.3 55.2 5.5 15.8 23.2 47.1 41.4 51.4 6.4 1.5 12.4-.5 18.3-6.3 2.6-2.6 4.1-11.2 2-17.1-1.5-4.2-3.6-4.4-4.4-4.4a4.314 4.314 0 0 1-3.9-4.8 4.383 4.383 0 0 1 4.8-3.9c5.4.5 9.6 4.2 11.7 10.2 3.1 8.8 1.2 21.1-4.1 26.3-6.3 6.1-13.1 9.2-20.3 9.2z"/><path class="cls-5" d="M72.531 133.438a4.192 4.192 0 0 1-2.8-1 4.31 4.31 0 0 1-.6-6.1c2.5-3 5.2-4.3 8.1-4.1a4.314 4.314 0 0 1 3.9 4.8 4.258 4.258 0 0 1-4.3 3.9 3.61 3.61 0 0 0-.9.9 4.748 4.748 0 0 1-3.4 1.6z"/><path class="cls-5" d="M59.331 150.138a9.693 9.693 0 0 1-2.3-.3 4.367 4.367 0 0 1-3.2-3.9c-.4-6.8 4.9-13.5 16.3-20.5a4.42 4.42 0 0 1 5.6.8 4.517 4.517 0 0 1 .1 5.7 50.687 50.687 0 0 0-3.8 6.1c-3.1 5.4-6.8 12.1-12.7 12.1z"/><path class="cls-5" d="M72.531 133.438a4.152 4.152 0 0 1-3.7-2.1 4.363 4.363 0 0 1 1.4-6 48.257 48.257 0 0 1 4.5-2.6 4.342 4.342 0 0 1 4.2 7.6c-1.4.8-2.8 1.6-4.1 2.4a4.35 4.35 0 0 1-2.3.7z"/><path class="cls-5" d="M76.831 130.938a4.4 4.4 0 1 1 0-8.8 4.44 4.44 0 0 1 4.4 4.4 4.507 4.507 0 0 1-4.4 4.4z"/><path class="cls-5" d="M369.031 132.738h-.6a7.67 7.67 0 0 1-4.8-2.8 4.303 4.303 0 0 1 .4-5.8 20.018 20.018 0 0 0 2.7-3.1 26.48 26.48 0 0 0-1.2-7.1c-4.3-7.7-23.3-10.3-33.4-11.7-1.9-.3-3.6-.5-5.1-.7-1-.2-1.9-.3-2.9-.5-3.5-.3-6.2-.5-7.7-.7h-.1a322.18 322.18 0 0 0-82.6 4.7c-1.6.3-3.4.6-5.6.9-8.1 1.2-24.8 3.7-27 9.5a4.366 4.366 0 0 1-8.2-3c3.9-10.6 21.9-13.3 33.9-15.1 2.1-.3 3.9-.6 5.3-.8 3.6-.7 7.1-1.3 10.7-1.8-6.4.1-12.8.3-19.1.8-25 1.6-57.7 4.6-88.3 13.1-9.3 2.6-37.7 11.6-56.4 21.9a4.342 4.342 0 1 1-4.2-7.6c19.4-10.7 48.6-20 58.3-22.7 31.4-8.7 64.6-11.7 90.1-13.4 31.9-2.1 65.3-.2 102.1 5.6 29.2 2.9 46.4 9.1 51 18.4 1.4 2.8 2.3 7.2-.7 12.8-.1 3.6-.9 6.1-2.4 7.6a7.962 7.962 0 0 1-4.2 1.5z"/><path class="cls-5" d="M201.731 159.638a4.273 4.273 0 0 1-4.2-3.3c-1.6-6.5 1.7-11.5 4.4-15.4 1.5-2.2 2.9-4.3 2.9-5.8-.2-.8-1.4-3.7-4.9-9.4a95.695 95.695 0 0 0-5.6-8.4 4.56 4.56 0 0 1-1.7-3.5 4.218 4.218 0 0 1 1.8-3.5c.1 0 .1-.1.2-.1a4.815 4.815 0 0 1 2.4-.7 4.333 4.333 0 0 1 1.9.4c.9.4 2.1 1 8.2 10.9 6.2 10.2 6.4 12.7 6.4 13.8.2 4.5-2.2 8-4.3 11.2-.2.3-.5.7-.7 1 6.8-2.3 18.6-5.5 39.2-10 22.9-5 45.9-9.3 50.2-9.7a4.373 4.373 0 0 1 .9 8.7c-3.9.4-25.5 4.4-47.4 9.1-35.1 7.6-43.7 11.3-45.6 12.3a4.415 4.415 0 0 1-2.8 2.2 3.994 3.994 0 0 1-1.3.2z"/><path class="cls-6" d="M330.131 97.438c-.6-.1-1.4-.2-2.5-.4-34.4-5.7-69.5-8.4-104.3-6.1-29.8 1.9-60.4 5.2-89.2 13.2-12.5 3.5-73.3 20.2-75.2 42.7 7.5 2.1 6.8-11.1 13.5-10.4 11.5 1.1 14.6 11.6 8.3 17.7-29.1 28.4-58.8-25.3-65.8-45.5-31.4-90.7 75-95.7 138.7-98.5a1036.249 1036.249 0 0 1 134.2 2.2c28.5 2.4 116.7 13.5 136.4 37.2 17.8 21.4-14 52.6-29.5 67.1-27.8 25.9-61.9 11.7-96.6 15-8.7.8-97.9 18.2-96.5 23.8-2.1-8.4 7.7-13.7 7.4-20.5-.2-3.9-11.7-21.3-12.2-21 3.6-9.9 27.1-11.5 35.9-13.1a326.256 326.256 0 0 1 83.7-4.8c5.1.2 11 1.1 13.7 1.4zm1.5.3zm-.6-.1a.756.756 0 0 1-.4-.1.756.756 0 0 0 .4.1z"/><path class="cls-6" d="M331.031 97.638a.601.601 0 0 1-.4-.1.756.756 0 0 0 .4.1z"/><path class="cls-7" d="M54.731 146.138c-15.3 23 24.1 18.4 28.8 4.9 3.6-10.4-.5-15.1-3.9-26.1-17 9.1-24.9 21.2-24.9 21.2zM366.931 127.138a92.369 92.369 0 0 0-11.6-1.6c-.6-.1-11.2-1.6-12.7-2.2-10.6-4.4-29.3-16.2-67-25.7l-6.4-1.8 7-.5 8.5-.3s37.6-2.7 72.8 6.6c6.8 1.8 23.1 12.4 13.9 23.1-.9 1.2-1.5 1.9-4.5 2.4z"/><path class="cls-8" d="M396.631 146.238c-6.8 0-10.3-3.5-12.5-7.4a6.165 6.165 0 0 1-3.4-.6l-1.1-.5-.6-1a16.752 16.752 0 0 1-2-9 4.21 4.21 0 0 1 1.9-3.6 59.684 59.684 0 0 1-.9-6.1 4.9 4.9 0 0 1-2.5-3.5 11.425 11.425 0 0 1 .5-7.2 169.03 169.03 0 0 1-2.9-19.3c-.4-3.4-.8-7-1.2-10.4l-.3-1.8 1.3-1.3c6.2-6.2 14.9-12 23.2-17.6 3.3-2.2 6.7-4.5 9.9-6.7.5-.4 1-.7 1.4-1 3.1-2.3 5.8-4.3 12.8-4.8 5.6-.4 13.8-.4 21-.4h11.4c2.2-.1 8.2-.2 10.8 4.7a16.603 16.603 0 0 1 1.5 6.2 16.45 16.45 0 0 0 .5 3.2 26.707 26.707 0 0 0 1.3 4c.2.6.5 1.2.7 1.8a8.483 8.483 0 0 1 5.9 4.3l.6 1-.1 1.1c-.1.8-.2 1.5-.3 2.3a16.361 16.361 0 0 0-.3 3.5c.2.7 3.2 2 4.6 2.6 3.2 1.4 6.9 3 8.7 6.3l.3.6.1.7a40.273 40.273 0 0 1-.1 7c-.1 1.3-.2 2.6-.2 3.7a4.188 4.188 0 0 1 2.6 2.2 9.703 9.703 0 0 1 1 7.3 8.316 8.316 0 0 0-.2 1.3l.1 1.2-.6 1.1c-2.1 3.4-6.1 5.5-9.9 6.4-.4 4.9-2.3 10.8-6.7 14.4-2.5 2.1-6.9 4.2-13.3 2.7a3.59 3.59 0 0 1-2.2-1.6 9.658 9.658 0 0 1-3.7-3.8 24.914 24.914 0 0 1-2.1-4.7c-1.7.3-3.4.6-5 .9-.6.1-1.1.2-1.7.3-.1 5-2.3 9.5-6.1 11.9a11.895 11.895 0 0 1-11.7.5 14.203 14.203 0 0 1-9.1 1 12.335 12.335 0 0 1-6.6-3.9 19.267 19.267 0 0 1-2.4-.1h-.8c-1.1 4.6-3.1 9.4-7.8 11.6l-.4.2-.6.1c-1 .1-1.9.2-2.8.2zm-10.6-15.1a5.547 5.547 0 0 1 1.7.3l1.3.6.6 1.3c1.8 4 3.5 5.9 8.3 5.5 2.4-1.5 3.3-5.8 3.9-9l.5-2.9 3-.1c1.7-.1 3 0 4.2 0a20.417 20.417 0 0 0 3.5 0l2.4-.3 1.2 2.1a5.008 5.008 0 0 0 3.2 2.3 6.822 6.822 0 0 0 5.4-1.1l2.1-1.5 2.1 1.5c2 1.4 4 1.6 5.7.5 2.2-1.4 3.2-4.6 2.6-8.1l-.7-3.6 3.6-.7 5.1-.9c2.7-.4 5.4-.9 7.9-1.5l3.3-.7 1.1 3.7a24.176 24.176 0 0 0 2.3 5.9l.2.3a1.818 1.818 0 0 0 1.1 1l.4.2a3.134 3.134 0 0 1 1.1.8 6.588 6.588 0 0 0 5.5-1.5c3.1-2.6 4.3-7.8 4.1-11.8l-.2-3.7 3.7-.1a11.1 11.1 0 0 0 6.9-2.8c.1-.7.2-1.3.3-1.9a10.503 10.503 0 0 0 .2-1.3 5.43 5.43 0 0 1-2.8-1.6l-.6-.7-.2-.9a33.225 33.225 0 0 1-.2-7.7c.1-1.6.2-3.3.2-4.9-.9-.9-3.1-1.8-4.7-2.5-3.5-1.5-7.5-3.2-8.7-7.2-.6-2-.3-4.3 0-6.6a.901.901 0 0 1 .1-.5 4.31 4.31 0 0 0-2-.3l-2.9-.2-.5-2.8c-.2-.9-.6-1.9-1-3.1a28.853 28.853 0 0 1-1.7-5.2c-.3-1.4-.4-2.7-.6-3.8a11.804 11.804 0 0 0-.7-3.5c-.4-.7-1.8-1-4.3-.9-3.2.1-7.3.1-11.6.1-7.1 0-15.1-.1-20.5.3-4.9.4-6.2 1.4-9 3.4-.5.4-1 .7-1.5 1.1-3.2 2.3-6.7 4.6-10.1 6.8-7.5 5-15.2 10.1-20.9 15.4.4 2.9.7 5.9 1 8.8a145.324 145.324 0 0 0 3 19.7l.4 1.7-1 1.4a2.636 2.636 0 0 0-.3 2 4.623 4.623 0 0 1 2.1 1.9l.4.7.1.8a75.147 75.147 0 0 0 1.5 9.5l.1.5v.5a4.067 4.067 0 0 1-2.4 3.7 8.47 8.47 0 0 0 .4 1.7c.3 0 .8-.1 1.3-.1zm75.5-4.6z"/><path class="cls-8" d="M464.431 66.538c2.5.1 4.4.6 5.6 2.8-.2 2.6-.9 5.5-.4 7.2 1.4 4.6 11.3 5.1 13.7 9.7.5 4.8-.8 9.4 0 13.3.6.7 2.4.3 2.8 1.2 1.9 3.1.1 4.8.4 7.2-1.9 3.2-6.8 5.1-10.5 5.2.4 8.5-4.3 19.7-15.7 16.9a2.01 2.01 0 0 1-.4-.8 5.55 5.55 0 0 1-3.2-2.8 30.04 30.04 0 0 1-2.8-7.2c-4.3 1-8.9 1.6-13.3 2.4 1.9 10.2-6.7 16.6-14.1 11.3-4.7 3.3-11.5 2.3-14.1-2.4-2.6.3-4.7-.1-8.1 0-.7 4.4-2.1 10.1-6.4 12.1-7.9 1-10.8-2.9-12.9-7.6-.7-.3-2.2.8-4 0a12.934 12.934 0 0 1-1.6-7.2c0-1.5 2.4-.6 2.4-2a68.514 68.514 0 0 1-1.6-10.1c-.6-.9-2.2-.7-2.4-2-.5-2.4-.4-4.4.8-6-2.4-9.4-2.9-20.7-4.4-31 8.5-8.5 21.9-16.3 33-24.2 3.9-2.8 5.6-4.7 12.5-5.2 8.8-.6 24.1-.2 32.6-.4 3-.1 6.2.2 7.6 2.8 1.1 2 .9 5.2 1.6 8.5.8 3.2 2.4 5.7 2.9 8.3z"/><path class="cls-9" d="M400.631 131.538c.6 0 1.5-.2 1.6.4.4 1.4-2.5 1.1-1.6-.4zM385.031 127.138v2.4c-.6 0-1.1-.1-1.2.4-.9-.7-.1-3 1.2-2.8zM394.631 132.338c-4.5 0-3.9-8.1-.8-9.2 2.5 1 3.6 7.6.8 9.2zM429.231 120.738c.6.3.6 1.3.8 2a2.134 2.134 0 0 1-2.8-1.6c.6-.2 2.1.5 2-.4zM419.331 113.238c3.5 1.7 3.9 7.1 1.6 10-3.9.2-3.5-8.3-1.6-10zM438.031 102.838c1.2 1.6 1.4 4 .8 6.4-3.1.2-4.6 2.4-8 1.2a7.333 7.333 0 0 1-.8-5.6c2.6-1 4.6-2.8 8-2zM484.631 102.038c.2 2.6-.2 4.6-2 5.2v-2c-1.1-.1-1 .8-1.2 1.6-1.1.3-.8-.8-1.6-.8-1 0-.6 1.6-1.6 1.6-10.4 1.4-22.1-.8-31.9 0-1 0-.5-.3-.4-.8-.1-.4-.8-.3-.8-.8-1-.1-1.3.6-1.2 1.6-.6-.3-1.2-2.4-2-1.2-.6-1.2-1.6-3.5-1.2-4.4 14.1-.8 29.1-.2 43.9 0zM481.031 97.638c.6.6.6 1.7.8 2.8h-3.6c.7-1.1 2.3-1.4 2.8-2.8zM481.431 90.538c.9.8.1 3.3.4 4.8-1.1-1.7-1.5-4-4.4-4 .9-1.7 3.9 1.4 4-.8zM474.231 87.738c.3-.1.4.2.4.4-.2 1.6 2-.4 1.6-.4.4 0 2 2 2 0 .8.2 1 .9 2 .8a1.746 1.746 0 0 0-.4 1.2 21.16 21.16 0 0 0-5.6.4c-.7-.7.4-1 0-2.4zM446.831 88.138c.1-.5 1-.3 1.6-.4v2a12.851 12.851 0 0 0-6.4 1.2c-1.7-1.5 1-1.2 1.6-1.6.4-.3-.3-2.2.4-.4s.5-.1 1.2-.4c-.5.2 3.2.8 1.6-.4zM465.131 69.438c4.4-2.2 3.9 6.1 3.2 8-2.5-1.4-1.7-5.9-3.2-8z"/><path class="cls-9" d="M389.831 67.838c-.5 2.8-3.9 6.2-4.8 10 2.8-1.5 3.2-5.5 5.6-7.6-.4-1.2 1.2-2.4.4-2.8a61.322 61.322 0 0 1 11.2-7.6c-1.4 3.1-4 5.1-4.8 8.8 6-2.6 5-12.2 12.3-13.5 2.3.7 1.7 4.1 4 4.8 2.4-.3.5-4.8 1.6-6.4 6.4-4.6 14.9-2.5 23.1-2.4 6.1.1 12.3-.9 18.7-.8.1 1.6 1.5 2 1.2 4-1.2-1.4-3.9.3-6 .4 1.1 1.5 4.5.6 6 0 1.2 1.7-5.4.6-6.8 1.6-1.6-.7.7-.7.4-1.2-1.6-3.1-6.8 1.7-7.2 3.6 3 .4 2.4-2.9 5.2-2.8-.7 1.1-4.2 2.6-4.4 5.2-.1 2.4 1.2 14.4 2.4 16.7s5.9 5 8.8 4.4c-.3-1.8-3.1-2.2-4.8-3.2 3.3-1.2 9.6.5 12.3-1.2 2.7 1.4 5 3.2 7.6 4.8-5.6 1.3-13.8.5-19.9 1.2-3.9.4-7.8 0-10.4 1.2.7 2 3.4.9 4.8.8 8.4-.6 25.5-2.1 33.9.4-1.5.9-4.6.1-6.8.4-.9.8-1.1 2.4-1.2 4 .7 1.3 1.3 1 2.8.8-.8 1.2-2.5 1.7-2.8 3.6-.4 2.4 1.2 4 1.6 5.2h-2.8c-.2-1.4-.9-2.4-1.2-4.4-.4-2.8 1-6.7-1.2-8-2.8 1.9-.1 9.2-1.6 12.3-1.9.4-1.1-2.1-1.2-3.2-.2-3.6.5-8.3-1.6-9.6-3.4 2.8 1.5 10.3-1.6 12.7-2.3-2.8.4-10.7-2.4-13.1-2.2 2.7.5 10.4-1.6 13.1-1.6-3.3-.1-9.7-2.4-12.3-1.9 1.3-1.3 4.4-1.2 6.8.1 1.9 1.6 5-.8 5.6-1-3.5.3-9.4-1.6-11.9-3.6.8-.2 6.7-1.2 10.4-.8-.2-.8.6-.8 1.2a13.545 13.545 0 0 1-4 .8c2.1-1.2 4-3.5 2.8-6.8-.9-1.4-3.1-1.4-4.8-2a9.875 9.875 0 0 1 4.8-.8c.7-.8.3-2.6.4-4-2.2-1.5-5.8.2-8.8.4-1.2.7-1.4 2.4-1.2 4.4.9.8 3 .3 4 0-3 1.1-5.9 4.9-2.4 8.8h-2.8c.1-4.6.6-8.6.4-13.5-4.4-2.6-10.2-3.9-15.5-5.6-1-.2.1 3.5-.8 2-1.5.7-.2-.6-.4-1.2a10.579 10.579 0 0 1-.8-6 7.01 7.01 0 0 0-3.2-3.6c-.8-3.3.1-8.4-3.2-9.2 0 2.3 1.7 6.2 2 9.6-1.6-2.7-2.2-6.3-3.2-9.6-3.1.3-5.3 2.2-7.6 3.6-2.2 1.4-4.7 2.7-6.4 4.8.6 1.1.4 3 1.2 4-.3 6.9 1.5 13.8 2.8 20.3 5.8-2 10.8-4.9 16.3-7.2 1.1-.1 2.7.3 2.8-.8.2-2.1-2-1.7-3.2-2.4-1.4 1.1-2.6 2.4-5.2 2.4-.2-4.4-3.5-14.7 3.6-13.9.1 2.9.6 5.8.8 9.6 2.6.8 4.1 1.5 6 1.2 1.3.4 2.5.9 3.6 1.2 1.2.4 2.8.3 3.6.8 4.2 2.4 3.5 7.4 3.6 13.9-2.9 1.2-6.4 1.8-8 4.4-1.8-.6-2.4-2.1-4-2.4-8.6-1.8-13.5 6.8-13.9 14.3-4.3-.8-3.6-6.4-5.6-9.6-.2-2.5.3-5.6-1.6-6.4-1.5 6.3 4.2 14.9-.4 18.7-2.2-2.5-3.4-6.1-7.6-6-4 .1-7.5 3.9-8.8 7.6-.5 1.4.7 4.1-2 4 .3-8.6 2.6-13.6 7.6-17.5.4-.3.8-1.3 1.2-1.6 2.7-1.8 6.3-2.4 8.8-4.8-.2-.9-1.6-.5-2-1.2-7 3.7-12.7 8.8-19.1 13.1-1.2-1.1.2-2.9 0-4.4a153.688 153.688 0 0 0 17.5-11.9c.8.2.1 2 1.6 1.6.4-1.3 1-2.4 2.8-2.4-1-7.8-2.3-15.2-3.2-23.1-4.2-3.2-7.5 1.8-11.2 4.4-3.1 2.2-5.7 3.7-8 5.2.2 1-.9 1.5-1.2 2.8-.3 1.5.8 3.8-.4 4 .4-3.4-1-6.1-.8-8.8.4-4.7 4.3-6.9 7.6-9.2a38.807 38.807 0 0 0-4.4 8c3.4-1.1 4.3-5.6 5.6-9.2 1.4-1 2.8-1.5 3.5-2.8zM402.231 133.538c.6.7-1.4 2.7-.4 4-1.1.5-2.3 1-1.6 2.4-1.8.2-1.9 2-4.4 1.6a4.243 4.243 0 0 1 3.6-2.4c-.7-1.9.4-2.6 2-3.2.5-1.3-1.3-.3-.8-1.6.9.1 1.5-.1 1.6-.8zM429.231 124.738c-2.1 1.4.1 4-2.4 4.4a1.097 1.097 0 0 0 .8 1.2c-2.4.8-1.1 1.5-3.6 1.6 1.4 2.1-1.7.3-1.6 2-1.2.2-2.8-1.1-3.2-.4-.7-1.5 3.4-.5 4.8-1.6.2-1-.7-.9-.4-2a2.815 2.815 0 0 0 2 .4c.2-1.3-1.2-.9-.8-2.4a2.815 2.815 0 0 0 2-.4 1.097 1.097 0 0 0-1.2-.8 2.161 2.161 0 0 1 2-1.2c.2-1.3-1.8-.6-1.2-2.4 1-.3 1.8 1.6 2.4.4 1.3-.1-1 1.2.4 1.2z"/><path class="cls-9" d="M442.831 95.638c-.5-1 1.1-2.4 2-2.4 2.8 0 4.4 6.5-.8 5.6 0-.8 1.1-.5.8-1.6-.1-1-1.3-.1-1.6 0-.7 1.5 1.2-2.9-.4-1.6zM475.431 94.938c-.9-.8.9-2.2 2-2.4.3 1.3 1.5 1.7 2 2.8-.3 1.4-1.2 2.3-1.6 3.6a2.815 2.815 0 0 1-2-.4c.2-1.1 1.7-1 1.6-2.4-2.1.3-.6-1.6-2-1.2zM379.131 90.138c1.5 5.1 1.3 12 2.8 17.1-1.1 0-1.1-1.8-1.2-2.4-.7-4.1-1.1-9.5-1.6-14.7zM473.231 119.838c.6.7-1.4 2.7-.4 4-1.1.5-2.3 1-1.6 2.4-1.8.2-2 2-4.4 1.6a4.243 4.243 0 0 1 3.6-2.4c-.7-1.9.4-2.6 2-3.2.5-1.3-1.3-.3-.8-1.6.9.1 1.5-.1 1.6-.8z"/><path class="cls-9" d="M474.831 119.338c-2.1 1.4.1 4-2.4 4.4a1.097 1.097 0 0 0 .8 1.2c-2.4.8-1.1 1.5-3.6 1.6 1.5 2.1-1.7.3-1.6 2-1.2.2-2.8-1.1-3.2-.4-.7-1.5 3.4-.5 4.8-1.6.2-1-.7-.9-.4-2a2.815 2.815 0 0 0 2 .4c.2-1.3-1.2-.9-.8-2.4a2.815 2.815 0 0 0 2-.4 1.097 1.097 0 0 0-1.2-.8 2.161 2.161 0 0 1 2-1.2c.2-1.3-1.8-.6-1.2-2.4 1-.3 1.8 1.6 2.4.4 1.2-.1-1 1.1.4 1.2zM439.731 125.838c.6.7-1.4 2.7-.4 4-1.1.5-2.3 1-1.6 2.4-1.8.2-2 2-4.4 1.6a4.243 4.243 0 0 1 3.6-2.4c-.7-1.9.4-2.6 2-3.2.5-1.3-1.3-.3-.8-1.6.9.1 1.5-.1 1.6-.8z"/><path class="cls-8" d="M391.831 113.638c1.2-2.5 1.9-5.6 4.8-6.4-1.8 1.9-1.8 5.7-4.8 6.4zM399.031 107.238c-1.6 2-2 5.2-4.8 6 .9-2.7 2.3-4.9 4.8-6zM416.531 99.238c-.7 1.9-2 3.4-3.2 5.2-.9 1.4-1.8 4.1-4 4.4.4-2.1 2.1-3.5 3.2-5.2 1-1.6 1.5-4.2 4-4.4zM414.531 96.438a.68.68 0 0 1 .8.4 25.144 25.144 0 0 1-3.6 6c-1.2 1.6-2.6 4.1-4.4 4 2-3.9 5.1-6.7 7.2-10.4zM410.931 95.638c-1.5.2-2.9.6-3.6 1.6 1 .9 2.3-1.1 4-.8-.1 2.4-2.2 2.8-4.8 2.8-.7-1.1-.6-1.2-.4-2.8 1.3-.4 4.6-3.1 4.8-.8zM417.731 92.138h1.2c.8 2.8 1.8 7.4 1.6 10-2.3-2-1.6-6.3-2.8-10zM432.831 90.538c-.2 2.8-2.9 7.4-6.4 8.4a77.36 77.36 0 0 1 6.4-8.4zM426.831 88.938a.597.597 0 0 1 .8.4c-1.3 2.3-1.5 5.6-4.8 6a46.003 46.003 0 0 1 4-6.4z"/><path class="cls-8" d="M431.231 88.138c-1 1.7-2.1 3.5-3.2 5.2-1 1.5-1.9 3.7-4 4a24.647 24.647 0 0 1 5.6-8c.6-.5.3-1.9 1.6-1.2zM406.931 59.438c-1.6 3.4-3 7.1-6 9.2-.4-1.6 1.4-3.1 2.4-4.8.9-1.6 1.3-4.5 3.6-4.4zM420.531 57.438c5.1-1 12.4.2 17.5-.8-3.7-1-9.5 0-14.3-.4-1.3-.1-3.3.3-3.6-1.2 8.7.8 19.7-2.2 23.1 3.2-.1.5-.7.3-1.2.4.4.7 1.5.7 1.6 1.6a94.54 94.54 0 0 1 1.6 11.9c.2 3.7 1.4 5.9-.4 8-6.2 1.1-13.4 1.2-20.7 1.2a74.516 74.516 0 0 1-3.6-23.9zM436.031 106.438c-.6 1.6-1.3 4.1-3.2 3.2.2-1.9 1-3.3 3.2-3.2zM469.131 105.238c2.2-1.2 4.8.5 7.6 0 0 3-5.5.7-7.6.8.4-.6 2.1-.7 0-.8zM468.731 105.638c-2 1.4-5.3.8-8.4.8a82.394 82.394 0 0 1-11.1-.4c-.2-.4-.5-.7 0-.8a.68.68 0 0 1 .4-.8c3 .3 7.8.4 12.7.4 2.1 0 5-.6 6.4.8z"/><path class="cls-8" d="M434.831 104.038c.1 1.3-1.4 4.1-4 4 .7-2 1.8-3.6 4-4z"/><path class="cls-10" d="M50.752 100.573l-1.703-41.789 6.605-3.172 12.29 36.703-1.451-41.91 3.529-1.695.945 51.412-7.461 3.584L53.284 73.18l.24 35.32-7.411 3.56L32.397 71.1c-4.812 4.678-5.918 10.64-3.71 17.236a9.094 9.094 0 0 0 2.072 3.74c-3.478 1.67-5.896 1.091-7.342-3.227-2.67-7.976 4.055-20.049 12.475-24.093.705-.339 1.38-.594 2.056-.848zM87.688 65.972c-2.033.712-2.73 5.062-2.635 6.847l1.302 21.424-7.506 2.629-2.692-44.836 7.413-3.943.984 16.62c1.466-3.745 3.64-5.045 5.255-5.61 3.336-1.17 6.283.02 7.49 4.984 1.22 5.025.542 13.408 1.386 16.883.377 1.55 1.155 2.423 2.719 1.876 2.293-.804 2.689-3.366 3.052-6.994l2.189-.767c-.447 11.197-4.144 13.906-6.907 14.874-4.535 1.588-6.995-1.32-7.854-4.856-1.025-4.22-.534-12.672-1.498-16.643-.498-2.047-1.395-2.945-2.698-2.488z"/><path class="cls-10" d="M116.674 79.228c4.176-1.177 6.175-4.66 8.12-8.993l1.797-.507c-1.886 6.64-5.24 13.759-12.271 15.74-4.97 1.4-8.81-.571-10.195-7.683-1.409-7.238-.924-23.374 9.913-26.428 4.705-1.325 6.378 1.257 6.991 4.404a15.227 15.227 0 0 1-9.574 16.705c.118.897.237 1.792.384 2.548.833 4.28 2.298 4.93 4.835 4.214zm-1.564-24.654c-2.696.76-3.976 8.224-3.82 14.752 4.009-1.462 6.66-7.32 5.644-12.544-.306-1.574-.82-2.491-1.824-2.208z"/><path class="cls-10" d="M132.95 47.285l-.083 4.096c1.572-2.329 3.283-4.82 5.845-5.4 2.401-.542 4.047 1.52 4.422 3.934.346 2.224-.507 4.916-3.122 5.507-2.988.676-2.145-3.856-3.746-3.494-1.6.362-2.413 1.532-3.52 3.295l-.518 25.111-7.684 1.737.721-33.049zM156.09 69.641c2.042-.354 4.432-2.4 5.94-4.49-.267 7.49-3.878 10.337-8.177 11.082-4.997.866-8.676-1.5-9.53-8.732-.87-7.36.8-23.388 11.815-25.297 4.783-.83 6.259 1.92 6.637 5.119a14.648 14.648 0 0 1-10.763 15.646c.022.649.051 1.362.12 1.938.476 4.032 2.078 5.06 3.958 4.734zm.879-24.12c-2.687.466-4.534 8.035-4.944 14.31 4.16-.982 7.233-6.543 6.597-11.919-.189-1.6-.632-2.568-1.653-2.39zM187.56 29.604l-1.168 10.366 3.246-.321-.263 2.62-3.246.322-2.19 19.68a10.663 10.663 0 0 0-.08 2.083c.119 1.805.86 2.315 2.375 2.165 2.11-.209 3.896-2.851 4.495-6.154l2.273-.225c-2.392 10.811-7.655 12.76-10.576 13.05-3.246.321-5.942-1.747-6.298-7.162a25.256 25.256 0 0 1 .157-4.232l2.054-18.433-1.786.177.263-2.62 1.786-.178 1.037-9.055z"/><path class="cls-10" d="M203.894 44.443c-2.115.098-3.683 4.118-3.959 5.878l-3.141 21.175-7.81.361 6.608-44.307 7.99-1.663-2.464 16.42c2.19-3.207 4.56-3.835 6.242-3.912 3.47-.16 6.08 1.854 6.228 7.024.15 5.234-2.23 13.174-2.126 16.793.046 1.616.62 2.69 2.247 2.614 2.386-.11 3.295-2.482 4.392-5.897l2.278-.105c-2.734 10.738-6.871 12.288-9.745 12.421-4.718.218-6.503-3.323-6.608-7.007-.126-4.394 2.087-12.456 1.97-16.591-.062-2.133-.746-3.266-2.102-3.204z"/><path class="cls-10" d="M228.756 64.856c2.062-.008 4.669-1.635 6.408-3.452-1.15 7.377-5.06 9.591-9.4 9.608-5.048.02-8.408-2.943-8.4-10.252.01-7.438 3.557-23.039 14.682-23.082 4.83-.018 5.966 2.953 5.962 6.187a13.792 13.792 0 0 1-12.5 13.695c-.054.647-.11 1.359-.11 1.94-.005 4.076 1.459 5.363 3.358 5.356zm3.72-23.751c-2.713.01-5.436 7.2-6.583 13.349 4.233-.275 7.93-5.27 7.937-10.703.002-1.616-.323-2.65-1.354-2.646zM274.755 31.452l-9.127 41.106-7.806-.397 9.396-42.386-.65-.033c-5.747-.292-10.297 2.131-10.71 12.535a10.489 10.489 0 0 0 .585 4.433c-3.74-.19-5.736-1.91-5.551-6.563.34-8.594 5.762-16.542 19.15-15.862 6.56.333 8.506 1.921 13.818 2.19a15.059 15.059 0 0 0 6.342-1.037c-.331 5.616-2.765 8.083-7.101 7.862a33.99 33.99 0 0 1-8.346-1.848z"/><path class="cls-10" d="M288.758 41.923l-.983 3.93c2.027-1.755 4.227-3.625 6.822-3.38 2.434.229 3.565 2.736 3.392 5.186-.158 2.257-1.574 4.59-4.223 4.34-3.029-.285-1.215-4.398-2.838-4.55-1.622-.153-2.663.723-4.12 2.078l-6.045 24.092-7.786-.733 7.995-31.696zM323.117 46.38l-6.223 21.251a10.439 10.439 0 0 0-.435 2.022c-.193 1.798.444 2.479 1.95 2.7 2.1.31 3.815-1.916 4.968-5.006l2.26.333c-4.193 10.01-9.188 10.709-12.095 10.28-3.068-.451-4.777-2.854-4.672-6.881-3.257 4.866-6.36 5.257-8.621 4.924-3.23-.475-5.51-3.158-4.93-8.55a24.616 24.616 0 0 1 .879-4.108l5.875-20.064 7.75 1.142-6.222 21.251a10.602 10.602 0 0 0-.354 1.773c-.16 1.477.147 2.695 1.331 2.87 2.1.309 3.761-1.924 4.913-5.015l5.876-20.063z"/><path class="cls-10" d="M341.236 55.746c.247-1.591-.074-2.713-1.088-2.931-3.362-.724-8.639 10.176-9.737 17.24-.672 4.328.45 5.622 3.01 6.173 4.215.908 7.211-1.341 10.443-4.394l1.814.39c-3.952 5.2-9.406 10.143-16.502 8.615-5.015-1.08-7.868-4.72-6.75-11.911 1.147-7.383 7.042-21.899 17.873-19.567 4.748 1.023 5.467 4.203 5.012 7.13-.485 3.12-2.003 4.37-3.55 4.038a3.348 3.348 0 0 1-1.749-1.166 12.839 12.839 0 0 0 1.224-3.617z"/><path class="cls-10" d="M373.139 59.23l-12.422 5.452a8.552 8.552 0 0 1 1.787.286c3.882 1.203 5.035 5.105 4.146 9.112a12.423 12.423 0 0 1-.737 2.314l-1.271 2.951a11.845 11.845 0 0 0-.707 1.922c-.277 1.252-.094 2.446 1.532 2.95a2.99 2.99 0 0 0 1.92.193c-1.248 4.364-4.945 5.36-6.308 4.937-4.302-1.333-6.041-4.614-5.028-9.184a18.37 18.37 0 0 1 1.036-3.158l.961-2.311a12.13 12.13 0 0 0 .724-2.251c.402-1.816.141-3.168-1.222-3.59-1.207-.374-2.608.129-4.396 1.113l-6.156 14.618-7.555-2.34 17.046-40.213 8.042 1.153-8.821 20.817 12.235-6.38zM216.415 119.489a2.138 2.138 0 0 1 2.723 1.295 2.116 2.116 0 0 1-1.303 2.698 2.093 2.093 0 0 1-2.69-1.278 2.116 2.116 0 0 1 1.27-2.715zm3.031 4.947l1.228 9.18a3.723 3.723 0 0 0 .185.84.883.883 0 0 0 1.36.563 2.919 2.919 0 0 0 1.474-3.013l1.055-.376c.024 4.603-2.265 6.038-3.621 6.52-1.508.537-3.009.052-3.758-2.057a8.747 8.747 0 0 1-.38-1.704l-1.158-8.667z"/><path class="cls-10" d="M228.223 120.674c2.431 6.468 3.004 7.375 3.545 9.048 1.068 3.296-1.57 5.355-3.65 6.028-2.586.837-4.252-.5-4.752-2.047a2.73 2.73 0 0 1 .58-2.793 40.259 40.259 0 0 0 .689-8.514zm-2.895 12.17a.769.769 0 0 1-.79-.109c.385 1.192 1.004 1.636 2.12 1.275a2.184 2.184 0 0 0 1.443-3.072c-.427-1.319-.91-2.03-2.427-5.853a30.51 30.51 0 0 1-.502 5.457 1.004 1.004 0 0 1 .87.698 1.265 1.265 0 0 1-.714 1.603zM247.418 116.166l.475 9.25a3.662 3.662 0 0 0 .117.852.882.882 0 0 0 1.309.672 1.353 1.353 0 0 0 .54-.254c-.217 1.988-.494 2.917-1.884 3.287a2.566 2.566 0 0 1-3.162-1.724 4.812 4.812 0 0 1-3.2 3.416c-1.752.466-3.714-.17-4.53-3.235-.924-3.478-.259-9.584 4.223-10.776 1.468-.39 2.237.012 2.435.759l.048.18-.08-1.44zm-6.618 10.889c.528 1.983 1.359 1.79 1.823 1.666a2.681 2.681 0 0 0 1.534-2.835l-.312-6.15a1.034 1.034 0 0 0-1.316-.698c-2.19.583-2.372 5.596-1.729 8.017zM261.325 110.407c-.03-.267-.048-.481-.098-.715a.91.91 0 0 0-1.178-.676c-.575.122-1.377.702-1.371 2.526l-.005 2.153 1.903-.405.04 1.081-1.93.41-.004 14.714c.012 3.893-2.003 5.057-3.722 5.423a2.996 2.996 0 0 1-3.675-2.16c-.51-2.399 1.336-3.582 3.652-4.864l-.012-15.554c-.01-3.894 2.08-5.074 3.801-5.44a2.994 2.994 0 0 1 3.674 2.16 6.551 6.551 0 0 1 .15 1.086zm-7.458 22.318c.548-.116 1.042-.739 1.053-2.348l.018-1.584c-1.526.897-2.596 1.887-2.297 3.294a1.077 1.077 0 0 0 1.226.638z"/><path class="cls-10" d="M271.263 115.431a.621.621 0 0 0 .298.001 8.493 8.493 0 0 0 3.758-2.299l.363.666a8.413 8.413 0 0 1-4.253 3.01c.45 4.93-1.627 8.443-4.854 9.022-2.44.437-4.404-.401-4.941-3.392-.541-3.017.114-9.634 5.518-10.603 2.256-.404 3.617.84 4.11 3.595zm-1.998 1.848a.988.988 0 0 1-.905-.975 1.464 1.464 0 0 1 .56-1.563c-.25-1.092-.588-1.465-1.27-1.343-1.863.335-2.629 5.427-2.168 7.999.31 1.731.722 2.063 1.72 1.885 1.285-.231 2.2-2.832 2.063-6.003z"/><path class="cls-10" d="M283.04 113.766a.623.623 0 0 0 .298.013 8.491 8.491 0 0 0 3.85-2.137l.335.68a8.424 8.424 0 0 1-4.375 2.828c.242 4.941-1.98 8.363-5.229 8.805-2.455.334-4.382-.588-4.791-3.598-.414-3.035.52-9.616 5.96-10.356 2.27-.309 3.576.993 3.952 3.765zm-2.072 1.761a.989.989 0 0 1-.864-1.012 1.464 1.464 0 0 1 .625-1.537c-.204-1.101-.525-1.488-1.212-1.395-1.875.255-2.855 5.31-2.502 7.896.237 1.743.634 2.093 1.638 1.956 1.292-.176 2.316-2.735 2.315-5.908z"/><path class="cls-10" d="M297.672 103.028l-1.839 14.599a3.714 3.714 0 0 0-.034.858.883.883 0 0 0 1.172.89c1.035-.087 1.667-1.157 1.953-2.518l1.115-.095c-1.147 4.456-3.5 5.084-4.935 5.205a2.447 2.447 0 0 1-2.795-2.063 4.74 4.74 0 0 1-3.723 2.776c-1.806.153-3.627-.816-3.894-3.976-.305-3.585 1.416-9.48 6.037-9.872 1.514-.128 2.2.402 2.266 1.172l.009.106.784-6.218zm-5.599 14.409l.786-6.191a1.057 1.057 0 0 0-1.167-.837c-2.258.19-3.314 5.094-3.102 7.59.173 2.045 1.026 2 1.504 1.959a2.63 2.63 0 0 0 1.99-2.388z"/><path class="cls-10" d="M304.943 103.9l-.723 4.247 1.597-.07-.167 1.075-1.597.069-1.36 8.061a3.676 3.676 0 0 0-.07.857.882.882 0 0 0 1.134.938 2.918 2.918 0 0 0 2.296-2.447l1.118-.048c-1.33 4.405-3.942 5.105-5.379 5.167-1.598.069-2.89-.836-2.988-3.072a8.775 8.775 0 0 1 .14-1.74l1.274-7.55-.879.037.167-1.075.88-.037.64-3.709z"/><path class="cls-10" d="M311.58 107.982l-.325 1.657a5.198 5.198 0 0 1 3.204-1.694 1.976 1.976 0 0 1-.03 3.947c-1.492.018-.768-1.75-1.568-1.74a2.759 2.759 0 0 0-1.933 1.037l-2.005 10.154-3.837.048 2.657-13.361zM328.57 108.274l-2.199 8.998a3.73 3.73 0 0 0-.133.85.883.883 0 0 0 1.062 1.019c1.039.032 1.79-.958 2.23-2.278l1.12.035c-1.653 4.295-4.07 4.807-5.508 4.762a2.488 2.488 0 0 1-2.56-2.612c-1.4 2.143-2.9 2.443-4.02 2.408-1.598-.05-2.82-1.047-2.751-3.285a8.764 8.764 0 0 1 .266-1.725l2.077-8.495 3.836.119-2.198 8.998a3.67 3.67 0 0 0-.103.743.885.885 0 0 0 .764 1.118c1.04.031 1.763-.96 2.204-2.28l2.077-8.494z"/><path class="cls-10" d="M337.739 111.224c.05-.665-.156-1.108-.66-1.147-1.673-.129-3.775 4.6-4.001 7.55-.14 1.805.465 2.28 1.74 2.377 2.1.162 3.465-.908 4.91-2.32l.902.069c-1.701 2.327-4.15 4.624-7.684 4.352-2.497-.192-4.049-1.54-3.819-4.542.238-3.082 2.482-9.323 7.874-8.908 2.366.182 2.856 1.449 2.761 2.671-.1 1.302-.786 1.89-1.557 1.83a1.702 1.702 0 0 1-.905-.39 4.69 4.69 0 0 0 .439-1.542z"/><path class="cls-10" d="M353.283 110.72l-5.747 3.016a5.002 5.002 0 0 1 .886.003 2.832 2.832 0 0 1 2.523 3.457 4.554 4.554 0 0 1-.231.992l-.457 1.286a4.354 4.354 0 0 0-.237.83.889.889 0 0 0 .91 1.107 1.736 1.736 0 0 0 .945-.044 2.932 2.932 0 0 1-2.8 2.417c-2.169-.27-3.197-1.5-2.956-3.43a6.718 6.718 0 0 1 .33-1.355l.34-1.005a4.465 4.465 0 0 0 .23-.966c.094-.767-.107-1.302-.795-1.388a3.348 3.348 0 0 0-2.078.735l-2.19 6.36-3.81-.475 6.079-17.504 3.98-.04-3.144 9.06 5.604-3.382zM354.717 124.521a2.14 2.14 0 0 1-1.712-2.482 2.116 2.116 0 0 1 2.477-1.686 2.093 2.093 0 0 1 1.691 2.451 2.116 2.116 0 0 1-2.456 1.717zm2.612-5.807l-1.731-.317c.679-3.697 5.7-4.183 6.432-8.167.236-1.285-.35-1.934-1.11-2.074a2.208 2.208 0 0 0-2.497 1.79 1.784 1.784 0 0 0 .678 1.913 2.26 2.26 0 0 1-2.115.75 2.034 2.034 0 0 1-1.586-2.568c.327-1.783 2.321-3.936 6.279-3.209 3.591.66 3.933 2.186 3.611 3.942-.93 5.06-5.96 4.27-7.961 7.94z"/></svg>