<svg id="Layer_1" data-name="Layer 1" xmlns="http://www.w3.org/2000/svg" viewBox="0 0 41.18701 41.18604"><defs><style>.cls-1{fill:#ecbc54;}.cls-2{fill:#e08b36;}.cls-3{fill:#e56d34;}.cls-4{fill:#d25227;}.cls-5{fill:#d4eded;}.cls-6{fill:#ce552c;}</style></defs><title>Untitled-1</title><path class="cls-1" d="M21.3418,2.36963A18.56729,18.56729,0,0,0,6.132,31.62311a1.64319,1.64319,0,0,1,.38025-0.60358c-0.07471-.38867-0.144-0.78906-0.19775-1.21289a1.765,1.765,0,0,1-.72217-1.18652,3.65209,3.65209,0,0,1,.11377-2.07617,47.77374,47.77374,0,0,1-.76758-5.24512c-0.105-.96-0.20947-1.92041-0.34277-2.85156L4.48926,17.7041,5.02,17.17383a43.6973,43.6973,0,0,1,6.51758-4.93164c0.92969-.61963,1.855-1.23584,2.72656-1.85449l0.38379-.27979a6.15563,6.15563,0,0,1,3.79736-1.42773c1.57715-.11475,3.8584-0.10742,5.86914-0.10059,1.17871,0.00391,2.28906.0083,3.14453-.01318,0.6416-.01758,2.55957-0.062,3.44727,1.54736a4.94056,4.94056,0,0,1,.47852,1.8999c0.03027,0.269.05957,0.55322,0.11914,0.83643a5.97364,5.97364,0,0,0,.34473,1.01807c0.03711,0.09131.0752,0.18408,0.11133,0.27783a2.847,2.847,0,0,1,1.69922,1.36426l0.23145,0.41064-0.04492.46875c-0.02051.2168-.05078,0.43945-0.08105,0.65918-0.02832.20947-.06836,0.50342-0.07617,0.68506a7.05471,7.05471,0,0,0,.998.48584,4.8365,4.8365,0,0,1,2.6416,1.97705l0.13281,0.25781,0.02734,0.28857a11.976,11.976,0,0,1-.02246,2.02148c-0.01758.23828-.03418,0.4707-0.042,0.68848a1.65145,1.65145,0,0,1,.66309.68652,3.05524,3.05524,0,0,1,.32324,2.35156,1.35615,1.35615,0,0,0-.03906.21777L38.4248,27.2168l-0.26855.41211a4.75335,4.75335,0,0,1-2.7002,1.90625,6.12057,6.12057,0,0,1-1.998,3.99316,4.514,4.514,0,0,1-4.10645.8457,1.49362,1.49362,0,0,1-.85645-0.55762,2.99713,2.99713,0,0,1-1.06445-1.11035,6.231,6.231,0,0,1-.50586-1.042c-0.335.05957-.67187,0.11621-1.00879,0.17285-0.02441.00488-.04883,0.00879-0.07324,0.0127a4.30226,4.30226,0,0,1-1.9082,3.292,3.74016,3.74016,0,0,1-3.51514.25488,4.38263,4.38263,0,0,1-2.63672.2168,3.89713,3.89713,0,0,1-1.93359-1.05957c-0.09473-.002-0.18848-0.00488-0.28076-0.00879a4.70358,4.70358,0,0,1-2.3111,3.13525A18.58319,18.58319,0,1,0,21.3418,2.36963Z" transform="translate(-0.74854 -0.36963)"/><path class="cls-2" d="M21.3418,0.36963A20.593,20.593,0,1,0,41.93555,20.9624,20.6164,20.6164,0,0,0,21.3418.36963Zm0,39.186a18.44884,18.44884,0,0,1-8.08453-1.87549c-0.01257.006-.02289,0.01416-0.03558,0.02l-0.209.0957-0.228.0293a6.59654,6.59654,0,0,1-.85059.05762,4.13244,4.13244,0,0,1-3.73584-2.06152,2.38106,2.38106,0,0,1-.87891-0.22168l-0.46973-.2207L6.61621,34.915a5.1037,5.1037,0,0,1-.59766-2.751,1.92041,1.92041,0,0,1,.1134-0.541A18.578,18.578,0,1,1,21.3418,39.55566Z" transform="translate(-0.74854 -0.36963)"/><path class="cls-3" d="M15.56836,34.54492c0.09229,0.00391.186,0.00684,0.28076,0.00879a3.89713,3.89713,0,0,0,1.93359,1.05957,4.38263,4.38263,0,0,0,2.63672-.2168,3.74016,3.74016,0,0,0,3.51514-.25488,4.30226,4.30226,0,0,0,1.9082-3.292c0.02441-.00391.04883-0.00781,0.07324-0.0127,0.33691-.05664.67383-0.11328,1.00879-0.17285a6.231,6.231,0,0,0,.50586,1.042,2.99713,2.99713,0,0,0,1.06445,1.11035,1.49362,1.49362,0,0,0,.85645.55762,4.514,4.514,0,0,0,4.10645-.8457,6.12057,6.12057,0,0,0,1.998-3.99316,4.75335,4.75335,0,0,0,2.7002-1.90625l0.26855-.41211L38.37109,26.709a1.35615,1.35615,0,0,1,.03906-0.21777,3.05524,3.05524,0,0,0-.32324-2.35156,1.65145,1.65145,0,0,0-.66309-0.68652c0.00781-.21777.02441-0.4502,0.042-0.68848a11.976,11.976,0,0,0,.02246-2.02148l-0.02734-.28857-0.13281-.25781a4.8365,4.8365,0,0,0-2.6416-1.97705,7.05471,7.05471,0,0,1-.998-0.48584c0.00781-.18164.04785-0.47559,0.07617-0.68506,0.03027-.21973.06055-0.44238,0.08105-0.65918l0.04492-.46875-0.23145-.41064A2.847,2.847,0,0,0,31.96,14.146c-0.03613-.09375-0.07422-0.18652-0.11133-0.27783a5.97364,5.97364,0,0,1-.34473-1.01807c-0.05957-.2832-0.08887-0.56738-0.11914-0.83643a4.94056,4.94056,0,0,0-.47852-1.8999c-0.8877-1.60937-2.80566-1.56494-3.44727-1.54736-0.85547.02148-1.96582,0.01709-3.14453,0.01318-2.01074-.00684-4.292-0.01416-5.86914.10059a6.15563,6.15563,0,0,0-3.79736,1.42773l-0.38379.27979c-0.87158.61865-1.79687,1.23486-2.72656,1.85449A43.6973,43.6973,0,0,0,5.02,17.17383l-0.53076.53027L4.5957,18.44727c0.1333,0.93115.23779,1.8916,0.34277,2.85156a47.77374,47.77374,0,0,0,.76758,5.24512,3.65209,3.65209,0,0,0-.11377,2.07617,1.765,1.765,0,0,0,.72217,1.18652c0.05371,0.42383.123,0.82422,0.19775,1.21289a1.64319,1.64319,0,0,0-.38025.60358,1.92041,1.92041,0,0,0-.1134.541,5.1037,5.1037,0,0,0,.59766,2.751l0.2334,0.46387,0.46973,0.2207a2.38106,2.38106,0,0,0,.87891.22168,4.13244,4.13244,0,0,0,3.73584,2.06152,6.59654,6.59654,0,0,0,.85059-0.05762l0.228-.0293,0.209-.0957c0.0127-.00586.023-0.014,0.03558-0.02A4.70358,4.70358,0,0,0,15.56836,34.54492Zm-2.97485,1.86475a2.98844,2.98844,0,0,1-3.53259-2.09711,2.67217,2.67217,0,0,1-1.10431,0,3.62909,3.62909,0,0,1-.44092-1.98694c-0.01361-.4176.64526-0.16479,0.662-0.55188a21.00791,21.00791,0,0,1-.44153-2.75995,1.83851,1.83851,0,0,1-.66156-0.5517,1.99313,1.99313,0,0,1,.22028-1.65588,84.59838,84.59838,0,0,1-1.21448-8.50012c2.33844-2.33777,6.01172-4.46619,9.05212-6.623a5.25262,5.25262,0,0,1,3.42163-1.43518c2.42078-.17682,6.61316-0.05292,8.94177-0.11041a2.14089,2.14089,0,0,1,2.09644.77258,10.33767,10.33767,0,0,1,.44257,2.31805c0.19049,0.91748.63794,1.60175,0.77209,2.31842a1.63016,1.63016,0,0,1,1.54584.77271,6.55563,6.55563,0,0,0-.11035,1.98688c0.38379,1.27173,3.10681,1.39667,3.75305,2.64941,0.12372,1.31665-.22052,2.57654,0,3.64282a2.95966,2.95966,0,0,1,.77325.33148c0.51935,0.84009.03925,1.32642,0.10919,1.98669a3.7815,3.7815,0,0,1-2.86938,1.43475c0.11816,2.31842-1.1662,5.394-4.30511,4.63654a1.33558,1.33558,0,0,1-.11115-0.22083,1.55117,1.55117,0,0,1-.88263-0.77252,8.256,8.256,0,0,1-.77271-1.98676c-1.17169.26233-2.435,0.43481-3.6427,0.662,0.52643,2.787-1.83545,4.56366-3.86334,3.09076a2.68043,2.68043,0,0,1-3.8634-.66229c-0.705.08057-1.29321-.03864-2.20837,0C14.158,34.30579,13.77618,35.8634,12.59351,36.40967Z" transform="translate(-0.74854 -0.36963)"/><path class="cls-4" d="M16.56757,33.09814a2.68043,2.68043,0,0,0,3.8634.66229c2.02789,1.4729,4.38977-.30371,3.86334-3.09076,1.2077-.22717,2.471-0.39966,3.6427-0.662a8.256,8.256,0,0,0,.77271,1.98676,1.55117,1.55117,0,0,0,.88263.77252,1.33558,1.33558,0,0,0,.11115.22083c3.13892,0.75745,4.42328-2.31812,4.30511-4.63654A3.7815,3.7815,0,0,0,36.878,26.9165c-0.06995-.66028.41016-1.14661-0.10919-1.98669a2.95966,2.95966,0,0,0-.77325-0.33148c-0.22052-1.06628.12372-2.32617,0-3.64282-0.64624-1.25275-3.36926-1.37769-3.75305-2.64941a6.55563,6.55563,0,0,1,.11035-1.98688,1.63016,1.63016,0,0,0-1.54584-.77271c-0.13416-.71667-0.5816-1.40094-0.77209-2.31842A10.33767,10.33767,0,0,0,29.59235,10.91a2.14089,2.14089,0,0,0-2.09644-.77258c-2.32861.0575-6.521-.06641-8.94177,0.11041A5.25262,5.25262,0,0,0,15.13251,11.683c-3.04041,2.15686-6.71368,4.28528-9.05212,6.623a84.59838,84.59838,0,0,0,1.21448,8.50012,1.99313,1.99313,0,0,0-.22028,1.65588,1.83851,1.83851,0,0,0,.66156.5517,21.00791,21.00791,0,0,0,.44153,2.75995c-0.01672.38708-.6756,0.13428-0.662,0.55188a3.62909,3.62909,0,0,0,.44092,1.98694,2.67217,2.67217,0,0,0,1.10431,0,2.98844,2.98844,0,0,0,3.53259,2.09711c1.18268-.54626,1.56451-2.10388,1.76569-3.31152C15.27435,33.05951,15.86261,33.17871,16.56757,33.09814Zm1.65576-4.85736a1.89742,1.89742,0,0,1,.44116,2.76C17.58716,31.0827,17.71106,28.70929,18.22333,28.24078Zm2.09729,4.416a0.30072,0.30072,0,0,0,.22046.33105c-0.67871.23291-.29333,0.41614-0.99335,0.44135,0.40149,0.57764-.47485.07074-0.44153,0.55194-0.32648.05981-.77924-0.31189-0.88287-0.11035-0.185-.42584.95477-0.14429,1.3244-0.44159a1.90982,1.90982,0,0,1-.10974-0.55176,0.71435,0.71435,0,0,0,.55145.11041c0.053-.34772-0.33868-0.24963-0.2215-0.66217a0.72086,0.72086,0,0,0,.55267-0.11023,0.30558,0.30558,0,0,0-.33118-0.22095,0.60106,0.60106,0,0,1,.55164-0.33142c0.04218-.37335-0.4892-0.17316-0.331-0.66223,0.28137-.08514.50775,0.43134,0.66241,0.11041,0.34418-.03418-0.28021.31915,0.11029,0.33118C20.38977,31.81927,21.00427,32.56165,20.32062,32.65674ZM20.431,30.44922c0.15979-.0611.57037,0.12885,0.55182-0.11053a0.89657,0.89657,0,0,1,.22028.55157A0.58343,0.58343,0,0,1,20.431,30.44922Zm0.99316-2.98035a1.95624,1.95624,0,0,1-.22107-1.54608c0.72247-.28809,1.25323-0.78564,2.20837-0.5517a2.13719,2.13719,0,0,1,.2207,1.7663C22.77588,27.1889,22.357,27.79645,21.42413,27.46887Zm2.35535,5.37225c-0.31091.15228-.64838,0.27838-0.44226,0.66217-0.5036.04889-.54126,0.56329-1.21405,0.44171a1.17968,1.17968,0,0,1,.99353-0.66278c-0.19067-.52515.10205-0.73041,0.55206-0.88269,0.13672-.35754-0.3576-0.08417-0.22064-0.44153,0.2514,0.031.41492-.02673,0.4411-0.22083C24.0575,31.92358,23.50305,32.4942,23.77948,32.84113Zm9.24158-1.71906a0.32123,0.32123,0,0,0,.03058.06311c-0.03027.01489-.059,0.02972-0.08929,0.04437a0.293,0.293,0,0,0,.19946.24951,1.2044,1.2044,0,0,0-.55548.35431c0.00281,0.00549.00061,0.00867,0.0036,0.01428a0.59951,0.59951,0,0,0-.062.01385,0.62011,0.62011,0,0,1-.12756.03418,0.88378,0.88378,0,0,0-.19989.11743c0.22089,0.40869-.524.01093-0.493,0.45947-0.32721.05933-.77979-0.31268-0.88385-0.11084-0.11462-.26556.28558-0.256,0.69257-0.28339A1.12018,1.12018,0,0,1,32.111,31.687a0.30948,0.30948,0,0,1-.05267-0.31866,0.65573,0.65573,0,0,0,.30518.10522,0.52645,0.52645,0,0,1,.04669-0.3894,0.30173,0.30173,0,0,1-.02051-0.26788,0.71281,0.71281,0,0,0,.55151-0.11,0.30567,0.30567,0,0,0-.33124-0.22107,0.35967,0.35967,0,0,1,.0932-0.10437,0.29681,0.29681,0,0,1,.01794-0.07855c0.02325,0.00287.03473-.00616,0.05646-0.00482a0.80515,0.80515,0,0,1,.32086-0.12512,0.21086,0.21086,0,0,0,.05853-0.08386c-0.03064-.27667-0.47284-0.14227-0.32593-0.59662,0.28113-.085.50714,0.43182,0.66217,0.11072,0.34363-.03418-0.28015.31866,0.10992,0.33093C33.04034,30.29071,33.55408,30.97321,33.02106,31.12207Zm2.91772-5.972C35.991,25.86456,36,26.4176,35,26.58533V26.47491a2.4016,2.4016,0,0,0-.19141-0.22095c-0.28369.01129-.06073,0.4306-0.34521,0.44183-2.86963.39716-6.08557-.23083-8.78241,0-0.28271.00439-.11035-0.08209-0.08594-0.22076a0.84674,0.84674,0,0,1-.20856-0.22107c-0.29041-.033-0.356.15259-0.3255,0.44183-0.15686-.074-0.33783-0.6756-0.54919-0.33124a2.53578,2.53578,0,0,1-.52289-1.21448C27.87079,24.92084,31.843,25.10168,35.93878,25.15009ZM25.067,21.50757c0.2,0.49866.14795-.02966,0.3316-0.11035-0.12787.056,0.90173,0.23828,0.44092-.1106,0.03448-.15045.27643-0.09143,0.44214-0.11035v0.55182a3.5303,3.5303,0,0,0-1.76691.33142c-0.477-.41888.28192-0.34619,0.4425-0.44183C25.07666,21.545,24.86963,21.01312,25.067,21.50757Zm-0.22064,2.318c-0.17773.40863,0.34692-.80786-0.11035-0.44141a0.61792,0.61792,0,0,1,.55164-0.6626c0.77985-.00964,1.22119,1.79272-0.22064,1.54565,0.00116-.22009.30127-0.14008,0.22064-0.44165C25.27155,23.551,24.91376,23.79358,24.84637,23.82556Zm8.61-2.64929c0.09393-.01953.10382,0.043,0.1109,0.11035-0.05518.446,0.55658-.11823,0.44135-0.11035,0.11285-.0069.56738,0.55341,0.55164,0a1.42792,1.42792,0,0,0,.55243.22095,0.51674,0.51674,0,0,0-.11029.33087,5.63572,5.63572,0,0,0-1.546.11078C33.25043,21.64185,33.54639,21.55835,33.45636,21.17627ZM34.3396,22.5011a3.74072,3.74072,0,0,0,.55225.77222c-0.09064.38812-.33276,0.62506-0.44153,0.9939a0.71673,0.71673,0,0,1-.55206-0.11066,1.73767,1.73767,0,0,0,.44135-0.66235c-0.57867.09436-.17773-0.43707-0.5517-0.33112C33.54639,22.95013,34.04486,22.54407,34.3396,22.5011ZM35.33374,23.936a1.46616,1.46616,0,0,1,.22089.77289H34.56024A5.08317,5.08317,0,0,0,35.33374,23.936Zm0.10992-1.98688a3.00881,3.00881,0,0,1,.111,1.32416c-0.3064-.46661-0.42322-1.1225-1.215-1.10345C34.56909,21.71582,35.40588,22.55493,35.44366,21.94916Zm-3.64288-3.64307c-0.67462-.35645-0.45258-1.6073-0.88306-2.20795C32.143,15.49585,31.98889,17.783,31.80078,18.30609ZM7.07458,21.83887c0.42633,1.41278.3562,3.32239,0.77209,4.74646-0.29926-.00665-0.30261-0.49255-0.331-0.66254C7.32343,24.78821,7.21033,23.29285,7.07458,21.83887Zm1.655,10.9281c-0.15686-.00989-0.3125-0.01862-0.33118.11041a0.4773,0.4773,0,0,1,.33118-0.77264V32.767Zm2.6499,0.77246c-1.24164.01276-1.07043-2.24976-.22144-2.53864C11.84442,31.28326,12.14624,33.10455,11.37946,33.53943ZM13.36621,34.975c-0.31055.15228-.64819,0.27808-0.44189,0.66248-0.50323.04834-.54047,0.56287-1.21448,0.44122a1.17841,1.17841,0,0,1,.99377-0.66229c-0.1911-.52533.10327-0.73035,0.55188-0.88293,0.1369-.35773-0.3576-0.08417-0.22089-0.442,0.25159,0.03125.41516-.026,0.44153-0.22076C13.6452,34.05725,13.08978,34.62817,13.36621,34.975Zm-0.3316-1.65607c0.17438,0.009.42047-.05261,0.44153,0.11023C13.5965,33.81714,12.7998,33.725,13.03461,33.31891Zm0.55225-3.20117c-0.60309-.70532-0.93506-1.68555-2.09766-1.65564a3.02416,3.02416,0,0,0-2.42828,2.09735c-0.1391.38507,0.183,1.14258-.55182,1.10358,0.07349-2.39612.72955-3.75757,2.09686-4.85681,0.11859-.09509.2323-0.37329,0.331-0.44165a16.654,16.654,0,0,0,2.42926-1.32471,1.4888,1.4888,0,0,0-.55206-0.33093,59.82867,59.82867,0,0,0-5.29846,3.64233c-0.32782-.29889.0611-0.81421,0-1.21387a43.20959,43.20959,0,0,0,4.85693-3.31183c0.22479,0.06915.03076,0.55737,0.44153,0.44165a0.75584,0.75584,0,0,1,.77271-0.66248c-0.27228-2.15552-.65112-4.20581-0.88324-6.40228-1.16632-.88-2.06848.48871-3.09082,1.21387-0.85608.60736-1.59369,1.03021-2.20782,1.43536a2.98307,2.98307,0,0,1-.33038.77283c-0.08295.40717,0.22577,1.05957-.11115,1.10358,0.11371-.95264-0.28821-1.704-0.22089-2.42834,0.1214-1.31049,1.19672-1.9115,2.09711-2.5387a10.5293,10.5293,0,0,0-1.21344,2.2074C8.58038,18.654,8.81445,17.41,9.17145,16.42957a3.20666,3.20666,0,0,0,.88306-0.773c-0.14972.77191-1.07733,1.71912-1.325,2.75977,0.78729-.42706.89349-1.535,1.54541-2.09711-0.09869-.3288.345-0.67212,0.11011-0.77271A16.92283,16.92283,0,0,1,13.47614,13.449c-0.39026.86-1.10034,1.402-1.32434,2.42877,1.66418-.7276,1.39844-3.3847,3.42163-3.75323,0.62634,0.183.48486,1.13446,1.10449,1.32446,0.66217-.07312.14008-1.33124,0.44092-1.766,1.76886-1.26428,4.12817-.70465,6.40277-0.66229,1.68134,0.03046,3.41791-.25531,5.18811-0.22107a3.2896,3.2896,0,0,1,.3316,1.10382c-0.34045-.40155-1.0899.07428-1.65619,0.11072,0.30145,0.42145,1.26074.15448,1.65619,0,0.32782,0.4715-1.48376.16858-1.87665,0.44147-0.45038-.18317.18127-0.19342,0.10956-0.33112-0.44366-.86218-1.89789.48248-1.98657,0.99316,0.8399,0.10394.67682-.79486,1.43512-0.77252-0.19092.31812-1.17224,0.73419-1.21387,1.43481a19.08913,19.08913,0,0,0,.66223,4.63629A2.861,2.861,0,0,0,28.6,19.63092c-0.07208-.502-0.86511-0.61133-1.32574-0.88312,0.92188-.329,2.64856.14679,3.42285-0.33148,0.7583,0.38361,1.3819.89978,2.09723,1.32513-1.5509.36853-3.81409,0.14343-5.52008,0.33087a11.2202,11.2202,0,0,0-2.86981.33124c0.20038,0.54651.93018,0.24634,1.325,0.22095,2.33209-.15247,7.07043-0.57343,9.38324.11011a6.10283,6.10283,0,0,1-1.877.11035,1.66318,1.66318,0,0,0-.33057,1.10419c0.18085,0.35437.36859,0.28107,0.77252,0.2207a3.03641,3.03641,0,0,0-.77252,1.19409C32.79553,24.03424,33.23981,24,33.346,25H32.57391a5.87369,5.87369,0,0,0-.33142-1.415c-0.09729-.76721.28351-1.96362-0.33136-2.30835-0.7688.51868-.01874,2.508-0.44116,3.37183-0.53491.10138-.31268-0.61823-0.33136-0.90845-0.06525-1.00458.14459-2.31708-.44153-2.66174-0.93823.76276,0.40979,2.855-.442,3.52625-0.6452-.78931.09875-2.97119-0.66278-3.64594-0.60187.75787,0.14935,2.87061-.44067,3.64124-0.44489-.9176-0.02429-2.69965-0.6626-3.42279-0.533.35193-.3576,1.21509-0.33142,1.87622,0.02148,0.53223.436,1.38165-.22064,1.54523-0.28351-.968.09613-2.59869-0.4411-3.31183-0.9881.23309-.05066,1.84546-0.33124,2.86993-0.23541-.05139-0.20978.15826-0.22046,0.3313a3.55272,3.55272,0,0,1-1.10468.221,1.49715,1.49715,0,0,0,.77313-1.87671,2.51562,2.51562,0,0,0-1.325-.55194,2.59051,2.59051,0,0,1,1.325-.22076,2.26426,2.26426,0,0,0,.11011-1.104c-0.61572-.40845-1.61377.06079-2.42847,0.11023a1.22888,1.22888,0,0,0-.331,1.21454,1.38373,1.38373,0,0,0,1.1037.14551A1.58968,1.58968,0,0,0,24.40442,25H23.63214c0.023-2,.17889-2.54315.11072-3.899A21.59423,21.59423,0,0,0,19.438,19.48267c-0.26343-.06494.01715,0.92084-0.22186,0.51605-0.40448.18726-.06366-0.19495-0.10992-0.34961a3.11957,3.11957,0,0,1-.22046-1.66516,1.96814,1.96814,0,0,0-.88348-0.99786c-0.23383-.90643.03314-2.317-0.88342-2.5412-0.00983.63666,0.4776,1.72858,0.55225,2.64825a12.51194,12.51194,0,0,1-.88281-2.65,4.74927,4.74927,0,0,0-2.0979.99329,6.79634,6.79634,0,0,0-1.76605,1.32471,8.51463,8.51463,0,0,0,.33118,1.10352A24.25073,24.25073,0,0,0,14.028,23.4942c1.61987-.55164,2.98639-1.35626,4.52612-1.98663,0.31226-.01874.75714,0.095,0.77271-0.22095,0.06659-.58063-0.55737-0.47345-0.88324-0.66211a2.12776,2.12776,0,0,1-1.43488.66211c-0.0528-1.22955-.96875-4.06378.99353-3.86322,0.014,0.7959.17,1.62152,0.22107,2.64893a3.73075,3.73075,0,0,0,1.65515.33124c0.36157,0.11237.67993,0.23621,0.994,0.33105a6.88028,6.88028,0,0,1,.99353.22089c1.15906,0.66669.96564,2.063,0.99341,3.86383-0.80389.33643-1.7785,0.50311-2.208,1.21368-0.50439-.17194-0.67322-0.57257-1.1037-0.66193-2.37335-.49005-3.73236,1.89014-3.8634,3.97369-1.18842-.21039-1.00989-1.78607-1.54584-2.649-0.04175-.69434.08533-1.55768-0.44067-1.766C13.29529,26.68011,14.85846,29.0603,13.58685,30.11774Z" transform="translate(-0.74854 -0.36963)"/><path class="cls-5" d="M13.47614,33.42914c-0.02106-.16284-0.26715-0.10126-0.44153-0.11023C12.7998,33.725,13.5965,33.81714,13.47614,33.42914Z" transform="translate(-0.74854 -0.36963)"/><path class="cls-5" d="M8.39838,32.87738c0.01868-.129.17432-0.1203,0.33118-0.11041V32.10474A0.4773,0.4773,0,0,0,8.39838,32.87738Z" transform="translate(-0.74854 -0.36963)"/><path class="cls-5" d="M11.158,31.00079c-0.849.28888-1.0202,2.55139,0.22144,2.53864C12.14624,33.10455,11.84442,31.28326,11.158,31.00079Z" transform="translate(-0.74854 -0.36963)"/><path class="cls-5" d="M20.431,30.44922a0.58343,0.58343,0,0,0,.77209.441,0.89657,0.89657,0,0,0-.22028-0.55157C21.00134,30.57806,20.59076,30.38812,20.431,30.44922Z" transform="translate(-0.74854 -0.36963)"/><path class="cls-5" d="M18.22333,28.24078c-0.51227.46851-.63617,2.84192,0.44116,2.76A1.89742,1.89742,0,0,0,18.22333,28.24078Z" transform="translate(-0.74854 -0.36963)"/><path class="cls-5" d="M23.41144,25.37109c-0.95514-.23395-1.4859.26361-2.20837,0.5517a1.95624,1.95624,0,0,0,.22107,1.54608c0.93286,0.32758,1.35175-.28,2.208-0.33148A2.13719,2.13719,0,0,0,23.41144,25.37109Zm-0.883.331a1.16525,1.16525,0,0,1-1.10431,1.10413A1.43686,1.43686,0,0,1,22.52844,25.70209Zm-0.55267,1.54553a0.7979,0.7979,0,0,1,.88367-0.88306C22.68622,26.79712,22.49316,27.4884,21.97577,27.24762Z" transform="translate(-0.74854 -0.36963)"/><path class="cls-5" d="M23.98889,25.15009a2.53578,2.53578,0,0,0,.52289,1.21448c0.21136-.34436.39233,0.25726,0.54919,0.33124-0.03052-.28925.0351-0.47485,0.3255-0.44183a0.84674,0.84674,0,0,0,.20856.22107c-0.02441.13867-.19678,0.22516,0.08594,0.22076,2.69684-.23083,5.91278.39716,8.78241,0,0.28448-.01123.06152-0.43054,0.34521-0.44183A2.4016,2.4016,0,0,1,35,26.47491v0.11041c1-.16772.991-0.72076,0.93878-1.43524C31.843,25.10168,27.87079,24.92084,23.98889,25.15009ZM32.02167,26.033c0.60187-.34058,1.33832.13147,2.09723,0,0.00671,0.8324-1.52844.19482-2.09723,0.22095C32.15167,26.09613,32.60718,26.04559,32.02167,26.033Zm-0.11053.11078a4.50141,4.50141,0,0,1-2.31879.22076,23.77249,23.77249,0,0,1-3.09021-.1106c-0.06879-.0979-0.13379-0.19733,0-0.22095a0.1702,0.1702,0,0,1,.11053-0.22052c0.82745,0.08063,2.149.1026,3.53253,0.11029A2.69648,2.69648,0,0,1,31.91113,26.1438Z" transform="translate(-0.74854 -0.36963)"/><path class="cls-5" d="M35.55463,24.70892a1.46616,1.46616,0,0,0-.22089-0.77289,5.08317,5.08317,0,0,1-.7735.77289h0.99438Z" transform="translate(-0.74854 -0.36963)"/><path class="cls-5" d="M34.3396,22.16986c0.79181-.019.90863,0.63684,1.215,1.10345a3.00881,3.00881,0,0,0-.111-1.32416C35.40588,22.55493,34.56909,21.71582,34.3396,22.16986Z" transform="translate(-0.74854 -0.36963)"/><path class="cls-5" d="M33.45636,21.83887a5.63572,5.63572,0,0,1,1.546-.11078,0.51674,0.51674,0,0,1,.11029-0.33087,1.42792,1.42792,0,0,1-.55243-0.22095c0.01575,0.55341-.43878-0.0069-0.55164,0,0.11523-.00787-0.49652.5564-0.44135,0.11035-0.00708-.06738-0.017-0.12988-0.1109-0.11035C33.54639,21.55835,33.25043,21.64185,33.45636,21.83887Z" transform="translate(-0.74854 -0.36963)"/><path class="cls-5" d="M24.51477,22.05951a3.5303,3.5303,0,0,1,1.76691-.33142V21.17627c-0.16571.01892-.40765-0.0401-0.44214,0.11035,0.46082,0.34888-.56879.16656-0.44092,0.1106-0.18365.08069-.13159,0.609-0.3316,0.11035-0.19739-.49445.00964,0.03741-0.10974,0.11011C24.79669,21.71332,24.03778,21.64063,24.51477,22.05951Z" transform="translate(-0.74854 -0.36963)"/><path class="cls-5" d="M31.80078,18.30609c0.18811-.52313.34222-2.81024-0.88306-2.20795C31.34821,16.69879,31.12616,17.94965,31.80078,18.30609Z" transform="translate(-0.74854 -0.36963)"/><path class="cls-5" d="M14.13849,26.6958c0.53595,0.86292.35742,2.4386,1.54584,2.649,0.131-2.08356,1.49005-4.46375,3.8634-3.97369,0.43048,0.08936.5993,0.49,1.1037,0.66193,0.4295-.71057,1.40411-0.87726,2.208-1.21368-0.02777-1.80084.16565-3.19714-.99341-3.86383a6.88028,6.88028,0,0,0-.99353-0.22089c-0.31409-.09485-0.63245-0.21869-0.994-0.33105a3.73075,3.73075,0,0,1-1.65515-.33124c-0.051-1.0274-.20709-1.853-0.22107-2.64893-1.96228-.20056-1.04633,2.63367-0.99353,3.86322a2.12776,2.12776,0,0,0,1.43488-.66211c0.32587,0.18866.94983,0.08148,0.88324,0.66211-0.01556.31592-.46045,0.20221-0.77271,0.22095-1.53973.63037-2.90625,1.435-4.52612,1.98663a24.25073,24.25073,0,0,1-.77252-5.62952,8.51463,8.51463,0,0,1-.33118-1.10352,6.79634,6.79634,0,0,1,1.76605-1.32471,4.74927,4.74927,0,0,1,2.0979-.99329,12.51194,12.51194,0,0,0,.88281,2.65c-0.07465-.91968-0.56207-2.0116-0.55225-2.64825,0.91656,0.22418.6496,1.63477,0.88342,2.5412a1.96814,1.96814,0,0,1,.88348.99786,3.11957,3.11957,0,0,0,.22046,1.66516c0.04626,0.15466-.29456.53687,0.10992,0.34961,0.239,0.40479-.04156-0.581.22186-0.51605A21.59423,21.59423,0,0,1,23.74286,21.101C23.811,22.45685,23.65515,23,23.63214,25h0.77228a1.58968,1.58968,0,0,1,.6626-2.57422,1.38373,1.38373,0,0,1-1.1037-.14551,1.22888,1.22888,0,0,1,.331-1.21454c0.8147-.04944,1.81274-0.51868,2.42847-0.11023a2.26426,2.26426,0,0,1-.11011,1.104,2.59051,2.59051,0,0,0-1.325.22076,2.51562,2.51562,0,0,1,1.325.55194,1.49715,1.49715,0,0,1-.77313,1.87671,3.55272,3.55272,0,0,0,1.10468-.221c0.01068-.173-0.015-0.38269.22046-0.3313,0.28058-1.02448-.65686-2.63684.33124-2.86993,0.53723,0.71313.15759,2.34387,0.4411,3.31183,0.65668-.16357.24213-1.013,0.22064-1.54523-0.02618-.66113-0.20154-1.52429.33142-1.87622,0.63831,0.72314.21771,2.50519,0.6626,3.42279,0.59-.77063-0.16119-2.88336.44067-3.64124,0.76154,0.67474.01758,2.85663,0.66278,3.64594,0.85175-.6712-0.49628-2.76349.442-3.52625,0.58612,0.34467.37628,1.65717,0.44153,2.66174,0.01868,0.29022-.20355,1.00983.33136,0.90845,0.42242-.86383-0.32764-2.85315.44116-3.37183,0.61487,0.34473.23407,1.54114,0.33136,2.30835A5.87369,5.87369,0,0,1,32.57391,25H33.346c-0.1062-1-.55048-0.96576-0.44092-1.636a3.03641,3.03641,0,0,1,.77252-1.19409c-0.40393.06036-.59167,0.13367-0.77252-0.2207a1.66318,1.66318,0,0,1,.33057-1.10419,6.10283,6.10283,0,0,0,1.877-.11035c-2.31281-.68353-7.05115-0.26257-9.38324-0.11011-0.39484.02539-1.12463,0.32556-1.325-.22095a11.2202,11.2202,0,0,1,2.86981-.33124c1.706-.18744,3.96918.03766,5.52008-0.33087-0.71533-.42535-1.33893-0.94153-2.09723-1.32513-0.77429.47827-2.501,0.00244-3.42285,0.33148,0.46063,0.27179,1.25366.3811,1.32574,0.88312a2.861,2.861,0,0,1-2.42883-1.2146A19.08913,19.08913,0,0,1,25.50891,13.78c0.04163-.70062,1.02295-1.1167,1.21387-1.43481-0.7583-.02234-0.59521.87646-1.43512,0.77252,0.08868-.51068,1.54291-1.85535,1.98657-0.99316,0.07172,0.1377-.55994.14795-0.10956,0.33112,0.39288-.27289,2.20447.03,1.87665-0.44147-0.39545.15448-1.35474,0.42145-1.65619,0,0.56628-.03644,1.31573-0.51227,1.65619-0.11072a3.2896,3.2896,0,0,0-.3316-1.10382c-1.7702-.03424-3.50677.25153-5.18811,0.22107-2.2746-.04236-4.63391-0.602-6.40277.66229-0.30084.43475,0.22125,1.69287-.44092,1.766-0.61963-.19-0.47815-1.14142-1.10449-1.32446-2.02319.36853-1.75745,3.02563-3.42163,3.75323,0.224-1.02679.93408-1.56879,1.32434-2.42877a16.92283,16.92283,0,0,0-3.09106,2.09747c0.23486,0.10059-.2088.44391-0.11011,0.77271-0.65192.56213-.75812,1.67-1.54541,2.09711,0.24762-1.04065,1.17523-1.98785,1.325-2.75977a3.20666,3.20666,0,0,1-.88306.773c-0.357.98047-.59106,2.22443-1.54523,2.53888A10.5293,10.5293,0,0,1,8.83966,16.761c-0.90039.6272-1.97571,1.22821-2.09711,2.5387-0.06732.7243,0.33459,1.47571,0.22089,2.42834,0.33691-.044.0282-0.69641,0.11115-1.10358A2.98307,2.98307,0,0,0,7.405,19.85168c0.61414-.40515,1.35175-0.828,2.20782-1.43536,1.02234-.72516,1.9245-2.09387,3.09082-1.21387,0.23212,2.19647.611,4.24677,0.88324,6.40228a0.75584,0.75584,0,0,0-.77271.66248c-0.41077.11572-.21674-0.3725-0.44153-0.44165a43.20959,43.20959,0,0,1-4.85693,3.31183c0.0611,0.39966-.32782.915,0,1.21387a59.82867,59.82867,0,0,1,5.29846-3.64233,1.4888,1.4888,0,0,1,.55206.33093A16.654,16.654,0,0,1,10.937,26.36456c-0.09869.06836-.2124,0.34656-0.331,0.44165C9.23865,27.90546,8.58258,29.26691,8.50909,31.663c0.73486,0.039.41272-.71851,0.55182-1.10358A3.02416,3.02416,0,0,1,11.4892,28.4621c1.1626-.02991,1.49457.95032,2.09766,1.65564,1.27161-1.05743-.29156-3.43762.111-5.18793C14.22382,25.13812,14.09674,26.00146,14.13849,26.6958Zm7.83728-4.74664a2.97083,2.97083,0,0,1-1.76569,2.31805A26.0001,26.0001,0,0,1,21.97577,21.94916Zm-0.88245-.33148c0.14325-.14331.07922-0.50745,0.44116-0.33105-0.26917.48059-.57593,0.97137-0.88306,1.43494a1.85883,1.85883,0,0,1-1.1037,1.104A7.17557,7.17557,0,0,1,21.09332,21.61768Zm-0.77271-.11011a0.1695,0.1695,0,0,1,.22046.11011c-0.36566.62817-.42834,1.5589-1.325,1.65564A11.8499,11.8499,0,0,1,20.32062,21.50757ZM18.11261,22a11.35453,11.35453,0,0,1,.44153,2.75934C17.9093,24.23181,18.10864,23,17.78125,22h0.33136Zm-1.545,3.8125a1.99464,1.99464,0,0,1-1.10449,1.21466,4.319,4.319,0,0,1,.88324-1.43549c0.28589-.43689.40607-1.17987,1.10474-1.21405A7.39125,7.39125,0,0,1,16.56757,25.8125ZM17.11884,23.715a7.2961,7.2961,0,0,1-.99359,1.65613c-0.33215.456-.70966,1.13684-1.21442,1.10394,0.53668-1.08295,1.39471-1.84357,1.98737-2.8703A0.17047,0.17047,0,0,1,17.11884,23.715Zm-2.53857-.11023c0.3432-.11487,1.25421-0.86523,1.32477-0.22058a1.44975,1.44975,0,0,0-.9942.44141c0.26794,0.25934.635-.31647,1.10352-0.22083-0.04138.65668-.622,0.77606-1.324,0.77289A0.76654,0.76654,0,0,1,14.58026,23.60474ZM24.84637,13.00781c-0.017.12915-.201,0.09241-0.3316,0.10992a1.43,1.43,0,0,1,.4425.44165,26.41453,26.41453,0,0,1,.44135,3.31171c0.06226,1.02252.37927,1.62915-.111,2.20789a34.21765,34.21765,0,0,1-5.73993.33087,20.75529,20.75529,0,0,1-.99359-6.62317c1.40826-.28363,3.4455.05969,4.8573-0.2207-1.01617-.27722-2.63177-0.00769-3.97345-0.11029-0.35956-.02759-0.90668.09149-0.99438-0.33112C20.85809,12.33893,23.90912,11.50958,24.84637,13.00781ZM13.80713,14.55322c0.24469-.42731.34222-1.24133,0.99414-1.21478a5.898,5.898,0,0,1-1.65692,2.53937A2.31343,2.31343,0,0,1,13.80713,14.55322ZM10.606,28.35126c0.33356-.69714.52014-1.54065,1.325-1.76593C11.43445,27.11945,11.44781,28.16278,10.606,28.35126Zm0.663-.11047a2.57,2.57,0,0,1,1.32458-1.65546C12.14783,27.134,12.03827,28.01721,11.26892,28.24078Z" transform="translate(-0.74854 -0.36963)"/><path class="cls-5" d="M13.47614,33.87073c-0.02637.19476-.18994,0.252-0.44153,0.22076-0.13672.35779,0.35779,0.08423,0.22089,0.442-0.44861.15259-.743,0.3576-0.55188,0.88293a1.17841,1.17841,0,0,0-.99377.66229c0.674,0.12164.71124-.39288,1.21448-0.44122-0.2063-.3844.13135-0.51019,0.44189-0.66248C13.08978,34.62817,13.6452,34.05725,13.47614,33.87073Z" transform="translate(-0.74854 -0.36963)"/><path class="cls-5" d="M18.22333,33.87073c0.10364-.20154.5564,0.17017,0.88287,0.11035-0.03333-.4812.843,0.0257,0.44153-0.55194C19.1781,33.72644,18.03833,33.44489,18.22333,33.87073Z" transform="translate(-0.74854 -0.36963)"/><path class="cls-5" d="M20.8725,31.11121c-0.15466.32092-.381-0.19556-0.66241-0.11041-0.1582.48907,0.37317,0.28888,0.331,0.66223a0.60106,0.60106,0,0,0-.55164.33142,0.30558,0.30558,0,0,1,.33118.22095,0.72086,0.72086,0,0,1-.55267.11023c-0.11719.41254,0.27448,0.31445,0.2215,0.66217a0.71435,0.71435,0,0,1-.55145-0.11041,1.90982,1.90982,0,0,0,.10974.55176c0.7-.02521.31464-0.20844,0.99335-0.44135a0.30072,0.30072,0,0,1-.22046-0.33105c0.68365-.09509.06915-0.83746,0.66217-1.21436C20.59229,31.43036,21.21667,31.077,20.8725,31.11121Z" transform="translate(-0.74854 -0.36963)"/><path class="cls-5" d="M25.067,24.26721c1.44183,0.24707,1.00049-1.5553.22064-1.54565a0.61792,0.61792,0,0,0-.55164.6626c0.45728-.36646-0.06738.85,0.11035,0.44141,0.06738-.032.42517-0.2746,0.44128,0C25.36829,24.12714,25.06818,24.04712,25.067,24.26721Z" transform="translate(-0.74854 -0.36963)"/><path class="cls-5" d="M34.3396,23.4942a1.73767,1.73767,0,0,1-.44135.66235,0.71673,0.71673,0,0,0,.55206.11066c0.10876-.36884.35089-0.60577,0.44153-0.9939a3.74072,3.74072,0,0,1-.55225-0.77222c-0.29474.043-.79321,0.449-0.5517,0.662C34.16187,23.05713,33.76093,23.58856,34.3396,23.4942Z" transform="translate(-0.74854 -0.36963)"/><path class="cls-5" d="M7.84668,26.58533c-0.41589-1.42407-.34576-3.33368-0.77209-4.74646,0.13574,1.454.24884,2.94934,0.4411,4.08392C7.54407,26.09277,7.54742,26.57867,7.84668,26.58533Z" transform="translate(-0.74854 -0.36963)"/><path class="cls-5" d="M33.49316,29.60254c-0.155.32111-.381-0.19574-0.66217-0.11072-0.14691.45435,0.29529,0.31995,0.32593,0.59662a0.21086,0.21086,0,0,1-.05853.08386,0.80515,0.80515,0,0,0-.32086.12512c-0.02173-.00134-0.0332.00769-0.05646,0.00482a0.29681,0.29681,0,0,0-.01794.07855,0.35967,0.35967,0,0,0-.0932.10437,0.30567,0.30567,0,0,1,.33124.22107,0.71281,0.71281,0,0,1-.55151.11,0.30173,0.30173,0,0,0,.02051.26788,0.52645,0.52645,0,0,0-.04669.3894,0.65573,0.65573,0,0,1-.30518-0.10522,0.30948,0.30948,0,0,0,.05267.31866,1.12018,1.12018,0,0,0-.57477.39142c-0.407.0274-.80719,0.01782-0.69257,0.28339,0.10406-.20184.55664,0.17017,0.88385,0.11084-0.031-.44855.71387-0.05078,0.493-0.45947a0.88378,0.88378,0,0,1,.19989-0.11743,0.62011,0.62011,0,0,0,.12756-0.03418,0.59951,0.59951,0,0,1,.062-0.01385c-0.003-.00562-0.00079-0.00879-0.0036-0.01428a1.2044,1.2044,0,0,1,.55548-0.35431,0.293,0.293,0,0,1-.19946-0.24951c0.03027-.01465.059-0.02948,0.08929-0.04437a0.32123,0.32123,0,0,1-.03058-0.06311c0.533-.14886.01929-0.83136,0.582-1.1886C33.213,29.9212,33.83679,29.56836,33.49316,29.60254Z" transform="translate(-0.74854 -0.36963)"/><path class="cls-5" d="M23.88922,31.73718c-0.02618.19409-.1897,0.25183-0.4411,0.22083-0.137.35736,0.35736,0.084,0.22064,0.44153-0.45.15228-.74274,0.35754-0.55206,0.88269a1.17968,1.17968,0,0,0-.99353.66278c0.67279,0.12158.71045-.39282,1.21405-0.44171-0.20612-.38379.13135-0.50989,0.44226-0.66217C23.50305,32.4942,24.0575,31.92358,23.88922,31.73718Z" transform="translate(-0.74854 -0.36963)"/><path class="cls-6" d="M10.606,28.35126c0.84186-.18848.82849-1.23181,1.325-1.76593C11.1261,26.81061,10.93951,27.65411,10.606,28.35126Z" transform="translate(-0.74854 -0.36963)"/><path class="cls-6" d="M11.26892,28.24078c0.76935-.22357.87891-1.10675,1.32458-1.65546A2.57,2.57,0,0,0,11.26892,28.24078Z" transform="translate(-0.74854 -0.36963)"/><path class="cls-6" d="M16.34631,25.59167a4.319,4.319,0,0,0-.88324,1.43549,1.99464,1.99464,0,0,0,1.10449-1.21466,7.39125,7.39125,0,0,0,.88348-1.43488C16.75238,24.4118,16.6322,25.15479,16.34631,25.59167Z" transform="translate(-0.74854 -0.36963)"/><path class="cls-6" d="M16.12524,25.37109a7.2961,7.2961,0,0,0,.99359-1.65613,0.17047,0.17047,0,0,0-.22064-0.11023c-0.59265,1.02673-1.45068,1.78735-1.98737,2.8703C15.41559,26.50793,15.79309,25.82709,16.12524,25.37109Z" transform="translate(-0.74854 -0.36963)"/><path class="cls-6" d="M16.01434,23.60474c-0.46851-.09564-0.83557.48016-1.10352,0.22083a1.44975,1.44975,0,0,1,.9942-0.44141c-0.07056-.64465-0.98157.10571-1.32477,0.22058a0.76654,0.76654,0,0,0,.11011.77289C15.39233,24.3808,15.973,24.26141,16.01434,23.60474Z" transform="translate(-0.74854 -0.36963)"/><path class="cls-6" d="M18.11261,22H17.78125c0.32739,1,.12805,2.23181.77289,2.75934A11.35453,11.35453,0,0,0,18.11261,22Z" transform="translate(-0.74854 -0.36963)"/><path class="cls-6" d="M21.97577,21.94916a26.0001,26.0001,0,0,0-1.76569,2.31805A2.97083,2.97083,0,0,0,21.97577,21.94916Z" transform="translate(-0.74854 -0.36963)"/><path class="cls-6" d="M20.54108,21.61768a0.1695,0.1695,0,0,0-.22046-0.11011,11.8499,11.8499,0,0,0-1.10449,1.76575C20.11273,23.17657,20.17542,22.24585,20.54108,21.61768Z" transform="translate(-0.74854 -0.36963)"/><path class="cls-6" d="M20.65143,22.72156c0.30713-.46356.61389-0.95435,0.88306-1.43494-0.36194-.17639-0.29791.18774-0.44116,0.33105a7.17557,7.17557,0,0,0-1.54559,2.20789A1.85883,1.85883,0,0,0,20.65143,22.72156Z" transform="translate(-0.74854 -0.36963)"/><path class="cls-6" d="M14.80127,13.33844c-0.65192-.02655-0.74945.78748-0.99414,1.21478a2.31343,2.31343,0,0,0-.66278,1.32458A5.898,5.898,0,0,0,14.80127,13.33844Z" transform="translate(-0.74854 -0.36963)"/><path class="cls-4" d="M19.438,12.45569c1.34167,0.1026,2.95728-.16693,3.97345.11029-1.4118.2804-3.449-.06293-4.8573,0.2207a20.75529,20.75529,0,0,0,.99359,6.62317,34.21765,34.21765,0,0,0,5.73993-.33087c0.49023-.57874.17322-1.18536,0.111-2.20789a26.41453,26.41453,0,0,0-.44135-3.31171,1.43,1.43,0,0,0-.4425-0.44165c0.13062-.01752.31464,0.01923,0.3316-0.10992-0.93726-1.49823-3.98828-.66888-6.40277-0.88324C18.53131,12.54718,19.07843,12.4281,19.438,12.45569Z" transform="translate(-0.74854 -0.36963)"/><path class="cls-6" d="M21.97577,27.24762c0.5174,0.24078.71045-.4505,0.88367-0.88306A0.7979,0.7979,0,0,0,21.97577,27.24762Z" transform="translate(-0.74854 -0.36963)"/><path class="cls-6" d="M34.1189,26.033c-0.75891.13147-1.49536-.34058-2.09723,0,0.58551,0.01257.13,0.06311,0,.22095C32.59045,26.22784,34.12561,26.86542,34.1189,26.033Z" transform="translate(-0.74854 -0.36963)"/><path class="cls-6" d="M26.50214,26.033c-0.13379.02362-.06879,0.123,0,0.22095a23.77249,23.77249,0,0,0,3.09021.1106,4.50141,4.50141,0,0,0,2.31879-.22076,2.69648,2.69648,0,0,0-1.76593-.221c-1.38348-.00769-2.70508-0.02966-3.53253-0.11029A0.1702,0.1702,0,0,0,26.50214,26.033Z" transform="translate(-0.74854 -0.36963)"/><path class="cls-6" d="M22.52844,25.70209a1.43686,1.43686,0,0,0-1.10431,1.10413A1.16525,1.16525,0,0,0,22.52844,25.70209Z" transform="translate(-0.74854 -0.36963)"/></svg>