<svg id="Layer_1" data-name="Layer 1" xmlns="http://www.w3.org/2000/svg" viewBox="0 0 20 20"><defs><style>.cls-1{fill:#b6d3d8;}</style></defs><title>instagram</title><path class="cls-1" d="M16.16779,1.24005H3.56366A2.42387,2.42387,0,0,0,1.13977,3.66388V16.268a2.42388,2.42388,0,0,0,2.42389,2.42389H16.16779A2.42383,2.42383,0,0,0,18.59161,16.268V3.66388A2.42381,2.42381,0,0,0,16.16779,1.24005ZM9.86572,6.57257A3.3934,3.3934,0,1,1,6.47229,9.96594,3.39341,3.39341,0,0,1,9.86572,6.57257Zm6.7868,9.69543a0.48477,0.48477,0,0,1-.48474.4848H3.56366a0.48479,0.48479,0,0,1-.4848-0.4848V8.51166H4.7594a5.27512,5.27512,0,0,0-.2262,1.45428,5.33252,5.33252,0,0,0,10.665,0,5.27512,5.27512,0,0,0-.2262-1.45428h1.68048V16.268Zm0-10.18024a0.48477,0.48477,0,0,1-.48474.4848H13.7439a0.48477,0.48477,0,0,1-.48474-0.4848V3.66388a0.48476,0.48476,0,0,1,.48474-0.48474h2.42389a0.48476,0.48476,0,0,1,.48474.48474V6.08777Z"/></svg>