<svg id="Layer_1" data-name="Layer 1" xmlns="http://www.w3.org/2000/svg" viewBox="0 0 20 20"><defs><style>.cls-1{fill:#b6d3d8;}</style></defs><title>twitter</title><path class="cls-1" d="M19.4226,4.1554a7.7289,7.7289,0,0,1-2.22062.6088,3.87753,3.87753,0,0,0,1.7-2.139,7.74094,7.74094,0,0,1-2.45515.93826A3.87,3.87,0,0,0,9.8584,7.08977,10.97639,10.97639,0,0,1,1.88932,3.05013,3.87059,3.87059,0,0,0,3.08586,8.212a3.85059,3.85059,0,0,1-1.75123-.4836L1.3343,7.777a3.86865,3.86865,0,0,0,3.10145,3.79115,3.876,3.876,0,0,1-1.746.06624,3.87032,3.87032,0,0,0,3.61172,2.6851,7.75773,7.75773,0,0,1-4.80173,1.655,7.87024,7.87024,0,0,1-.9223-0.054,10.94359,10.94359,0,0,0,5.92671,1.737A10.92543,10.92543,0,0,0,17.50457,6.657q0-.25143-0.01117-0.50016A7.85768,7.85768,0,0,0,19.4226,4.1554Z"/></svg>