<svg id="Layer_1" data-name="Layer 1" xmlns="http://www.w3.org/2000/svg" viewBox="0 0 509.70001 172.5"><defs><style>.cls-1{fill:#ebbb54;}.cls-2{fill:#51b5e6;}.cls-3{fill:#d26527;}.cls-4{fill:#d07828;}.cls-5{fill:#cf7928;}.cls-6{fill:#d35128;}.cls-7{fill:#8f3d2e;}.cls-8{fill:#018cad;}.cls-9{fill:#d3ecec;}.cls-10{fill:#c5e2e7;}</style></defs><title>WTT-Logo-dusk</title><path class="cls-1" d="M431.96619,16.03821a71.1084,71.1084,0,0,0-68.6268,52.53071H500.5922A71.10667,71.10667,0,0,0,431.96619,16.03821Z"/><path class="cls-1" d="M500.03792,107.64275H363.89356a70.3966,70.3966,0,0,0,2.95343,8.00685H497.0863A70.34911,70.34911,0,0,0,500.03792,107.64275Z"/><path class="cls-1" d="M501.22072,71.101H362.71257a70.95568,70.95568,0,0,0-1.7476,12.49456H502.9666A71.03943,71.03943,0,0,0,501.22072,71.101Z"/><path class="cls-1" d="M491.26882,126.323H372.66275q1.83,2.76228,3.90606,5.33763h110.794Q489.43573,129.08578,491.26882,126.323Z"/><path class="cls-1" d="M503.03215,88.1H360.89943a71.46609,71.46609,0,0,0,1.09514,11.53759H501.93782A71.55841,71.55841,0,0,0,503.03215,88.1Z"/><path class="cls-1" d="M418.97492,157.012a70.58986,70.58986,0,0,0,25.98346,0H418.97492Z"/><path class="cls-2" d="M487.36277,131.66067h-110.794A71.032,71.032,0,0,0,418.97492,157.012h25.98346A71.02776,71.02776,0,0,0,487.36277,131.66067Z"/><path class="cls-2" d="M497.0863,115.6496H366.847a70.858,70.858,0,0,0,5.81575,10.67344H491.26882A70.9479,70.9479,0,0,0,497.0863,115.6496Z"/><path class="cls-2" d="M501.93782,99.63762H361.99457a70.84686,70.84686,0,0,0,1.899,8.00513H500.03792A70.63477,70.63477,0,0,0,501.93782,99.63762Z"/><path class="cls-2" d="M503.0569,87.12883q0-1.77543-.09029-3.53328H360.965c-0.05666,1.1722-.08948,2.34965-0.08948,3.53328,0,0.32582.01949,0.6463,0.02393,0.97121H503.03215C503.03741,87.77512,503.0569,87.45465,503.0569,87.12883Z"/><path class="cls-2" d="M500.5922,68.56893H363.33939c-0.22664.83659-.43118,1.68215-0.62682,2.53206H501.22072C501.0242,70.25107,500.81884,69.40551,500.5922,68.56893Z"/><path class="cls-1" d="M431.66875,15.74249A71.10648,71.10648,0,0,0,363.04284,68.2723H500.29557A71.10683,71.10683,0,0,0,431.66875,15.74249Z"/><path class="cls-1" d="M499.74049,107.347H363.59612a70.689,70.689,0,0,0,2.95254,8.006h130.2401A70.50058,70.50058,0,0,0,499.74049,107.347Z"/><path class="cls-1" d="M500.92328,70.80435H362.41594a70.96539,70.96539,0,0,0-1.74851,12.49547H502.67006A70.96054,70.96054,0,0,0,500.92328,70.80435Z"/><path class="cls-1" d="M490.97219,126.02741H372.36614q1.82994,2.76215,3.906,5.33672h110.794Q489.13655,128.79046,490.97219,126.02741Z"/><path class="cls-1" d="M502.73552,87.8035H360.602a71.53027,71.53027,0,0,0,1.096,11.5375H501.63947A71.33392,71.33392,0,0,0,502.73552,87.8035Z"/><path class="cls-1" d="M418.67749,156.71625a70.58927,70.58927,0,0,0,25.98335,0H418.67749Z"/><path class="cls-3" d="M487.06613,131.36413h-110.794a71.02987,71.02987,0,0,0,42.40531,25.35212h25.98335A71.02693,71.02693,0,0,0,487.06613,131.36413Z"/><path class="cls-3" d="M496.78876,115.35306H366.54866a71.00727,71.00727,0,0,0,5.81748,10.67435H490.97219A70.91649,70.91649,0,0,0,496.78876,115.35306Z"/><path class="cls-3" d="M501.63947,99.341H361.698a70.66809,70.66809,0,0,0,1.89809,8.006H499.74049A70.47719,70.47719,0,0,0,501.63947,99.341Z"/><path class="cls-3" d="M502.76036,86.83229c0-1.18453-.03282-2.36117-0.09029-3.53246H360.66743c-0.05748,1.17129-.08939,2.34793-0.08939,3.53246,0,0.32664.01949,0.6472,0.02393,0.97121H502.73552C502.74087,87.47949,502.76036,87.15892,502.76036,86.83229Z"/><path class="cls-3" d="M500.29557,68.2723H363.04284c-0.22664.83758-.43207,1.68215-0.6269,2.53206H500.92328C500.72764,69.95444,500.52221,69.10988,500.29557,68.2723Z"/><path class="cls-4" d="M430.53147,161.238a74.30007,74.30007,0,1,1,74.4-74.3A74.34454,74.34454,0,0,1,430.53147,161.238Zm0-141.3a67,67,0,1,0,67,67A67.06806,67.06806,0,0,0,430.53147,19.938Z"/><path class="cls-5" d="M371.03147,122.238c0,3.3-.5,6.1-2,6.1a2.83593,2.83593,0,0,1-2-1.2A31.6752,31.6752,0,0,0,371.03147,122.238Z"/><path class="cls-5" d="M369.03147,128.338l0.5,2c-22.1,5.4-46.5-1.1-71.3,1.2-8.7.8-97.9,18.2-96.5,23.8-2.1-8.4,7.7-13.7,7.4-20.5-0.2-3.9-11.7-21.3-12.2-21,3.6-9.9,27.1-11.5,35.9-13.1a326.25585,326.25585,0,0,1,83.7-4.8c1.5,0.1,4.3.3,8,.7,1,0.2,2.1.3,3.1,0.5,10.4,1.7,35.4,3.6,41.6,14.7,0.9,1.6,1.7,6.5,1.7,10.5a31.67406,31.67406,0,0,1-4,4.9A3.88567,3.88567,0,0,0,369.03147,128.338Z"/><path class="cls-5" d="M324.53147,96.538c18.5,1.8,57.7,7.7,46.5,25.6,0-4-.8-8.8-1.7-10.5-6.2-11.1-31.2-13-41.6-14.7A16.475,16.475,0,0,1,324.53147,96.538Z"/><path class="cls-5" d="M72.53147,129.038c1.4-1.6,2.8-2.7,4.3-2.5C75.33147,127.338,73.83147,128.238,72.53147,129.038Z"/><path class="cls-5" d="M72.53147,129.038c-4.6,5.5-8.5,18.2-14.3,16.5C57.83146,140.138,63.83146,134.438,72.53147,129.038Z"/><path class="cls-5" d="M64.53147,167.938a25.39018,25.39018,0,0,1-6.1-.7c-23-5.4-42-40.7-47.6-57-8.9-25.6-7.8-46.7,3.3-63,24.7-36.4,93.7-39.5,139.3-41.5,47.1-2.1,92.4-1.4,134.7,2.2,5.1,0.4,121.2,10.4,141.7,39.9,20.7,24.9-17,57.8-32.2,72a59.90746,59.90746,0,0,1-27.3,14.8c-13.2,3.3-26.7,2.4-41,1.6-10.1-.6-20.6-1.3-30.9-0.3a4.37321,4.37321,0,0,1-.9-8.7c11-1,21.8-.4,32.3.2,13.6,0.8,26.4,1.6,38.4-1.3a51.6544,51.6544,0,0,0,23.4-12.7c7.6-7.1,19-21.3,26.2-35.9,5.8-11.7,10.8-17.9,2.6-27.8-14.8-18-78-30.5-112-32-8.4-.4-15.6-0.7-20.9-1.1a1067.51091,1067.51091,0,0,0-133.6-2.2c-43.9,2-110.3,4.9-132.6,37.7-9.4,13.8-10.1,32.4-2.3,55.2,5.5,15.8,23.2,47.1,41.4,51.4,6.4,1.5,12.4-.5,18.3-6.3,2.6-2.6,4.1-11.2,2-17.1-1.5-4.2-3.6-4.4-4.4-4.4a4.31386,4.31386,0,0,1-3.9-4.8,4.38257,4.38257,0,0,1,4.8-3.9c5.4,0.5,9.6,4.2,11.7,10.2,3.1,8.8,1.2,21.1-4.1,26.3C78.53147,164.838,71.73146,167.938,64.53147,167.938Z"/><path class="cls-5" d="M72.53147,133.438a4.19176,4.19176,0,0,1-2.8-1,4.30916,4.30916,0,0,1-.6-6.1c2.5-3,5.2-4.3,8.1-4.1a4.31387,4.31387,0,0,1,3.9,4.8,4.25752,4.25752,0,0,1-4.3,3.9h0a3.60988,3.60988,0,0,0-.9.9A4.74788,4.74788,0,0,1,72.53147,133.438Z"/><path class="cls-5" d="M59.33146,150.138a9.69272,9.69272,0,0,1-2.3-.3,4.367,4.367,0,0,1-3.2-3.9c-0.4-6.8,4.9-13.5,16.3-20.5a4.41977,4.41977,0,0,1,5.6.8,4.5167,4.5167,0,0,1,.1,5.7,50.6865,50.6865,0,0,0-3.8,6.1C68.93147,143.438,65.23146,150.138,59.33146,150.138Z"/><path class="cls-5" d="M72.53147,133.438a4.15225,4.15225,0,0,1-3.7-2.1,4.36316,4.36316,0,0,1,1.4-6,48.25734,48.25734,0,0,1,4.5-2.6,4.34166,4.34166,0,0,1,4.2,7.6c-1.4.8-2.8,1.6-4.1,2.4A4.34974,4.34974,0,0,1,72.53147,133.438Z"/><path class="cls-5" d="M76.83147,130.938a4.4,4.4,0,1,1,0-8.8h0a4.43906,4.43906,0,0,1,4.4,4.4A4.50651,4.50651,0,0,1,76.83147,130.938Z"/><path class="cls-5" d="M369.03147,132.738h-0.6a7.66974,7.66974,0,0,1-4.8-2.8,4.30334,4.30334,0,0,1,.4-5.8,20.018,20.018,0,0,0,2.7-3.1,26.48037,26.48037,0,0,0-1.2-7.1c-4.3-7.7-23.3-10.3-33.4-11.7-1.9-.3-3.6-0.5-5.1-0.7-1-.2-1.9-0.3-2.9-0.5-3.5-.3-6.2-0.5-7.7-0.7h-0.1a322.17923,322.17923,0,0,0-82.6,4.7c-1.6.3-3.4,0.6-5.6,0.9-8.1,1.2-24.8,3.7-27,9.5a4.36578,4.36578,0,0,1-8.2-3c3.9-10.6,21.9-13.3,33.9-15.1,2.1-.3,3.9-0.6,5.3-0.8,3.6-.7,7.1-1.3,10.7-1.8-6.4.1-12.8,0.3-19.1,0.8-25,1.6-57.7,4.6-88.3,13.1-9.3,2.6-37.7,11.6-56.4,21.9a4.34166,4.34166,0,1,1-4.2-7.6c19.4-10.7,48.6-20,58.3-22.7,31.4-8.7,64.6-11.7,90.1-13.4,31.9-2.1,65.3-.2,102.1,5.6,29.2,2.9,46.4,9.1,51,18.4,1.4,2.8,2.3,7.2-.7,12.8-0.1,3.6-.9,6.1-2.4,7.6A7.96165,7.96165,0,0,1,369.03147,132.738Z"/><path class="cls-5" d="M201.73146,159.638a4.27341,4.27341,0,0,1-4.2-3.3h0c-1.6-6.5,1.7-11.5,4.4-15.4,1.5-2.2,2.9-4.3,2.9-5.8-0.2-.8-1.4-3.7-4.9-9.4a95.6954,95.6954,0,0,0-5.6-8.4,4.56066,4.56066,0,0,1-1.7-3.5,4.21842,4.21842,0,0,1,1.8-3.5h0c0.1,0,.1-0.1.2-0.1a4.81468,4.81468,0,0,1,2.4-.7h0a4.33327,4.33327,0,0,1,1.9.4c0.9,0.4,2.1,1,8.2,10.9,6.2,10.2,6.4,12.7,6.4,13.8,0.2,4.5-2.2,8-4.3,11.2-0.2.3-.5,0.7-0.7,1,6.8-2.3,18.6-5.5,39.2-10,22.9-5,45.9-9.3,50.2-9.7a4.37321,4.37321,0,0,1,.9,8.7c-3.9.4-25.5,4.4-47.4,9.1-35.1,7.6-43.7,11.3-45.6,12.3a4.41511,4.41511,0,0,1-2.8,2.2A3.994,3.994,0,0,1,201.73146,159.638Z"/><path class="cls-6" d="M330.13147,97.438c-0.6-.1-1.4-0.2-2.5-0.4-34.4-5.7-69.5-8.4-104.3-6.1-29.8,1.9-60.4,5.2-89.2,13.2-12.5,3.5-73.3,20.2-75.2,42.7,7.5,2.1,6.8-11.1,13.5-10.4,11.5,1.1,14.6,11.6,8.3,17.7-29.1,28.4-58.8-25.3-65.8-45.5-31.4-90.7,75-95.7,138.7-98.5a1036.24875,1036.24875,0,0,1,134.2,2.2c28.5,2.4,116.7,13.5,136.4,37.2,17.8,21.4-14,52.6-29.5,67.1-27.8,25.9-61.9,11.7-96.6,15-8.7.8-97.9,18.2-96.5,23.8-2.1-8.4,7.7-13.7,7.4-20.5-0.2-3.9-11.7-21.3-12.2-21,3.6-9.9,27.1-11.5,35.9-13.1a326.25585,326.25585,0,0,1,83.7-4.8C321.53147,96.238,327.43146,97.138,330.13147,97.438Zm1.5,0.3h0Zm-0.6-.1a0.75587,0.75587,0,0,1-.4-0.1A0.75587,0.75587,0,0,0,331.03147,97.638Z"/><path class="cls-6" d="M331.03147,97.638a0.60122,0.60122,0,0,1-.4-0.1A0.75587,0.75587,0,0,0,331.03147,97.638Z"/><path class="cls-7" d="M54.73147,146.138c-15.3,23,24.1,18.4,28.8,4.9,3.6-10.4-.5-15.1-3.9-26.1C62.63146,134.038,54.73147,146.138,54.73147,146.138Z"/><path class="cls-7" d="M366.93146,127.138a92.36858,92.36858,0,0,0-11.6-1.6c-0.6-.1-11.2-1.6-12.7-2.2-10.6-4.4-29.3-16.2-67-25.7l-6.4-1.8,7-.5,8.5-.3s37.6-2.7,72.8,6.6c6.8,1.8,23.1,12.4,13.9,23.1C370.53147,125.938,369.93146,126.638,366.93146,127.138Z"/><path class="cls-8" d="M396.63147,146.238c-6.8,0-10.3-3.5-12.5-7.4a6.16462,6.16462,0,0,1-3.4-.6l-1.1-.5-0.6-1a16.7516,16.7516,0,0,1-2-9,4.20913,4.20913,0,0,1,1.9-3.6,59.68428,59.68428,0,0,1-.9-6.1,4.89949,4.89949,0,0,1-2.5-3.5,11.42472,11.42472,0,0,1,.5-7.2,169.03085,169.03085,0,0,1-2.9-19.3c-0.4-3.4-.8-7-1.2-10.4l-0.3-1.8,1.3-1.3c6.2-6.2,14.9-12,23.2-17.6,3.3-2.2,6.7-4.5,9.9-6.7,0.5-.4,1-0.7,1.4-1,3.1-2.3,5.8-4.3,12.8-4.8,5.6-.4,13.8-0.4,21-0.4h11.4c2.2-.1,8.2-0.2,10.8,4.7a16.60327,16.60327,0,0,1,1.5,6.2,16.4505,16.4505,0,0,0,.5,3.2,26.70683,26.70683,0,0,0,1.3,4c0.2,0.6.5,1.2,0.7,1.8a8.48329,8.48329,0,0,1,5.9,4.3l0.6,1-0.1,1.1c-0.1.8-.2,1.5-0.3,2.3a16.36107,16.36107,0,0,0-.3,3.5c0.2,0.7,3.2,2,4.6,2.6,3.2,1.4,6.9,3,8.7,6.3l0.3,0.6,0.1,0.7a40.27259,40.27259,0,0,1-.1,7c-0.1,1.3-.2,2.6-0.2,3.7a4.18809,4.18809,0,0,1,2.6,2.2,9.70277,9.70277,0,0,1,1,7.3,8.31617,8.31617,0,0,0-.2,1.3l0.1,1.2-0.6,1.1c-2.1,3.4-6.1,5.5-9.9,6.4-0.4,4.9-2.3,10.8-6.7,14.4-2.5,2.1-6.9,4.2-13.3,2.7a3.58981,3.58981,0,0,1-2.2-1.6,9.65835,9.65835,0,0,1-3.7-3.8,24.9139,24.9139,0,0,1-2.1-4.7c-1.7.3-3.4,0.6-5,.9-0.6.1-1.1,0.2-1.7,0.3-0.1,5-2.3,9.5-6.1,11.9a11.89486,11.89486,0,0,1-11.7.5,14.20289,14.20289,0,0,1-9.1,1,12.33462,12.33462,0,0,1-6.6-3.9,19.26746,19.26746,0,0,1-2.4-.1h-0.8c-1.1,4.6-3.1,9.4-7.8,11.6l-0.39993.2-0.6.1C398.43146,146.138,397.53147,146.238,396.63147,146.238Zm-10.6-15.1a5.547,5.547,0,0,1,1.7.3l1.3,0.6,0.6,1.3c1.8,4,3.5,5.9,8.3,5.5,2.4-1.5,3.3-5.8,3.9-9l0.5-2.9,3-.1c1.7-.1,3,0,4.2,0a20.41714,20.41714,0,0,0,3.5,0l2.4-.3,1.2,2.1a5.00762,5.00762,0,0,0,3.2,2.3,6.82224,6.82224,0,0,0,5.4-1.1l2.1-1.5,2.1,1.5c2,1.4,4,1.6,5.7.5,2.2-1.4,3.2-4.6,2.6-8.1l-0.7-3.6,3.6-.7,5.1-.9c2.7-.4,5.4-0.9,7.9-1.5l3.3-.7,1.1,3.7a24.17589,24.17589,0,0,0,2.3,5.9l0.2,0.3a1.81764,1.81764,0,0,0,1.1,1l0.4,0.2a3.13408,3.13408,0,0,1,1.1.8,6.5876,6.5876,0,0,0,5.5-1.5c3.1-2.6,4.3-7.8,4.1-11.8l-0.2-3.7,3.7-.1a11.0991,11.0991,0,0,0,6.9-2.8c0.1-.7.2-1.3,0.3-1.9a10.50312,10.50312,0,0,0,.2-1.3,5.43075,5.43075,0,0,1-2.8-1.6l-0.6-.7-0.2-.9a33.22473,33.22473,0,0,1-.2-7.7c0.1-1.6.2-3.3,0.2-4.9-0.9-.9-3.1-1.8-4.7-2.5-3.5-1.5-7.5-3.2-8.7-7.2-0.6-2-.3-4.3,0-6.6a0.90146,0.90146,0,0,1,.1-0.5,4.31076,4.31076,0,0,0-2-.3l-2.9-.2-0.5-2.8c-0.2-.9-0.6-1.9-1-3.1a28.85265,28.85265,0,0,1-1.7-5.2c-0.3-1.4-.4-2.7-0.6-3.8a11.80393,11.80393,0,0,0-.7-3.5c-0.4-.7-1.8-1-4.3-0.9-3.2.1-7.3,0.1-11.6,0.1-7.1,0-15.1-.1-20.5.3-4.9.4-6.2,1.4-9,3.4-0.5.4-1,.7-1.5,1.1-3.2,2.3-6.7,4.6-10.1,6.8-7.5,5-15.2,10.1-20.9,15.4,0.4,2.9.7,5.9,1,8.8a145.32408,145.32408,0,0,0,3,19.7l0.4,1.7-1,1.4a2.63621,2.63621,0,0,0-.3,2,4.623,4.623,0,0,1,2.1,1.9l0.4,0.7,0.1,0.8a75.14685,75.14685,0,0,0,1.5,9.5l0.1,0.5v0.5a4.06667,4.06667,0,0,1-2.4,3.7,8.4704,8.4704,0,0,0,.4,1.7C385.03147,131.238,385.53147,131.138,386.03147,131.138Zm75.5-4.6h0Z"/><path class="cls-8" d="M464.43146,66.538c2.5,0.1,4.4.6,5.6,2.8-0.2,2.6-.9,5.5-0.4,7.2,1.4,4.6,11.3,5.1,13.7,9.7,0.5,4.8-.8,9.4,0,13.3,0.6,0.7,2.4.3,2.8,1.2,1.9,3.1.1,4.8,0.4,7.2-1.9,3.2-6.8,5.1-10.5,5.2,0.4,8.5-4.3,19.7-15.7,16.9a2.00993,2.00993,0,0,1-.4-0.8,5.54954,5.54954,0,0,1-3.2-2.8,30.03931,30.03931,0,0,1-2.8-7.2c-4.3,1-8.9,1.6-13.3,2.4,1.9,10.2-6.7,16.6-14.1,11.3-4.7,3.3-11.5,2.3-14.1-2.4-2.6.3-4.7-.1-8.1,0-0.7,4.4-2.1,10.1-6.4,12.1-7.9,1-10.8-2.9-12.9-7.6-0.7-.3-2.2.8-4,0a12.93371,12.93371,0,0,1-1.6-7.2c0-1.5,2.4-.6,2.4-2a68.51449,68.51449,0,0,1-1.6-10.1c-0.6-.9-2.2-0.7-2.4-2-0.5-2.4-.4-4.4.8-6-2.4-9.4-2.9-20.7-4.4-31,8.5-8.5,21.9-16.3,33-24.2,3.9-2.8,5.6-4.7,12.5-5.2,8.8-.6,24.1-0.2,32.6-0.4,3-.1,6.2.2,7.6,2.8,1.1,2,.9,5.2,1.6,8.5C462.33145,61.438,463.93146,63.938,464.43146,66.538Z"/><path class="cls-9" d="M400.63147,131.538c0.6,0,1.5-.2,1.6.4C402.63147,133.338,399.73148,133.038,400.63147,131.538Z"/><path class="cls-9" d="M385.03147,127.138v2.4c-0.6,0-1.1-.1-1.2.4C382.93146,129.238,383.73148,126.938,385.03147,127.138Z"/><path class="cls-9" d="M394.63147,132.338c-4.5,0-3.9-8.1-.8-9.2C396.33145,124.138,397.43146,130.738,394.63147,132.338Z"/><path class="cls-9" d="M429.23148,120.738c0.6,0.3.6,1.3,0.8,2a2.134,2.134,0,0,1-2.8-1.6C427.83145,120.938,429.33145,121.638,429.23148,120.738Z"/><path class="cls-9" d="M419.33145,113.238c3.5,1.7,3.9,7.1,1.6,10C417.03147,123.438,417.43146,114.938,419.33145,113.238Z"/><path class="cls-9" d="M438.03147,102.838c1.2,1.6,1.4,4,.8,6.4-3.1.2-4.6,2.4-8,1.2a7.33273,7.33273,0,0,1-.8-5.6C432.63147,103.838,434.63147,102.038,438.03147,102.838Z"/><path class="cls-9" d="M484.63147,102.038c0.2,2.6-.2,4.6-2,5.2v-2c-1.1-.1-1,0.8-1.2,1.6-1.1.3-.8-0.8-1.6-0.8-1,0-.6,1.6-1.6,1.6-10.4,1.4-22.1-.8-31.9,0-1,0-.5-0.3-0.4-0.8-0.1-.4-0.8-0.3-0.8-0.8-1-.1-1.3.6-1.2,1.6-0.6-.3-1.2-2.4-2-1.2-0.6-1.2-1.6-3.5-1.2-4.4C454.83145,101.238,469.83145,101.838,484.63147,102.038Z"/><path class="cls-9" d="M481.03147,97.638c0.6,0.6.6,1.7,0.8,2.8h-3.6C478.93146,99.338,480.53147,99.038,481.03147,97.638Z"/><path class="cls-9" d="M481.43146,90.538c0.9,0.8.1,3.3,0.4,4.8-1.1-1.7-1.5-4-4.4-4C478.33145,89.638,481.33145,92.738,481.43146,90.538Z"/><path class="cls-9" d="M474.23148,87.738c0.3-.1.4,0.2,0.4,0.4-0.2,1.6,2-.4,1.6-0.4,0.4,0,2,2,2,0,0.8,0.2,1,.9,2,0.8a1.7459,1.7459,0,0,0-.4,1.2,21.16,21.16,0,0,0-5.6.4C473.53147,89.438,474.63147,89.138,474.23148,87.738Z"/><path class="cls-9" d="M446.83145,88.138c0.1-.5,1-0.3,1.6-0.4v2a12.8511,12.8511,0,0,0-6.4,1.2c-1.7-1.5,1-1.2,1.6-1.6,0.4-.3-0.3-2.2.4-0.4s0.5-.1,1.2-0.4C444.73148,88.738,448.43146,89.338,446.83145,88.138Z"/><path class="cls-9" d="M465.13147,69.438c4.4-2.2,3.9,6.1,3.2,8C465.83145,76.038,466.63147,71.538,465.13147,69.438Z"/><path class="cls-9" d="M389.83145,67.838c-0.5,2.8-3.9,6.2-4.8,10,2.8-1.5,3.2-5.5,5.6-7.6-0.4-1.2,1.2-2.4.4-2.8a61.32164,61.32164,0,0,1,11.2-7.6c-1.4,3.1-4,5.1-4.8,8.8,6-2.6,5-12.2,12.3-13.5,2.3,0.7,1.7,4.1,4,4.8,2.4-.3.5-4.8,1.6-6.4,6.4-4.6,14.9-2.5,23.1-2.4,6.1,0.1,12.3-.9,18.7-0.8,0.1,1.6,1.5,2,1.2,4-1.2-1.4-3.9.3-6,.4,1.1,1.5,4.5.6,6,0,1.2,1.7-5.4.6-6.8,1.6-1.6-.7.7-0.7,0.4-1.2-1.6-3.1-6.8,1.7-7.2,3.6,3,0.4,2.4-2.9,5.2-2.8-0.7,1.1-4.2,2.6-4.4,5.2-0.1,2.4,1.2,14.4,2.4,16.7s5.9,5,8.8,4.4c-0.3-1.8-3.1-2.2-4.8-3.2,3.3-1.2,9.6.5,12.3-1.2,2.7,1.4,5,3.2,7.6,4.8-5.6,1.3-13.8.5-19.9,1.2-3.9.4-7.8,0-10.4,1.2,0.7,2,3.4.9,4.8,0.8,8.4-.6,25.5-2.1,33.9.4-1.5.9-4.6,0.1-6.8,0.4-0.9.8-1.1,2.4-1.2,4,0.7,1.3,1.3,1,2.8.8-0.8,1.2-2.5,1.7-2.8,3.6-0.4,2.4,1.2,4,1.6,5.2h-2.8c-0.2-1.4-.9-2.4-1.2-4.4-0.4-2.8,1-6.7-1.2-8-2.8,1.9-.1,9.2-1.6,12.3-1.9.4-1.1-2.1-1.2-3.2-0.2-3.6.5-8.3-1.6-9.6-3.4,2.8,1.5,10.3-1.6,12.7-2.3-2.8.4-10.7-2.4-13.1-2.2,2.7.5,10.4-1.6,13.1-1.6-3.3-.1-9.7-2.4-12.3-1.9,1.3-1.3,4.4-1.2,6.8,0.1,1.9,1.6,5-.8,5.6-1-3.5.3-9.4-1.6-11.9-3.6.8-.2,6.7-1.2,10.4-0.8-.2-0.8.6-0.8,1.2a13.54509,13.54509,0,0,1-4,.8c2.1-1.2,4-3.5,2.8-6.8-0.9-1.4-3.1-1.4-4.8-2a9.875,9.875,0,0,1,4.8-.8c0.7-.8.3-2.6,0.4-4-2.2-1.5-5.8.2-8.8,0.4-1.2.7-1.4,2.4-1.2,4.4,0.9,0.8,3,.3,4,0-3,1.1-5.9,4.9-2.4,8.8h-2.8c0.1-4.6.6-8.6,0.4-13.5-4.4-2.6-10.2-3.9-15.5-5.6-1-.2.1,3.5-0.8,2-1.5.7-.2-0.6-0.4-1.2a10.57853,10.57853,0,0,1-.8-6,7.00969,7.00969,0,0,0-3.2-3.6c-0.8-3.3.1-8.4-3.2-9.2,0,2.3,1.7,6.2,2,9.6-1.6-2.7-2.2-6.3-3.2-9.6-3.1.3-5.3,2.2-7.6,3.6-2.2,1.4-4.7,2.7-6.4,4.8,0.6,1.1.4,3,1.2,4-0.3,6.9,1.5,13.8,2.8,20.3,5.8-2,10.8-4.9,16.3-7.2,1.1-.1,2.7.3,2.8-0.8,0.2-2.1-2-1.7-3.2-2.4-1.4,1.1-2.6,2.4-5.2,2.4-0.2-4.4-3.5-14.7,3.6-13.9,0.1,2.9.6,5.8,0.8,9.6,2.6,0.8,4.1,1.5,6,1.2,1.3,0.4,2.5.9,3.6,1.2,1.2,0.4,2.8.3,3.6,0.8,4.2,2.4,3.5,7.4,3.6,13.9-2.9,1.2-6.4,1.8-8,4.4-1.8-.6-2.4-2.1-4-2.4-8.6-1.8-13.5,6.8-13.9,14.3-4.3-.8-3.6-6.4-5.6-9.6-0.2-2.5.3-5.6-1.6-6.4-1.5,6.3,4.2,14.9-.4,18.7-2.2-2.5-3.4-6.1-7.6-6-4,.1-7.5,3.9-8.8,7.6-0.5,1.4.7,4.1-2,4,0.3-8.6,2.6-13.6,7.6-17.5,0.4-.3.8-1.3,1.2-1.6,2.7-1.8,6.3-2.4,8.8-4.8-0.2-.9-1.6-0.5-2-1.2-7,3.7-12.7,8.8-19.1,13.1-1.2-1.1.2-2.9,0-4.4a153.68764,153.68764,0,0,0,17.5-11.9c0.8,0.2.1,2,1.6,1.6,0.4-1.3,1-2.4,2.8-2.4-1-7.8-2.3-15.2-3.2-23.1-4.2-3.2-7.5,1.8-11.2,4.4-3.1,2.2-5.7,3.7-8,5.2,0.2,1-.9,1.5-1.2,2.8-0.3,1.5.8,3.8-.4,4,0.4-3.4-1-6.1-.8-8.8,0.4-4.7,4.3-6.9,7.6-9.2a38.80672,38.80672,0,0,0-4.4,8c3.4-1.1,4.3-5.6,5.6-9.2C387.73148,69.638,389.13147,69.138,389.83145,67.838Z"/><path class="cls-9" d="M402.23148,133.538c0.6,0.7-1.4,2.7-.4,4-1.1.5-2.3,1-1.6,2.4-1.8.2-1.9,2-4.4,1.6a4.24347,4.24347,0,0,1,3.6-2.4c-0.7-1.9.4-2.6,2-3.2,0.5-1.3-1.3-.3-0.8-1.6C401.53147,134.438,402.13147,134.238,402.23148,133.538Z"/><path class="cls-9" d="M429.23148,124.738c-2.1,1.4.1,4-2.4,4.4a1.09666,1.09666,0,0,0,.8,1.2c-2.4.8-1.1,1.5-3.6,1.6,1.4,2.1-1.7.3-1.6,2-1.2.2-2.8-1.1-3.2-.4-0.7-1.5,3.4-.5,4.8-1.6,0.2-1-.7-0.9-0.4-2a2.81507,2.81507,0,0,0,2,.4c0.2-1.3-1.2-.9-0.8-2.4a2.81508,2.81508,0,0,0,2-.4,1.09671,1.09671,0,0,0-1.2-.8,2.16126,2.16126,0,0,1,2-1.2c0.2-1.3-1.8-.6-1.2-2.4,1-.3,1.8,1.6,2.4.4C430.13147,123.438,427.83145,124.738,429.23148,124.738Z"/><path class="cls-9" d="M442.83145,95.638c-0.5-1,1.1-2.4,2-2.4,2.8,0,4.4,6.5-.8,5.6,0-.8,1.1-0.5.8-1.6-0.1-1-1.3-.1-1.6,0C442.53147,98.738,444.43146,94.338,442.83145,95.638Z"/><path class="cls-9" d="M475.43146,94.938c-0.9-.8.9-2.2,2-2.4,0.3,1.3,1.5,1.7,2,2.8-0.3,1.4-1.2,2.3-1.6,3.6a2.81508,2.81508,0,0,1-2-.4c0.2-1.1,1.7-1,1.6-2.4C475.33145,96.438,476.83145,94.538,475.43146,94.938Z"/><path class="cls-9" d="M379.13147,90.138c1.5,5.1,1.3,12,2.8,17.1-1.1,0-1.1-1.8-1.2-2.4C380.03147,100.738,379.63147,95.338,379.13147,90.138Z"/><path class="cls-9" d="M473.23148,119.838c0.6,0.7-1.4,2.7-.4,4-1.1.5-2.3,1-1.6,2.4-1.8.2-2,2-4.4,1.6a4.24348,4.24348,0,0,1,3.6-2.4c-0.7-1.9.4-2.6,2-3.2,0.5-1.3-1.3-.3-0.8-1.6C472.53147,120.738,473.13147,120.538,473.23148,119.838Z"/><path class="cls-9" d="M474.83145,119.338c-2.1,1.4.1,4-2.4,4.4a1.09667,1.09667,0,0,0,.8,1.2c-2.4.8-1.1,1.5-3.6,1.6,1.5,2.1-1.7.3-1.6,2-1.2.2-2.8-1.1-3.2-.4-0.7-1.5,3.4-.5,4.8-1.6,0.2-1-.7-0.9-0.4-2a2.81508,2.81508,0,0,0,2,.4c0.2-1.3-1.2-.9-0.8-2.4a2.81508,2.81508,0,0,0,2-.4,1.09671,1.09671,0,0,0-1.2-.8,2.16126,2.16126,0,0,1,2-1.2c0.2-1.3-1.8-.6-1.2-2.4,1-.3,1.8,1.6,2.4.4C475.63147,118.038,473.43146,119.238,474.83145,119.338Z"/><path class="cls-9" d="M439.73148,125.838c0.6,0.7-1.4,2.7-.4,4-1.1.5-2.3,1-1.6,2.4-1.8.2-2,2-4.4,1.6a4.24347,4.24347,0,0,1,3.6-2.4c-0.7-1.9.4-2.6,2-3.2,0.5-1.3-1.3-.3-0.8-1.6C439.03147,126.738,439.63147,126.538,439.73148,125.838Z"/><path class="cls-8" d="M391.83145,113.638c1.2-2.5,1.9-5.6,4.8-6.4C394.83145,109.138,394.83145,112.938,391.83145,113.638Z"/><path class="cls-8" d="M399.03147,107.238c-1.6,2-2,5.2-4.8,6C395.13147,110.538,396.53147,108.338,399.03147,107.238Z"/><path class="cls-8" d="M416.53147,99.238c-0.7,1.9-2,3.4-3.2,5.2-0.9,1.4-1.8,4.1-4,4.4,0.4-2.1,2.1-3.5,3.2-5.2C413.53147,102.038,414.03147,99.438,416.53147,99.238Z"/><path class="cls-8" d="M414.53147,96.438a0.68012,0.68012,0,0,1,.8.4h0a25.1438,25.1438,0,0,1-3.6,6c-1.2,1.6-2.6,4.1-4.4,4C409.33145,102.938,412.43146,100.138,414.53147,96.438Z"/><path class="cls-8" d="M410.93146,95.638c-1.5.2-2.9,0.6-3.6,1.6,1,0.9,2.3-1.1,4-.8-0.1,2.4-2.2,2.8-4.8,2.8-0.7-1.1-.6-1.2-0.4-2.8C407.43146,96.038,410.73148,93.338,410.93146,95.638Z"/><path class="cls-8" d="M417.73148,92.138h1.2c0.8,2.8,1.8,7.4,1.6,10C418.23148,100.138,418.93146,95.838,417.73148,92.138Z"/><path class="cls-8" d="M432.83145,90.538c-0.2,2.8-2.9,7.4-6.4,8.4A77.36027,77.36027,0,0,1,432.83145,90.538Z"/><path class="cls-8" d="M426.83145,88.938a0.597,0.597,0,0,1,.8.4h0c-1.3,2.3-1.5,5.6-4.8,6A46.00255,46.00255,0,0,1,426.83145,88.938Z"/><path class="cls-8" d="M431.23148,88.138c-1,1.7-2.1,3.5-3.2,5.2-1,1.5-1.9,3.7-4,4a24.6466,24.6466,0,0,1,5.6-8C430.23148,88.838,429.93146,87.438,431.23148,88.138Z"/><path class="cls-8" d="M406.93146,59.438c-1.6,3.4-3,7.1-6,9.2-0.4-1.6,1.4-3.1,2.4-4.8C404.23148,62.238,404.63147,59.338,406.93146,59.438Z"/><path class="cls-8" d="M420.53147,57.438c5.1-1,12.4.2,17.5-.8-3.7-1-9.5,0-14.3-.4-1.3-.1-3.3.3-3.6-1.2,8.7,0.8,19.7-2.2,23.1,3.2-0.1.5-.7,0.3-1.2,0.4,0.4,0.7,1.5.7,1.6,1.6a94.53922,94.53922,0,0,1,1.6,11.9c0.2,3.7,1.4,5.9-.4,8-6.2,1.1-13.4,1.2-20.7,1.2A74.51609,74.51609,0,0,1,420.53147,57.438Z"/><path class="cls-8" d="M436.03147,106.438c-0.6,1.6-1.3,4.1-3.2,3.2C433.03147,107.738,433.83145,106.338,436.03147,106.438Z"/><path class="cls-8" d="M469.13147,105.238c2.2-1.2,4.8.5,7.6,0,0,3-5.5.7-7.6,0.8C469.53147,105.438,471.23148,105.338,469.13147,105.238Z"/><path class="cls-8" d="M468.73148,105.638c-2,1.4-5.3.8-8.4,0.8a82.39371,82.39371,0,0,1-11.1-.4c-0.2-.4-0.5-0.7,0-0.8a0.68015,0.68015,0,0,1,.4-0.8h0c3,0.3,7.8.4,12.7,0.4C464.43146,104.838,467.33145,104.238,468.73148,105.638Z"/><path class="cls-8" d="M434.83145,104.038c0.1,1.3-1.4,4.1-4,4C431.53147,106.038,432.63147,104.438,434.83145,104.038Z"/><path class="cls-10" d="M50.75175,100.57286L49.04917,58.7841l6.60434-3.17257L67.9432,92.315l-1.45051-41.91,3.529-1.69509L70.967,100.12178,63.50564,103.706,53.28442,73.17976l0.23909,35.3211-7.411,3.55983L32.397,71.09912c-4.81247,4.67875-5.91792,10.64007-3.70913,17.2371a9.09448,9.09448,0,0,0,2.07129,3.73932c-3.47862,1.67111-5.89632,1.09194-7.34208-3.22612-2.67093-7.97641,4.05524-20.049,12.47452-24.0933,0.7058-.33885,1.38109-0.59373,2.05673-0.84862Z"/><path class="cls-10" d="M87.68814,65.97177c-2.03313.71222-2.72938,5.06265-2.63526,6.84726L86.355,94.24272,78.84865,96.872,76.157,52.03586l7.41319-3.94312L84.55393,64.7133c1.466-3.74483,3.63913-5.04487,5.25506-5.61081,3.33615-1.16855,6.28326.0208,7.48955,4.98418,1.2207,5.02545.54279,13.40879,1.38675,16.88337,0.37674,1.55087,1.15456,2.42308,2.71834,1.87549,2.29352-.80349,2.68929-3.36593,3.0521-6.99355l2.18921-.76681c-0.44691,11.19731-4.14412,13.906-6.907,14.87367-4.53488,1.58863-6.99514-1.31958-7.85424-4.85624-1.02494-4.219-.5334-12.67144-1.49814-16.64215C89.88807,66.413,88.99116,65.51544,87.68814,65.97177Z"/><path class="cls-10" d="M116.67424,79.22806c4.1762-1.17679,6.17486-4.661,8.11989-8.99343l1.79735-.5064c-1.88656,6.63922-5.24089,13.75852-12.27178,15.74-4.96939,1.40025-8.81059-.57158-10.1947-7.68368-1.40856-7.23746-.92433-23.37375,9.91294-26.42746,4.70523-1.32547,6.37855,1.25683,6.99131,4.40341a15.2269,15.2269,0,0,1-9.57468,16.70574c0.1187,0.89629.2374,1.79215,0.38448,2.54735C112.67188,79.29356,114.13653,79.94305,116.67424,79.22806ZM115.11,54.57379c-2.69584.75961-3.97563,8.22376-3.8204,14.75268,4.00941-1.462,6.66086-7.32086,5.64427-12.54476C116.62788,55.20843,116.11454,54.29086,115.11,54.57379Z"/><path class="cls-10" d="M132.94915,47.28463l-0.082,4.09646c1.5716-2.32868,3.28332-4.82033,5.84462-5.39915,2.40147-.54289,4.04726,1.51858,4.42226,3.933,0.3456,2.22407-.50672,4.91627-3.12154,5.50736-2.988.67523-2.14559-3.85626-3.74608-3.49433-1.60086.36193-2.41324,1.53219-3.52029,3.29512l-0.51813,25.111-7.6839,1.73692,0.72112-33.049Z"/><path class="cls-10" d="M156.09018,69.64132c2.04177-.35387,4.43212-2.40078,5.93956-4.49107-0.26635,7.49154-3.87793,10.33809-8.17649,11.0832-4.9971.866-8.67622-1.5004-9.53059-8.73218-0.86972-7.35962.80074-23.38791,11.81583-25.29749,4.78208-.82907,6.25826,1.91933,6.63619,5.119A14.64839,14.64839,0,0,1,152.012,62.96869c0.02181,0.64926.05113,1.36221,0.11929,1.93853C152.60771,68.9389,154.20958,69.9675,156.09018,69.64132Zm0.87876-24.12019c-2.68646.46553-4.53391,8.035-4.94408,14.31021,4.1609-.98231,7.2327-6.54355,6.59744-11.919C158.43316,46.3121,157.98984,45.344,156.96895,45.52113Z"/><path class="cls-10" d="M187.5608,29.60432l-1.16866,10.36607,3.24571-.32178-0.263,2.6209-3.24607.32177-2.1893,19.67891A10.66286,10.66286,0,0,0,183.859,64.354c0.11853,1.80484.86018,2.31532,2.37508,2.1651,2.10989-.20889,3.89621-2.8514,4.49535-6.15441l2.27235-.22489c-2.392,10.81135-7.65479,12.75974-10.57593,13.04951-3.24607.32177-5.9415-1.7468-6.29784-7.16089a25.25588,25.25588,0,0,1,.1571-4.23217l2.05359-18.433-1.78532.17689,0.263-2.6209,1.78532-.17689,1.03753-9.05519Z"/><path class="cls-10" d="M203.89442,44.44331c-2.11494.09807-3.68337,4.11756-3.95915,5.87733l-3.14143,21.17568-7.80925.36117L195.592,27.54973l7.98927-1.66318-2.463,16.42048c2.1888-3.20735,4.56018-3.83458,6.24145-3.91248,3.47078-.16042,6.08054,1.85466,6.22851,7.02455,0.14966,5.23438-2.23015,13.174-2.12642,16.79316,0.04592,1.61567.62,2.68894,2.24676,2.61376,2.38625-.11,3.29562-2.48173,4.39282-5.89749l2.27765-.105c-2.73408,10.73843-6.871,12.28868-9.745,12.4216-4.71838.21773-6.50265-3.32349-6.60807-7.00669-0.12567-4.39473,2.08734-12.456,1.9691-16.59192C205.93421,45.5141,205.25026,44.381,203.89442,44.44331Z"/><path class="cls-10" d="M228.75582,64.8562c2.06219-.00792,4.66908-1.63486,6.40808-3.45252-1.149,7.37764-5.05925,9.59157-9.40071,9.6084-5.04677.01952-8.40757-2.94313-8.39848-10.25164,0.00938-7.4383,3.55654-23.03914,14.68135-23.08215,4.83005-.01809,5.966,2.95247,5.96167,6.18641A13.79212,13.79212,0,0,1,225.50882,57.56c-0.05474.64693-.11,1.35876-0.11087,1.94065C225.39286,63.57563,226.85661,64.86327,228.75582,64.8562Zm3.72032-23.75125c-2.71341.01047-5.436,7.20008-6.58352,13.349,4.23348-.27527,7.93-5.26962,7.93692-10.70265C233.83154,42.13458,233.50705,41.101,232.47614,41.10495Z"/><path class="cls-10" d="M274.75535,31.45236l-9.12722,41.10541-7.80566-.39634,9.39517-42.38677-0.65038-.03292c-5.74606-.29181-10.29609,2.13162-10.7088,12.53549a10.48871,10.48871,0,0,0,.58433,4.43244c-3.74015-.18972-5.73606-1.90976-5.5512-6.56252,0.341-8.59421,5.7623-16.5421,19.1508-15.86219,6.559,0.333,8.5058,1.92124,13.81768,2.19081a15.05867,15.05867,0,0,0,6.34206-1.038c-0.33132,5.61646-2.765,8.08289-7.10114,7.8627A33.98946,33.98946,0,0,1,274.75535,31.45236Z"/><path class="cls-10" d="M288.75785,41.923l-0.98321,3.93083c2.02784-1.75582,4.2278-3.62572,6.82274-3.38122,2.43326,0.22894,3.56419,2.7365,3.39207,5.18642-0.15865,2.25671-1.57422,4.5892-4.22355,4.34007-3.02852-.28535-1.21529-4.39761-2.838-4.55038-1.62193-.15276-2.663.72284-4.11928,2.07831l-6.0454,24.09182L272.977,72.8857l7.99458-31.69586Z"/><path class="cls-10" d="M323.11675,46.38014l-6.22233,21.25132a10.4387,10.4387,0,0,0-.43573,2.022c-0.19316,1.79721.44384,2.47805,1.95087,2.6998,2.099,0.30927,3.81438-1.91582,4.96712-5.00593l2.26055,0.33262c-4.19333,10.01026-9.18856,10.70885-12.09538,10.28063-3.06768-.45157-4.77714-2.85481-4.67179-6.88174-3.25707,4.86654-6.36069,5.25727-8.62123,4.92422-3.22925-.47536-5.50993-3.15837-4.93045-8.54957a24.61562,24.61562,0,0,1,.87959-4.10873l5.87542-20.06359,7.75034,1.14148-6.22233,21.25132a10.60244,10.60244,0,0,0-.35474,1.77342c-0.15911,1.47621.14766,2.69474,1.33155,2.86891,2.099,0.30927,3.76076-1.92346,4.91278-5.014l5.87614-20.06358Z"/><path class="cls-10" d="M341.23642,55.74584c0.247-1.591-.07482-2.7128-1.08825-2.931-3.36168-.72374-8.63914,10.17582-9.73755,17.24048-0.672,4.3274.44975,5.62128,3.01083,6.17294,4.21441,0.90732,7.21073-1.34132,10.44212-4.39456l1.814,0.39069c-3.9512,5.20035-9.406,10.14265-16.50147,8.61449-5.015-1.07983-7.868-4.7197-6.75051-11.9113,1.14766-7.38242,7.0426-21.89841,17.87324-19.56624,4.7479,1.02261,5.46694,4.20263,5.01184,7.13029-0.48451,3.1185-2.00252,4.37019-3.54944,4.03715a3.34751,3.34751,0,0,1-1.74923-1.166A12.83852,12.83852,0,0,0,341.23642,55.74584Z"/><path class="cls-10" d="M373.1386,59.23049l-12.42142,5.45188a8.55242,8.55242,0,0,1,1.7864.28562c3.88233,1.20271,5.03527,5.10541,4.14688,9.11192a12.42328,12.42328,0,0,1-.73728,2.31387l-1.27139,2.95137a11.84543,11.84543,0,0,0-.70663,1.92187c-0.27735,1.25225-.09367,2.44621,1.53228,2.9499a2.99031,2.99031,0,0,0,1.91975.19352c-1.24815,4.36339-4.945,5.35926-6.30849,4.93652-4.30165-1.33248-6.04076-4.614-5.028-9.18383a18.37021,18.37021,0,0,1,1.03676-3.15785l0.96084-2.31132a12.13039,12.13039,0,0,0,.72338-2.25132c0.40249-1.81561.14179-3.16764-1.22173-3.59-1.20663-.37392-2.60792.12912-4.396,1.11372L346.99775,84.584l-7.55428-2.33987,17.04568-40.213,8.042,1.15316L355.7099,64.00111l12.2349-6.37936Z"/><path class="cls-10" d="M216.41528,119.489a2.13787,2.13787,0,0,1,2.7223,1.29513,2.11566,2.11566,0,0,1-1.30278,2.6978,2.093,2.093,0,0,1-2.68938-1.27829A2.11619,2.11619,0,0,1,216.41528,119.489Zm3.03115,4.94744,1.22739,9.17995a3.72336,3.72336,0,0,0,.18485.83969,0.88316,0.88316,0,0,0,1.36019.563,2.919,2.919,0,0,0,1.47462-3.01355l1.0544-.37507c0.02411,4.60222-2.26533,6.03781-3.62131,6.52042-1.50716.53581-3.00819,0.0509-3.75794-2.05789a8.74685,8.74685,0,0,1-.37966-1.70387l-1.15811-8.66749Z"/><path class="cls-10" d="M228.22338,120.67386c2.43066,6.46837,3.00321,7.375,3.54476,9.04829,1.06741,3.29561-1.57069,5.35465-3.64963,6.02786-2.58643.837-4.25241-.5006-4.75263-2.04718a2.72912,2.72912,0,0,1,.58021-2.79272,40.259,40.259,0,0,0,.6889-8.5144Zm-2.8949,12.16938a0.76893,0.76893,0,0,1-.79108-0.10793c0.3854,1.19179,1.005,1.63537,2.12066,1.27446a2.18409,2.18409,0,0,0,1.44248-3.0721c-0.42635-1.31847-.909-2.03034-2.42683-5.853a30.50974,30.50974,0,0,1-.50213,5.45684,1.0039,1.0039,0,0,1,.86993.69847A1.26508,1.26508,0,0,1,225.32847,132.84325Z"/><path class="cls-10" d="M247.418,116.16579l0.47534,9.25037a3.6619,3.6619,0,0,0,.11635.85155,0.88171,0.88171,0,0,0,1.30891.67206,1.3532,1.3532,0,0,0,.53964-0.25336c-0.21624,1.98785-.49294,2.91634-1.88337,3.28681a2.56587,2.56587,0,0,1-3.16166-1.72454,4.81211,4.81211,0,0,1-3.19993,3.41655c-1.7521.46539-3.71393-.17069-4.5295-3.23552-0.92465-3.47779-.25949-9.58372,4.22218-10.77551,1.46812-.39076,2.23662.01148,2.43525,0.75855l0.04746,0.17988-0.07922-1.44018ZM240.8,127.055c0.52816,1.98326,1.35866,1.79,1.82252,1.66637a2.6811,2.6811,0,0,0,1.53433-2.83558l-0.31192-6.14956a1.03368,1.03368,0,0,0-1.3158-.69808C240.33995,119.62061,240.15662,124.63388,240.8,127.055Z"/><path class="cls-10" d="M261.32493,110.4066c-0.02985-.26637-0.04822-0.4807-0.09759-0.71492a0.90991,0.90991,0,0,0-1.17878-.6755c-0.57408.12171-1.37665,0.70153-1.37052,2.52558l-0.005,2.15281,1.90289-.40454,0.03942,1.08119-1.9293.41066-0.00383,14.71295c0.01148,3.893-2.00278,5.05728-3.72235,5.42316a2.99594,2.99594,0,0,1-3.67489-2.16084c-0.50978-2.39775,1.33646-3.58074,3.65193-4.86324l-0.01225-15.55417c-0.01033-3.89381,2.08124-5.07412,3.80157-5.44a2.99446,2.99446,0,0,1,3.67412,2.16084,6.551,6.551,0,0,1,.14926,1.0854Zm-7.45809,22.31877c0.54806-.11635,1.04177-0.739,1.05363-2.34838l0.01722-1.58408c-1.52591.89672-2.596,1.8872-2.29633,3.29408A1.0765,1.0765,0,0,0,253.86684,132.72537Z"/><path class="cls-10" d="M271.26267,115.43135a0.62137,0.62137,0,0,0,.29852.00077,8.49314,8.49314,0,0,0,3.75794-2.299l0.36282,0.66593a8.41342,8.41342,0,0,1-4.25318,3.01048c0.45046,4.92868-1.62695,8.44283-4.85329,9.02112-2.43985.43783-4.40474-.40109-4.9417-3.39206-0.54078-3.017.11443-9.63347,5.51846-10.60252C269.40838,111.43153,270.76934,112.67652,271.26267,115.43135Zm-1.99742,1.84778a0.98823,0.98823,0,0,1-.90514-0.97517,1.464,1.464,0,0,1,.55954-1.56265c-0.2503-1.09229-.58786-1.46506-1.27025-1.343-1.8627.3345-2.62815,5.427-2.167,7.99849,0.31039,1.73143.72181,2.06363,1.7188,1.8849C268.48717,123.05094,269.40111,120.45,269.26525,117.27912Z"/><path class="cls-10" d="M283.04015,113.76574a0.62348,0.62348,0,0,0,.29776.0134,8.49138,8.49138,0,0,0,3.85094-2.13711l0.3345,0.68086a8.42385,8.42385,0,0,1-4.37527,2.82678c0.24188,4.94131-1.981,8.36322-5.22874,8.80527-2.45554.33373-4.38216-.58748-4.79167-3.59758-0.41334-3.03574.5205-9.61625,5.95973-10.35605C281.3577,109.69244,282.66355,110.9937,283.04015,113.76574Zm-2.07205,1.76128a0.9889,0.9889,0,0,1-.86418-1.0123,1.46426,1.46426,0,0,1,.6246-1.537c-0.20361-1.10109-.52433-1.488-1.2117-1.39464-1.87457.25489-2.85433,5.30911-2.50223,7.8963,0.23729,1.74291.63455,2.09234,1.638,1.95571C279.94546,121.259,280.96886,118.69979,280.96809,115.527Z"/><path class="cls-10" d="M297.67234,103.0285L295.833,117.62664a3.71416,3.71416,0,0,0-.03444.85883,0.8829,0.8829,0,0,0,1.17266.88983c1.03488-.08764,1.66637-1.15735,1.95264-2.51869l1.11525-.09453c-1.1474,4.45641-3.50037,5.08369-4.93481,5.20539a2.44692,2.44692,0,0,1-2.7954-2.06363,4.73945,4.73945,0,0,1-3.72311,2.77626c-1.80568.15309-3.62667-.81634-3.89381-3.97609-0.30465-3.58495,1.41607-9.48077,6.037-9.87229,1.514-.12821,2.20065.40224,2.26571,1.17227l0.00919,0.106,0.78381-6.21769Zm-5.59921,14.4083,0.78611-6.19128a1.05691,1.05691,0,0,0-1.1673-.837c-2.25805.19136-3.3136,5.0944-3.10157,7.59089,0.173,2.0445,1.02569,1.999,1.50333,1.95838a2.63055,2.63055,0,0,0,1.99092-2.38818Z"/><path class="cls-10" d="M304.94328,103.90072l-0.72334,4.24591,1.59748-.06889-0.16763,1.07392-1.59671.06889-1.35943,8.06164a3.676,3.676,0,0,0-.07042.85653,0.88243,0.88243,0,0,0,1.13362.938,2.91781,2.91781,0,0,0,2.29633-2.44674l1.11831-.04822c-1.33034,4.4055-3.942,5.10512-5.37953,5.16712-1.59748.06889-2.89031-.83586-2.98752-3.0721a8.775,8.775,0,0,1,.13931-1.73985l1.27446-7.55071-0.87873.03789,0.16687-1.07468,0.87949-.03789,0.63991-3.70819Z"/><path class="cls-10" d="M311.58043,107.98168l-0.32531,1.65718a5.198,5.198,0,0,1,3.20414-1.69354,1.97551,1.97551,0,0,1-.02985,3.94624c-1.49261.01875-.7685-1.75018-1.56839-1.73985a2.75886,2.75886,0,0,0-1.93351,1.03717l-2.00469,10.15436-3.83716.04822,2.65685-13.36156Z"/><path class="cls-10" d="M328.57019,108.2737l-2.19912,8.99816a3.72953,3.72953,0,0,0-.13319.84926,0.88267,0.88267,0,0,0,1.06167,1.01957c1.03947,0.03215,1.79037-.958,2.2305-2.278l1.11908,0.03483c-1.65259,4.29528-4.06833,4.807-5.50736,4.7622a2.48755,2.48755,0,0,1-2.55887-2.61207c-1.4,2.14286-2.90179,2.44329-4.02087,2.40846-1.59824-.04975-2.82065-1.04751-2.751-3.2849a8.76423,8.76423,0,0,1,.26637-1.72531l2.07665-8.49526,3.83563,0.119-2.19758,8.99854a3.67087,3.67087,0,0,0-.10333.74324,0.88549,0.88549,0,0,0,.76391,1.11716c1.03947,0.03177,1.76358-.9591,2.20447-2.27872l2.07664-8.49488Z"/><path class="cls-10" d="M337.73865,111.22371c0.05128-.6644-0.15538-1.1076-0.65981-1.14663-1.67326-.12859-3.7744,4.59993-4.001,7.54917-0.13931,1.80606.46539,2.28025,1.74062,2.37823,2.09884,0.16151,3.46439-.90858,4.90878-2.32082l0.90322,0.06927c-1.70158,2.32733-4.151,4.62442-7.68428,4.35231-2.49687-.19213-4.04919-1.54084-3.81879-4.54252,0.23729-3.08167,2.48156-9.32309,7.87411-8.90784,2.36522,0.18179,2.8551,1.449,2.761,2.67139-0.10027,1.30163-.78687,1.88988-1.55768,1.83056a1.70247,1.70247,0,0,1-.90475-0.39A4.68978,4.68978,0,0,0,337.73865,111.22371Z"/><path class="cls-10" d="M353.28326,110.72l-5.74771,3.01584a5.0023,5.0023,0,0,1,.88638.00306,2.83159,2.83159,0,0,1,2.5229,3.4575,4.55374,4.55374,0,0,1-.23116.99125l-0.4562,1.28633a4.35373,4.35373,0,0,0-.23729.82936,0.88856,0.88856,0,0,0,.90935,1.10721,1.73554,1.73554,0,0,0,.94532-0.04325,2.93212,2.93212,0,0,1-2.79922,2.41688c-2.16926-.27058-3.19725-1.49988-2.95614-3.43033a6.71821,6.71821,0,0,1,.32991-1.35522l0.33986-1.005a4.46531,4.46531,0,0,0,.22887-0.96522c0.09491-.767-0.1064-1.3024-0.79376-1.38813a3.3476,3.3476,0,0,0-2.07818.73444l-2.1907,6.36006-3.80884-.475,6.07838-17.50375,3.97953-.04057-3.14367,9.06092,5.60457-3.38287Z"/><path class="cls-10" d="M354.71693,124.521a2.13914,2.13914,0,0,1-1.71229-2.48233,2.11571,2.11571,0,0,1,2.47774-1.6855,2.09279,2.09279,0,0,1,1.69086,2.45095A2.11592,2.11592,0,0,1,354.71693,124.521Zm2.61169-5.807-1.73067-.31728c0.67895-3.69632,5.69948-4.18314,6.432-8.16689,0.23576-1.28479-.34981-1.93389-1.10989-2.074a2.20771,2.20771,0,0,0-2.49687,1.79075,1.78389,1.78389,0,0,0,.67818,1.91284,2.26094,2.26094,0,0,1-2.11492.74937,2.034,2.034,0,0,1-1.58676-2.56768c0.32684-1.78272,2.32159-3.9359,6.27892-3.20873,3.59146,0.65943,3.93361,2.18572,3.61136,3.94165C364.36074,115.8332,359.32949,115.04442,357.32862,118.71395Z"/></svg>